<svg width="21" height="20" viewBox="0 0 21 20" fill="none" xmlns="http://www.w3.org/2000/svg">
<g clip-path="url(#clip0)">
<path d="M0.519246 18.7255C0.519246 18.7255 5.09901 14.1437 5.38949 13.8533C5.67996 13.563 6.14946 13.5642 6.43845 13.8561C6.69199 14.1125 6.72195 14.5077 6.52902 14.797C6.50222 14.8372 6.47113 14.8754 6.43573 14.9108L1.56549 19.783C1.42061 19.9277 1.23173 20 1.04237 20C0.851762 20 0.661397 19.9267 0.516521 19.7803C0.227768 19.4881 0.22901 19.0161 0.519246 18.7255Z" fill="white"/>
<path d="M6.43845 13.8561C6.14946 13.5642 5.67996 13.563 5.38949 13.8533L6.05991 13.1818L6.65421 13.6364L7.10803 14.0909L6.52902 14.797C6.72195 14.5077 6.69199 14.1125 6.43845 13.8561Z" fill="white"/>
<path d="M12.0819 0C16.5961 0 20.2688 3.67854 20.2688 8.2C20.2688 12.7215 16.5961 16.4 12.0819 16.4C7.56778 16.4 3.89504 12.7215 3.89504 8.2C3.89504 3.67854 7.56775 0 12.0819 0ZM12.0819 15.052C15.8562 15.052 18.9267 11.978 18.9267 8.19996C18.9267 4.42167 15.8562 1.3479 12.0819 1.3479C8.3077 1.3479 5.23718 4.42167 5.23718 8.19996C5.23715 11.978 8.30766 15.052 12.0819 15.052Z" fill="white"/>
<path fill-rule="evenodd" clip-rule="evenodd" d="M12.082 4.59998C12.4128 4.59998 12.681 4.8686 12.681 5.19998L12.681 11.2C12.681 11.5313 12.4128 11.8 12.082 11.8C11.7511 11.8 11.4829 11.5313 11.4829 11.2L11.4829 5.19998C11.4829 4.8686 11.7511 4.59998 12.082 4.59998Z" fill="white"/>
<path fill-rule="evenodd" clip-rule="evenodd" d="M15.6761 8.19998C15.6761 8.53135 15.4079 8.79998 15.0771 8.79998H9.08671C8.75587 8.79998 8.48767 8.53135 8.48767 8.19998C8.48767 7.8686 8.75587 7.59998 9.08671 7.59998H15.0771C15.4079 7.59998 15.6761 7.8686 15.6761 8.19998Z" fill="white"/>
</g>
<defs>
<clipPath id="clip0">
<rect width="19.968" height="20" fill="white" transform="matrix(-1 0 0 1 20.2688 0)"/>
</clipPath>
</defs>
</svg>
