<svg width="58" height="58" viewBox="0 0 58 58" fill="none" xmlns="http://www.w3.org/2000/svg">
<path d="M57.4936 28.4631C57.4452 20.8491 54.4072 13.683 48.9243 8.30843C43.4052 2.88542 36.1189 -0.043976 28.409 0.0528634C12.5535 0.246542 -0.191477 13.2957 0.002178 29.141C0.0990056 36.8277 3.17328 44.018 8.65615 49.3805C14.0664 54.6582 21.1711 57.5513 28.7237 57.5513C28.8447 57.5513 28.9657 57.5513 29.0868 57.5513C36.724 57.5029 43.8893 54.4646 49.2511 49.0052C54.6614 43.4975 57.5904 36.1982 57.4936 28.4631ZM47.9561 47.7221C42.9331 52.8425 36.2278 55.675 29.0626 55.7235C21.8731 55.8082 15.071 53.0967 9.92701 48.0731C4.78304 43.0617 1.90242 36.3192 1.8177 29.1168C1.63614 14.2762 13.5701 2.05018 28.4332 1.8686C28.5421 1.8686 28.6632 1.8686 28.7721 1.8686C35.8647 1.8686 42.57 4.60432 47.6535 9.60366C52.7853 14.6393 55.6296 21.3454 55.6781 28.4753C55.7628 35.7261 53.0274 42.5654 47.9561 47.7221Z" fill="url(#paint0_linear)"/>
<path d="M41.4567 8.52625C37.6441 6.12948 33.2384 4.85846 28.736 4.85846C24.2335 4.85846 19.8399 6.12948 16.0152 8.52625C12.1905 10.923 9.12837 14.3487 7.16761 18.416C6.94975 18.8639 7.1434 19.4086 7.59123 19.6265C8.03906 19.8444 8.58372 19.6507 8.80158 19.2028C12.481 11.5888 20.2999 6.66209 28.736 6.66209C37.1721 6.66209 45.003 11.5888 48.6704 19.2028C48.8277 19.5175 49.1545 19.7112 49.4934 19.7112C49.6265 19.7112 49.7597 19.687 49.8807 19.6265C50.3285 19.4086 50.5222 18.8639 50.3043 18.416C48.3315 14.3487 45.2814 10.9351 41.4567 8.52625Z" fill="url(#paint1_linear)"/>
<path d="M37.777 18.3918L28.3848 27.7852C28.0338 28.1362 28.0338 28.7173 28.3848 29.0683C28.5664 29.2499 28.7963 29.3346 29.0263 29.3346C29.2684 29.3346 29.4983 29.2499 29.6678 29.0683L39.06 19.6749C39.411 19.3238 39.411 18.7428 39.06 18.3918C38.709 18.0407 38.128 18.0407 37.777 18.3918Z" fill="url(#paint2_linear)"/>
<path d="M33.529 27.8941C33.0328 27.8941 32.6213 28.3056 32.6213 28.8019C32.6213 30.8961 30.9147 32.6029 28.7239 32.6876C26.5937 32.6755 24.8629 30.9808 24.8629 28.8988C24.8629 28.8867 24.8629 28.8746 24.8629 28.8625C24.8266 27.8214 25.2139 26.7925 25.9401 26.042C26.6421 25.3157 27.562 24.9163 28.5545 24.9163C29.0507 24.9163 29.4622 24.5047 29.4622 24.0084C29.4622 23.5121 29.0507 23.1005 28.5545 23.1005C27.0657 23.1005 25.6738 23.7058 24.6329 24.7831C23.5799 25.8847 22.9989 27.3857 23.0474 28.9109C23.0595 31.9977 25.6133 34.5034 28.7481 34.5034C28.7602 34.5034 28.7723 34.5034 28.7723 34.5034C31.9435 34.3823 34.4368 31.8766 34.4368 28.8019C34.4368 28.3056 34.0253 27.8941 33.529 27.8941Z" fill="url(#paint3_linear)"/>
<defs>
<linearGradient id="paint0_linear" x1="9.19934" y1="7.52564" x2="54.5983" y2="14.5688" gradientUnits="userSpaceOnUse">
<stop stop-color="#2173EF"/>
<stop offset="1" stop-color="#C03CD6"/>
</linearGradient>
<linearGradient id="paint1_linear" x1="14.0085" y1="6.78996" x2="43.085" y2="19.9422" gradientUnits="userSpaceOnUse">
<stop stop-color="#2173EF"/>
<stop offset="1" stop-color="#C03CD6"/>
</linearGradient>
<linearGradient id="paint2_linear" x1="29.9138" y1="19.5853" x2="38.7588" y2="20.9571" gradientUnits="userSpaceOnUse">
<stop stop-color="#2173EF"/>
<stop offset="1" stop-color="#C03CD6"/>
</linearGradient>
<linearGradient id="paint3_linear" x1="24.8673" y1="24.5829" x2="33.863" y2="25.9773" gradientUnits="userSpaceOnUse">
<stop stop-color="#2173EF"/>
<stop offset="1" stop-color="#C03CD6"/>
</linearGradient>
</defs>
</svg>
