<svg width="58" height="58" viewBox="0 0 58 58" fill="none" xmlns="http://www.w3.org/2000/svg">
<path d="M50.2064 35.3665C49.7442 35.0958 49.1524 35.2505 48.8835 35.7117L37.7993 54.6167C36.9986 56.0023 35.2224 56.48 33.8792 55.7045L31.72 54.3053C31.2714 54.0142 30.6727 54.1419 30.3827 54.5905C30.0915 55.0382 30.2202 55.6377 30.6679 55.9278L32.8696 57.3531C33.6287 57.7921 34.4593 58 35.2792 58C36.9511 58 38.5775 57.1346 39.47 55.5894L50.5503 36.6891C50.8203 36.229 50.6667 35.6362 50.2064 35.3665Z" fill="url(#paint0_linear)"/>
<path d="M53.1314 0H37.6601C34.6684 0 32.4396 0.952415 30.2078 3.18416C29.8298 3.56229 29.8298 4.1734 30.2078 4.55142C30.586 4.92956 31.1971 4.92956 31.5751 4.55142C33.4587 2.66778 35.1654 1.93384 37.6601 1.93384H53.1314C54.7307 1.93384 56.0323 3.23538 56.0323 4.83471V20.3061C56.0323 22.8019 55.2983 24.5075 53.4138 26.3911L24.6971 55.1485C23.6005 56.2431 21.6898 56.2441 20.5953 55.1485L2.81769 37.3709C2.26947 36.8227 1.96771 36.0946 1.96771 35.319C1.96771 34.5445 2.26936 33.8163 2.81667 33.269L28.7718 7.35076C29.1711 7.4523 29.5714 7.55383 29.9863 7.66499C33.9199 8.71893 37.0239 9.80778 39.3378 10.7796C38.8823 11.6228 38.627 12.5675 38.627 13.5373C38.627 16.737 41.2291 19.3391 44.4288 19.3391C47.6285 19.3391 50.2305 16.737 50.2305 13.5373C50.2305 10.3376 47.6285 7.73558 44.4288 7.73558C43.894 7.73558 43.4619 8.16879 43.4619 8.7025C43.4619 9.23622 43.894 9.66942 44.4288 9.66942C46.5619 9.66942 48.2966 11.4042 48.2966 13.5372C48.2966 15.6704 46.5618 17.405 44.4288 17.405C42.2957 17.405 40.561 15.6703 40.561 13.5372C40.561 12.841 40.7515 12.1612 41.1025 11.5695C42.7773 12.3711 43.8245 13.047 44.2384 13.4783C44.0614 13.5286 43.7878 13.5847 43.375 13.6204C42.8432 13.6678 42.4496 14.1368 42.497 14.6686C42.5415 15.1713 42.963 15.5514 43.4591 15.5514C43.4871 15.5514 43.5161 15.5495 43.5451 15.5475C44.1398 15.4944 45.949 15.3348 46.2971 14.0381C47.2495 10.4806 33.2935 6.54894 30.4864 5.79664C26.192 4.64593 22.068 3.85884 18.8722 3.58042C14.9454 3.23719 13.0327 3.68388 12.6731 5.02791C12.5009 5.6729 12.0417 7.38533 19.8817 10.4767C20.3778 10.6729 20.9406 10.4293 21.1359 9.93231C21.3313 9.43531 21.0875 8.8735 20.5905 8.67814C16.803 7.18419 15.2335 6.08957 14.7308 5.57421C15.9231 5.22418 20.0007 5.32571 26.5673 6.81864L1.45043 31.9009C0.536655 32.8146 0.0338745 34.0281 0.0338745 35.319C0.0338745 36.6109 0.536655 37.8253 1.45043 38.7382L19.2279 56.5157C20.1398 57.4284 21.3543 57.9313 22.6452 57.9313C23.9371 57.9313 25.1506 57.4285 26.0643 56.5148L54.782 27.7584C57.0146 25.5267 57.9661 23.2979 57.9661 20.3061V4.83482C57.9662 2.16885 55.7974 0 53.1314 0Z" fill="url(#paint1_linear)"/>
<path d="M30.9991 36.1028L29.973 37.117L20.1909 27.22L21.217 26.2058L27.8701 32.937C28.6556 33.0721 29.2682 32.9223 29.708 32.4876C30.3065 31.896 30.5774 31.1928 30.5207 30.378C30.474 29.5734 30.0254 28.7408 29.1748 27.8802C28.6786 27.3782 28.0929 26.9444 27.4176 26.5788C26.7546 26.2012 26.0487 25.9267 25.2998 25.7555L26.3707 23.9071C27.1845 24.0952 27.9655 24.3967 28.7137 24.8116C29.4742 25.2145 30.1379 25.7028 30.705 26.2766C31.5658 27.1474 32.1462 28.0523 32.4463 28.9912C32.7565 29.9403 32.7876 30.8514 32.5397 31.7243C32.314 32.5955 31.8469 33.3812 31.1384 34.0815C30.7476 34.4678 30.3315 34.7677 29.8903 34.981L30.9991 36.1028ZM18.6884 28.7051L28.4705 38.6021L27.4444 39.6162L20.8218 32.9158C19.9713 32.7639 19.2957 32.9355 18.7949 33.4305C18.1963 34.0221 17.9265 34.7142 17.9853 35.5067C18.0665 36.2974 18.5425 37.1332 19.4134 38.0143C20.0919 38.7008 20.8722 39.246 21.7545 39.65C22.6591 40.0521 23.5195 40.2752 24.3357 40.3191L23.347 42.1774C22.3664 42.1137 21.3873 41.8561 20.4097 41.4045C19.4545 40.9511 18.6123 40.3556 17.8832 39.6179C17.0022 38.7266 16.4005 37.8124 16.078 36.8754C15.7779 35.9365 15.7407 35.0315 15.9663 34.1603C16.192 33.2891 16.6651 32.4974 17.3859 31.785C17.8256 31.3504 18.2925 31.0409 18.7864 30.8565L17.6624 29.7193L18.6884 28.7051Z" fill="url(#paint2_linear)"/>
<defs>
<linearGradient id="paint0_linear" x1="33.4998" y1="38.1929" x2="49.7259" y2="40.455" gradientUnits="userSpaceOnUse">
<stop stop-color="#2173EF"/>
<stop offset="1" stop-color="#C03CD6"/>
</linearGradient>
<linearGradient id="paint1_linear" x1="9.30303" y1="7.53107" x2="55.0463" y2="14.6284" gradientUnits="userSpaceOnUse">
<stop stop-color="#2173EF"/>
<stop offset="1" stop-color="#C03CD6"/>
</linearGradient>
<linearGradient id="paint2_linear" x1="25.8359" y1="24.7711" x2="32.7179" y2="33.5771" gradientUnits="userSpaceOnUse">
<stop stop-color="#2173EF"/>
<stop offset="1" stop-color="#C03CD6"/>
</linearGradient>
</defs>
</svg>
