<svg width="58" height="58" viewBox="0 0 58 58" fill="none" xmlns="http://www.w3.org/2000/svg">
<path d="M28.2406 35.851C28.4547 35.3997 28.9946 35.2072 29.446 35.4215C30.1805 35.7701 30.9506 36.0582 31.7348 36.2776C32.0629 36.3694 32.3115 36.6374 32.3782 36.9716L33.3354 41.7576C33.4299 42.2302 33.8483 42.5732 34.3303 42.5732H36.9415C37.4235 42.5732 37.8418 42.2303 37.9364 41.7576L38.8936 36.9716C38.9605 36.6374 39.2092 36.3694 39.537 36.2776C40.6449 35.9675 41.7141 35.5245 42.7149 34.9608C43.0119 34.7936 43.3775 34.8074 43.661 34.9963L47.7225 37.7039C48.1235 37.9712 48.6619 37.9178 49.0028 37.5771L50.8493 35.7306C51.1901 35.3897 51.2433 34.8513 50.9761 34.4503L48.2684 30.3887C48.0794 30.1052 48.0656 29.7396 48.233 29.4426C48.7968 28.4417 49.2398 27.3725 49.5497 26.2648C49.6415 25.9367 49.9096 25.6881 50.2437 25.6214L55.0297 24.6641C55.5023 24.5697 55.8454 24.1513 55.8454 23.6693V21.058C55.8454 20.576 55.5024 20.1577 55.0297 20.0631L50.2437 19.1059C49.9096 19.0391 49.6415 18.7904 49.5497 18.4625C49.2397 17.3546 48.7966 16.2854 48.233 15.2846C48.0657 14.9878 48.0795 14.6221 48.2684 14.3386L50.9759 10.2774C51.2432 9.87639 51.1899 9.3381 50.849 8.99716L49.0026 7.15072C48.6618 6.80988 48.1233 6.75671 47.7223 7.0239L43.6607 9.73155C43.3773 9.9206 43.0115 9.93426 42.7147 9.76703C41.7139 9.20334 40.6447 8.76031 39.5368 8.45025C39.2087 8.35847 38.9601 8.09039 38.8934 7.75627L37.9362 2.97026C37.8417 2.49768 37.4233 2.15461 36.9413 2.15461H34.33C33.8481 2.15461 33.4298 2.49757 33.3352 2.97026L32.3779 7.75627C32.3111 8.09039 32.0624 8.35847 31.7346 8.45025C30.6266 8.76031 29.5575 9.20334 28.5567 9.76703C28.2597 9.93426 27.894 9.92049 27.6106 9.73155L23.549 7.0239C23.1481 6.7566 22.6098 6.80999 22.2688 7.15072L20.4223 8.99716C20.0815 9.33799 20.0283 9.87639 20.2955 10.2774L23.0032 14.339C23.1922 14.6226 23.206 14.9881 23.0386 15.2851C22.4749 16.2859 22.0319 17.355 21.7219 18.463C21.6301 18.791 21.362 19.0396 21.0279 19.1063L16.2419 20.0636C15.7693 20.1581 15.4262 20.5765 15.4262 21.0584V23.6697C15.4262 24.1517 15.7692 24.57 16.2419 24.6646L21.0279 25.6218C21.362 25.6887 21.6301 25.9374 21.7219 26.2654C21.9467 27.0691 22.2435 27.8575 22.6039 28.6086C22.8201 29.0592 22.6301 29.5997 22.1796 29.8158C21.729 30.0322 21.1884 29.842 20.9724 29.3915C20.6471 28.7135 20.3678 28.0087 20.1394 27.2897L15.8869 26.4393C14.5718 26.176 13.6171 25.0112 13.6171 23.6696V21.0583C13.6171 19.7167 14.5718 18.5521 15.8875 18.2888L20.1398 17.4383C20.4187 16.5603 20.7722 15.7067 21.1958 14.8897L18.7901 11.2811C18.046 10.1648 18.1943 8.66606 19.143 7.71732L20.9895 5.87088C21.9383 4.92214 23.4371 4.77394 24.5533 5.51796L28.1619 7.92361C28.9789 7.50017 29.8325 7.14657 30.7105 6.86764L31.5609 2.61532C31.8239 1.3 32.9886 0.345215 34.3303 0.345215H36.9415C38.2832 0.345215 39.4478 1.3 39.7111 2.61566L40.5616 6.86797C41.4395 7.14691 42.2931 7.50039 43.1101 7.92395L46.7185 5.51829C47.8347 4.77416 49.3336 4.92236 50.2823 5.87121L52.1288 7.71765C53.0774 8.66639 53.2258 10.1651 52.4817 11.2815L50.076 14.8901C50.4995 15.7071 50.8531 16.5606 51.132 17.4387L55.3844 18.2891C56.7 18.5522 57.6548 19.7169 57.6548 21.0586V23.6698C57.6548 25.0115 56.7 26.1761 55.3843 26.4394L51.132 27.2898C50.8532 28.1677 50.4996 29.0213 50.076 29.8384L52.4817 33.447C53.2258 34.5633 53.0775 36.0621 52.1288 37.0109L50.2823 38.8573C49.3336 39.806 47.8348 39.9542 46.7185 39.2102L43.1099 36.8046C42.2929 37.228 41.4394 37.5816 40.5613 37.8605L39.7109 42.1131C39.4478 43.4283 38.2831 44.3832 36.9414 44.3832H34.3302C32.9885 44.3832 31.8239 43.4284 31.5606 42.1127L30.7101 37.8604C30.0129 37.6389 29.3286 37.3695 28.6698 37.0568C28.2184 36.8423 28.0261 36.3025 28.2406 35.851Z" fill="url(#paint0_linear)"/>
<path d="M27.798 27.3921C27.6659 27.4599 27.5249 27.4921 27.3858 27.4921C27.0572 27.4921 26.7401 27.3124 26.5799 26.9999C25.8501 25.5767 25.4643 23.9737 25.4643 22.3642C25.4643 16.7556 30.0272 12.1926 35.6359 12.1926C38.3042 12.1926 40.8256 13.2181 42.7358 15.0805C43.0937 15.4293 43.101 16.0023 42.7522 16.36C42.4034 16.7178 41.8305 16.7253 41.4727 16.3764C39.9024 14.8456 37.8296 14.0024 35.6362 14.0024C31.0254 14.0024 27.2742 17.7535 27.2742 22.3643C27.2742 23.7068 27.5825 24.9887 28.1904 26.1743C28.4183 26.6187 28.2427 27.164 27.798 27.3921Z" fill="url(#paint1_linear)"/>
<path d="M44.1061 18.4923C44.5788 18.3297 45.0935 18.581 45.2561 19.0535C45.6218 20.1167 45.8073 21.2306 45.8073 22.3642C45.8073 27.9729 41.2442 32.5358 35.6356 32.5358C33.4786 32.5358 31.4177 31.8692 29.6755 30.6076C29.2708 30.3144 29.1802 29.7486 29.4733 29.3438C29.7663 28.9391 30.3322 28.8485 30.737 29.1416C32.1684 30.178 33.8623 30.7259 35.6357 30.7259C40.2466 30.7259 43.9977 26.9747 43.9977 22.3639C43.9977 21.4311 43.8454 20.5152 43.545 19.642C43.3825 19.1695 43.6336 18.6547 44.1061 18.4923Z" fill="url(#paint2_linear)"/>
<path d="M2.08676 39.8928L4.7034 39.3696C4.86279 38.8953 5.05476 38.4322 5.27728 37.9846L3.79686 35.7641C3.22612 34.9078 3.33984 33.7583 4.06751 33.0307L5.28086 31.8174C6.00853 31.0898 7.15808 30.976 8.01425 31.5467L10.2348 33.0271C10.6824 32.8046 11.1455 32.6126 11.6197 32.4534L12.143 29.8367C12.3448 28.8276 13.2381 28.0953 14.2671 28.0953H15.9832C17.0121 28.0953 17.9055 28.8276 18.1073 29.8367L18.6306 32.4534C19.1049 32.6128 19.5679 32.8047 20.0155 33.0271L22.2361 31.5467C23.0923 30.9761 24.2419 31.0897 24.9694 31.8174L26.1828 33.0307C26.9105 33.7584 27.0242 34.9079 26.4534 35.7641L24.973 37.9846C25.2791 38.6 25.527 39.2445 25.7123 39.9073C25.847 40.3886 25.5659 40.8878 25.0847 41.0226C24.6034 41.1572 24.1042 40.8763 23.9694 40.395C23.7724 39.6907 23.4908 39.0113 23.1326 38.3754C22.9654 38.0784 22.9792 37.7127 23.1681 37.4293L24.9475 34.7603C25.0414 34.6194 25.0227 34.4302 24.903 34.3104L23.6896 33.0971C23.5698 32.9774 23.3807 32.9589 23.2398 33.0525L20.5707 34.8319C20.2873 35.021 19.9216 35.0346 19.6247 34.8674C18.9887 34.5092 18.3094 34.2276 17.6051 34.0306C17.277 33.9388 17.0284 33.6707 16.9617 33.3366L16.3327 30.1917C16.2996 30.0257 16.1525 29.9051 15.9832 29.9051H14.2671C14.0979 29.9051 13.9508 30.0257 13.9176 30.1917L13.2886 33.3368C13.2218 33.671 12.9731 33.939 12.6452 34.0308C11.941 34.2278 11.2615 34.5095 10.6256 34.8676C10.3288 35.0349 9.963 35.0211 9.67958 34.8322L7.01055 33.0528C6.86963 32.9589 6.68047 32.9774 6.5607 33.0973L5.34735 34.3107C5.22769 34.4304 5.209 34.6196 5.3028 34.7605L7.08219 37.4295C7.27125 37.7131 7.28501 38.0786 7.11767 38.3756C6.75949 39.0116 6.47787 39.6909 6.28087 40.3952C6.18908 40.7233 5.921 40.9719 5.58689 41.0386L2.44192 41.6675C2.27592 41.7007 2.15537 41.8477 2.15537 42.0171V43.7331C2.15537 43.9024 2.27592 44.0495 2.44192 44.0827L5.58711 44.7116C5.92123 44.7785 6.18931 45.0272 6.28109 45.355C6.47809 46.0593 6.75971 46.7387 7.1179 47.3746C7.28513 47.6716 7.27136 48.0373 7.08241 48.3207L5.30302 50.9897C5.20911 51.1306 5.22781 51.3198 5.34757 51.4396L6.56092 52.6529C6.68058 52.7727 6.86975 52.7913 7.01078 52.6975L9.67981 50.9181C9.96322 50.7291 10.329 50.7154 10.6259 50.8826C11.2619 51.2408 11.9412 51.5224 12.6455 51.7194C12.9735 51.8112 13.2221 52.0793 13.2888 52.4134L13.9178 55.5584C13.9509 55.7243 14.098 55.8449 14.2674 55.8449H15.9834C16.1526 55.8449 16.2997 55.7243 16.333 55.5584L16.9619 52.4132C17.0287 52.079 17.2774 51.811 17.6053 51.7192C18.3096 51.5222 18.989 51.2406 19.6249 50.8824C19.9219 50.7151 20.2876 50.7289 20.571 50.9179L23.24 52.6972C23.3809 52.7912 23.5701 52.7726 23.6898 52.6527L24.9032 51.4393C25.0228 51.3196 25.0415 51.1304 24.9477 50.9895L23.1683 48.3205C22.9793 48.0369 22.9655 47.6714 23.1329 47.3744C23.491 46.7384 23.7727 46.0591 23.9697 45.3548C24.0615 45.0267 24.3295 44.7781 24.6636 44.7114L27.8086 44.0825C27.9746 44.0493 28.0952 43.9023 28.0952 43.7329V42.0169C28.0952 41.8476 27.9746 41.7006 27.8086 41.6673L27.6161 41.6288C27.126 41.5308 26.8082 41.054 26.9063 40.564C27.0044 40.074 27.4805 39.7566 27.9713 39.8542L28.1638 39.8927C29.1726 40.0947 29.905 40.988 29.905 42.017V43.733C29.905 44.7619 29.1726 45.6554 28.1636 45.8572L25.5469 46.3805C25.3875 46.8547 25.1955 47.3178 24.9731 47.7654L26.4536 49.9859C27.0244 50.8422 26.9106 51.9917 26.1829 52.7193L24.9696 53.9326C24.2419 54.6603 23.0923 54.774 22.2362 54.2033L20.0157 52.7229C19.568 52.9454 19.105 53.1374 18.6307 53.2966L18.1074 55.9133C17.9054 56.9224 17.0121 57.6547 15.9831 57.6547H14.267C13.2381 57.6547 12.3447 56.9224 12.1429 55.9133L11.6196 53.2966C11.1453 53.1373 10.6823 52.9453 10.2347 52.7228L8.01414 54.2032C7.15786 54.7739 6.00831 54.6602 5.28075 53.9325L4.0674 52.7192C3.33973 51.9915 3.226 50.842 3.79675 49.9858L5.27717 47.7653C5.05465 47.3177 4.86268 46.8546 4.7034 46.3803L2.08676 45.8571C1.0778 45.6552 0.345427 44.7619 0.345427 43.7329V42.0169C0.345314 40.988 1.07769 40.0947 2.08676 39.8928Z" fill="url(#paint3_linear)"/>
<path d="M15.1251 39.6173C13.3288 39.6173 11.8675 41.0786 11.8675 42.8748C11.8675 43.3746 11.4623 43.7797 10.9627 43.7797C10.463 43.7797 10.0578 43.3745 10.0578 42.8748C10.0578 40.0807 12.331 37.8074 15.1252 37.8074C17.9194 37.8074 20.1926 40.0807 20.1926 42.8748C20.1926 45.669 17.9194 47.9423 15.1252 47.9423C13.9935 47.9423 12.9229 47.5772 12.0293 46.8868C11.6338 46.5813 11.5609 46.013 11.8664 45.6174C12.172 45.222 12.7404 45.149 13.1358 45.4546C13.7098 45.8979 14.3978 46.1324 15.1252 46.1324C16.9215 46.1324 18.3828 44.6711 18.3828 42.8748C18.3827 41.0784 16.9214 39.6173 15.1251 39.6173Z" fill="url(#paint4_linear)"/>
<path d="M30.1228 22.3643C30.1228 19.3244 32.5961 16.8513 35.6358 16.8513C38.6757 16.8513 41.1489 19.3245 41.1489 22.3643C41.1489 25.4041 38.6757 27.8773 35.6358 27.8773C32.596 27.8773 30.1228 25.404 30.1228 22.3643ZM39.3391 22.3643C39.3391 20.3224 37.6777 18.661 35.6358 18.661C33.594 18.661 31.9325 20.3224 31.9325 22.3643C31.9325 24.4061 33.5938 26.0676 35.6358 26.0676C37.6779 26.0676 39.3391 24.4061 39.3391 22.3643Z" fill="url(#paint5_linear)"/>
<defs>
<linearGradient id="paint0_linear" x1="50.6087" y1="6.07015" x2="15.8366" y2="11.4651" gradientUnits="userSpaceOnUse">
<stop stop-color="#2173EF"/>
<stop offset="1" stop-color="#C03CD6"/>
</linearGradient>
<linearGradient id="paint1_linear" x1="40.2019" y1="14.1815" x2="26.4504" y2="16.6282" gradientUnits="userSpaceOnUse">
<stop stop-color="#2173EF"/>
<stop offset="1" stop-color="#C03CD6"/>
</linearGradient>
<linearGradient id="paint2_linear" x1="43.1663" y1="20.2749" x2="30.2461" y2="22.6227" gradientUnits="userSpaceOnUse">
<stop stop-color="#2173EF"/>
<stop offset="1" stop-color="#C03CD6"/>
</linearGradient>
<linearGradient id="paint3_linear" x1="25.1755" y1="31.938" x2="1.83524" y2="35.5593" gradientUnits="userSpaceOnUse">
<stop stop-color="#2173EF"/>
<stop offset="1" stop-color="#C03CD6"/>
</linearGradient>
<linearGradient id="paint4_linear" x1="18.571" y1="39.125" x2="10.5686" y2="40.3666" gradientUnits="userSpaceOnUse">
<stop stop-color="#2173EF"/>
<stop offset="1" stop-color="#C03CD6"/>
</linearGradient>
<linearGradient id="paint5_linear" x1="39.3847" y1="18.2846" x2="30.6785" y2="19.6354" gradientUnits="userSpaceOnUse">
<stop stop-color="#2173EF"/>
<stop offset="1" stop-color="#C03CD6"/>
</linearGradient>
</defs>
</svg>
