<svg width="74" height="58" viewBox="0 0 74 58" fill="none" xmlns="http://www.w3.org/2000/svg">
<g clip-path="url(#clip0)">
<path d="M73.9899 12.4656V12.3623C73.9618 12.2904 73.9275 12.2212 73.8872 12.1555L73.8102 12.0521L73.6561 11.8842L73.5662 11.8066L73.3993 11.7291H73.3351L45.4493 0.255072C45.1405 0.129413 44.7951 0.129413 44.4864 0.255072L16.6647 11.5353H16.6005L16.4336 11.6128L16.3438 11.6903L16.1897 11.8583L16.1127 11.9617C16.0724 12.0274 16.038 12.0966 16.01 12.1684V12.2718C15.9965 12.3791 15.9965 12.4876 16.01 12.5948V22.9318H1.28388C0.574856 22.9318 0 23.5104 0 24.2239C0 24.9375 0.574856 25.5161 1.28388 25.5161V25.684H15.8559V30.1031H10.8616C10.1526 30.1031 9.57773 30.6816 9.57773 31.3952C9.57773 32.1088 10.1526 32.6873 10.8616 32.6873H15.8559V37.1064H4.01854C3.30952 37.1064 2.73466 37.6849 2.73466 38.3985C2.73466 39.1121 3.30952 39.6906 4.01854 39.6906H15.8559V45.0917C15.8585 45.6134 16.1725 46.0823 16.6519 46.2804L44.4864 57.9095C44.6255 57.9651 44.7733 57.9956 44.9229 58C45.0725 57.9956 45.2203 57.9651 45.3594 57.9095L73.1939 46.2804C73.6732 46.0823 73.9873 45.6134 73.9899 45.0917V12.7887C74.0034 12.6814 74.0034 12.5729 73.9899 12.4656ZM44.9614 2.87808L55.5149 7.12916L31.5064 17.3498L20.5292 12.7499L44.9614 2.87808ZM43.639 54.7955L18.4236 44.226V39.6777H23.7517C24.4608 39.6777 25.0356 39.0992 25.0356 38.3856C25.0356 37.672 24.4608 37.0935 23.7517 37.0935H18.4236V32.6744H30.6205C31.3295 32.6744 31.9044 32.0959 31.9044 31.3823C31.9044 30.6687 31.3295 30.0902 30.6205 30.0902H18.4236V25.684H20.9914C21.7004 25.684 22.2753 25.1055 22.2753 24.3919C22.2753 23.6783 21.7004 23.0998 20.9914 23.0998H18.4236V14.6752L28.2325 18.7583L43.639 25.2189V54.7955ZM44.9742 23.0352L34.8316 18.7583L58.8658 8.49881L69.3808 12.7628L54.0641 19.2234L44.9742 23.0352ZM46.2453 54.7955V25.2189L53.4735 22.1953L71.4478 14.6493L71.512 44.226L46.2453 54.7955Z" fill="url(#paint0_linear)" stroke="white"/>
</g>
<defs>
<linearGradient id="paint0_linear" x1="11.84" y1="7.67992" x2="69.4085" y2="19.1075" gradientUnits="userSpaceOnUse">
<stop stop-color="#2173EF"/>
<stop offset="1" stop-color="#C03CD6"/>
</linearGradient>
<clipPath id="clip0">
<rect width="74" height="58" fill="white"/>
</clipPath>
</defs>
</svg>
