<svg width="26" height="26" viewBox="0 0 26 26" fill="none" xmlns="http://www.w3.org/2000/svg">
<path d="M19.4091 26H5.59091C4.16228 26 3 24.9749 3 23.7148V2.28516C3 1.02512 4.16228 0 5.59091 0H19.4091C20.8377 0 22 1.02512 22 2.28516V23.7148C22 24.9749 20.8377 26 19.4091 26ZM5.59091 1.52344C5.1147 1.52344 4.72727 1.86514 4.72727 2.28516V23.7148C4.72727 24.1349 5.1147 24.4766 5.59091 24.4766H19.4091C19.8853 24.4766 20.2727 24.1349 20.2727 23.7148V2.28516C20.2727 1.86514 19.8853 1.52344 19.4091 1.52344H5.59091Z" fill="#C3D9F9"/>
<path d="M14.1875 4.57031H11.1406C10.72 4.57031 10.3789 4.22927 10.3789 3.80859C10.3789 3.38792 10.72 3.04688 11.1406 3.04688H14.1875C14.6082 3.04688 14.9492 3.38792 14.9492 3.80859C14.9492 4.22927 14.6082 4.57031 14.1875 4.57031Z" fill="#C3D9F9"/>
<path d="M12.6641 22.9531C13.0847 22.9531 13.4258 22.6121 13.4258 22.1914C13.4258 21.7707 13.0847 21.4297 12.6641 21.4297C12.2434 21.4297 11.9023 21.7707 11.9023 22.1914C11.9023 22.6121 12.2434 22.9531 12.6641 22.9531Z" fill="#C3D9F9"/>
</svg>
