<svg width="60" height="60" viewBox="0 0 60 60" fill="none" xmlns="http://www.w3.org/2000/svg">
<path d="M46.0007 38.6209C45.4773 38.6209 44.9535 38.4217 44.5555 38.0207C43.7565 37.2217 43.7565 35.9263 44.5555 35.1273L51.8234 27.8593C54.4607 25.2466 55.9119 21.7554 55.9119 18.0191C55.9119 10.3391 49.6636 4.09091 41.9837 4.09091C38.2473 4.09091 34.7562 5.53911 32.1489 8.17083L24.8755 15.4448C24.0765 16.2438 22.7811 16.2438 21.9816 15.4448C21.1826 14.6453 21.1826 13.3499 21.9816 12.5509L29.25 5.28293C32.6208 1.87617 37.1482 0 41.9807 0C51.9163 0 59.9998 8.08344 59.9998 18.0191C59.9998 22.8546 58.1206 27.3819 54.7089 30.7607L47.4464 38.0207C47.0454 38.4217 46.5245 38.6209 46.0007 38.6209Z" fill="white" fill-opacity="0.1"/>
<path d="M18.0191 59.9998C8.08344 59.9998 0 51.9164 0 41.9807C0 37.1453 1.87916 32.6184 5.29092 29.2391L12.5539 21.9791C13.3529 21.1801 14.6483 21.1801 15.4473 21.9791C16.2463 22.7781 16.2463 24.0735 15.4473 24.8725L8.17932 32.141C5.53911 34.7507 4.09091 38.2419 4.09091 41.9807C4.09091 49.6607 10.3391 55.9089 18.0191 55.9089C21.7554 55.9089 25.2466 54.4607 27.8538 51.829L35.1273 44.5555C35.9263 43.7565 37.2217 43.7565 38.0207 44.5555C38.8202 45.3545 38.8202 46.6499 38.0207 47.4489L30.7527 54.7174C27.3789 58.1237 22.8521 59.9998 18.0191 59.9998Z" fill="white" fill-opacity="0.1"/>
<path d="M19.0908 42.9546C18.5674 42.9546 18.0436 42.7553 17.6456 42.3548C16.8466 41.5553 16.8466 40.2599 17.6456 39.4609L39.4634 17.6426C40.2629 16.8436 41.5583 16.8436 42.3573 17.6426C43.1563 18.4421 43.1563 19.7375 42.3573 20.5365L20.539 42.3548C20.138 42.7553 19.6146 42.9546 19.0908 42.9546Z" fill="white" fill-opacity="0.1"/>
</svg>
