<svg width="16" height="16" viewBox="0 0 16 16" fill="none" xmlns="http://www.w3.org/2000/svg">
<path fill-rule="evenodd" clip-rule="evenodd" d="M12.6496 0.00825536L12.6492 0.00820976C12.3081 -0.0333766 11.9985 0.0836494 11.7405 0.345135C10.2993 1.7927 8.84854 3.24348 7.40081 4.69121L7.40001 4.69202L5.87826 6.21376L5.54195 6.54981C5.09264 6.99861 4.64192 7.44882 4.19539 7.90305L4.195 7.90344C4.04447 8.05764 3.92995 8.26304 3.88482 8.46987C3.6829 9.39614 3.48741 10.3223 3.29204 11.2479L3.29202 11.248L3.292 11.2481L3.29192 11.2485L3.18304 11.7608L3.18282 11.7619C3.12207 12.0581 3.20053 12.3632 3.41144 12.5741C3.57355 12.7363 3.79669 12.8252 4.02869 12.8252C4.09523 12.8252 4.15934 12.8174 4.21938 12.8068L4.2219 12.8063L4.78832 12.6873C5.06254 12.6295 5.33695 12.5714 5.61139 12.5134L5.61277 12.5131L5.61326 12.513L5.61382 12.5128C6.23687 12.381 6.86015 12.2491 7.48208 12.1203L7.48329 12.1201C7.71963 12.0692 7.92341 11.9621 8.09637 11.7892C10.6144 9.26794 13.1325 6.74983 15.6506 4.235C15.8632 4.02233 15.981 3.76678 16.0099 3.45946L16.0101 3.45593C16.0144 3.39659 16.0103 3.33599 15.9969 3.27806L15.9962 3.27529C15.9889 3.24583 15.9821 3.21523 15.9748 3.182L15.9746 3.18088L15.9746 3.18087C15.9677 3.14954 15.9603 3.11579 15.952 3.0824L15.9477 3.0622C15.914 2.90583 15.8728 2.71421 15.7928 2.52748L15.7923 2.5264C15.3054 1.41334 14.4935 0.614133 13.3845 0.16585C13.1528 0.0725039 12.9104 0.0412605 12.7167 0.0162916L12.7051 0.0147842L12.6496 0.00825536ZM8.17319 5.4652C9.62272 4.01568 11.0724 2.566 12.5189 1.11312C12.529 1.10482 12.5369 1.0988 12.5429 1.09467L12.577 1.09869L12.5773 1.09873C12.7493 1.11857 12.8793 1.13625 12.9764 1.17717L12.9785 1.17801C13.8109 1.51461 14.4216 2.11225 14.7933 2.95988C14.8303 3.0445 14.8562 3.15868 14.8856 3.29915C14.8908 3.32655 14.8967 3.35354 14.9021 3.37802L14.9023 3.37899L14.9099 3.41447C14.905 3.42437 14.8977 3.43296 14.8848 3.44496L14.8827 3.44687L14.8807 3.44885C12.9903 5.33446 11.1017 7.22371 9.21356 9.11241L9.21174 9.11422L7.32312 11.0032C7.30526 11.0211 7.29472 11.0274 7.26317 11.0345C6.81335 11.1289 6.36434 11.2234 5.91536 11.3178L5.90889 11.3192L5.90571 11.3198C5.45961 11.4137 5.01353 11.5075 4.56667 11.6013L4.32888 11.6511L4.36819 11.4672L4.45543 11.0552C4.62152 10.2706 4.78789 9.48471 4.95658 8.70111C4.95759 8.69874 4.95943 8.69495 4.96222 8.69011C4.96755 8.68082 4.97397 8.67178 4.97973 8.66503C5.53591 8.10247 6.09197 7.54323 6.65113 6.98726L6.65145 6.98695L8.17319 5.4652ZM1.39208 2.70458C0.616276 2.70458 -0.0112305 3.33581 -0.0112305 4.10789V14.5967C-0.0112305 15.3725 0.620005 16 1.39208 16H11.8777C12.6535 16 13.281 15.3688 13.281 14.5967V9.23056C13.281 8.92595 13.0345 8.67942 12.7299 8.67942C12.4253 8.67942 12.1787 8.92595 12.1787 9.23056V14.5967C12.1787 14.763 12.0408 14.9009 11.8745 14.9009H1.39208C1.22575 14.9009 1.08784 14.763 1.08784 14.5967V4.1111C1.08784 3.94476 1.22575 3.80686 1.39208 3.80686H6.98569C7.2903 3.80686 7.53683 3.56032 7.53683 3.25572C7.53683 2.95111 7.2903 2.70458 6.98569 2.70458H1.39208Z" fill="#C3D9F9"/>
</svg>
