<svg width="6" height="7" viewBox="0 0 6 7" fill="none" xmlns="http://www.w3.org/2000/svg">
<path fill-rule="evenodd" clip-rule="evenodd" d="M0.109835 1.10983C0.256282 0.963388 0.493718 0.963388 0.640165 1.10983L3 3.46967L5.35984 1.10983C5.50628 0.963388 5.74372 0.963388 5.89016 1.10983C6.03661 1.25628 6.03661 1.49372 5.89016 1.64017L3.53033 4L5.89016 6.35984C6.03661 6.50628 6.03661 6.74372 5.89016 6.89016C5.74372 7.03661 5.50628 7.03661 5.35984 6.89016L3 4.53033L0.640165 6.89016C0.493718 7.03661 0.256282 7.03661 0.109835 6.89016C-0.0366117 6.74372 -0.0366117 6.50628 0.109835 6.35984L2.46967 4L0.109835 1.64017C-0.0366117 1.49372 -0.0366117 1.25628 0.109835 1.10983Z" fill="#B4B4B4"/>
</svg>
