<svg width="30" height="30" viewBox="0 0 30 30" fill="none" xmlns="http://www.w3.org/2000/svg">
<path d="M7.5 0C6.46875 0 5.625 0.84375 5.625 1.875V28.125C5.625 29.1562 6.46875 30 7.5 30H26.25C27.2812 30 28.125 29.1562 28.125 28.125V7.5L20.625 0H7.5Z" fill="#E2E5E7"/>
<path d="M22.5 7.5H28.125L20.625 0V5.625C20.625 6.65625 21.4688 7.5 22.5 7.5Z" fill="#B0B7BD"/>
<path d="M28.125 13.125L22.5 7.5H28.125V13.125Z" fill="#CAD1D8"/>
<path d="M24.375 24.375C24.375 24.8906 23.9531 25.3125 23.4375 25.3125H2.8125C2.29688 25.3125 1.875 24.8906 1.875 24.375V15C1.875 14.4844 2.29688 14.0625 2.8125 14.0625H23.4375C23.9531 14.0625 24.375 14.4844 24.375 15V24.375Z" fill="#50BEE8"/>
<path d="M5.42375 22.4997C5.17625 22.4997 4.90625 22.3637 4.90625 22.0347V17.7775C4.90625 17.5075 5.17625 17.3125 5.42375 17.3125H7.14031C10.5659 17.3125 10.49 22.4997 7.20688 22.4997H5.42375ZM5.89625 18.2266V21.5847H7.14031C9.16438 21.5847 9.25344 18.2266 7.14031 18.2266H5.89625Z" fill="white"/>
<path d="M13.3578 22.5747C11.9713 22.6347 10.5312 21.7122 10.5312 19.8756C10.5312 18.0316 11.9703 17.125 13.3578 17.125C14.6694 17.1916 16.041 18.0991 16.041 19.8756C16.041 21.6531 14.6694 22.5747 13.3578 22.5747ZM13.2753 18.1C12.4353 18.1 11.5213 18.6925 11.5213 19.8766C11.5213 21.0541 12.4363 21.6541 13.2753 21.6541C14.1378 21.6541 15.0594 21.0541 15.0594 19.8766C15.0594 18.6916 14.1378 18.1 13.2753 18.1Z" fill="white"/>
<path d="M16.9258 19.8684C16.9258 18.4218 17.8333 17.1777 19.5574 17.1777C20.2099 17.1777 20.7274 17.3727 21.2739 17.8452C21.4764 18.0318 21.4989 18.3618 21.2964 18.5718C21.0939 18.7509 20.7864 18.7293 20.6064 18.5493C20.2999 18.2268 19.9849 18.1377 19.5574 18.1377C18.4033 18.1377 17.8492 18.9552 17.8492 19.8693C17.8492 20.7993 18.3958 21.6534 19.5574 21.6534C19.9849 21.6534 20.3824 21.4799 20.7274 21.1734C20.9589 20.9934 21.2814 21.0824 21.4164 21.2634C21.5364 21.4284 21.5955 21.7059 21.3339 21.9674C20.8089 22.4559 20.1799 22.5534 19.5564 22.5534C17.7433 22.5534 16.9258 21.3149 16.9258 19.8684Z" fill="white"/>
<path d="M23.4375 25.3125H5.625V26.25H23.4375C23.9531 26.25 24.375 25.8281 24.375 25.3125V24.375C24.375 24.8906 23.9531 25.3125 23.4375 25.3125Z" fill="#CAD1D8"/>
</svg>
