<svg width="58" height="58" fill="none" xmlns="http://www.w3.org/2000/svg"><path d="M50.206 35.367a.965.965 0 0 0-1.323.345L37.8 54.617c-.8 1.386-2.577 1.863-3.92 1.088l-2.16-1.4a.967.967 0 1 0-1.052 1.623l2.202 1.425a4.832 4.832 0 0 0 6.6-1.764l11.081-18.9a.966.966 0 0 0-.344-1.322Z" fill="url(#a)"/><path d="M53.133 0H37.66c-2.991 0-5.22.952-7.452 3.184a.966.966 0 1 0 1.367 1.367c1.884-1.883 3.59-2.617 6.085-2.617h15.472c1.599 0 2.9 1.301 2.9 2.9v15.472c0 2.496-.733 4.201-2.618 6.085L24.698 55.15c-1.096 1.094-3.007 1.095-4.101 0L2.819 37.37a2.882 2.882 0 0 1-.85-2.052c0-.775.302-1.503.849-2.05L28.773 7.351c.4.101.8.203 1.215.314 3.933 1.054 7.037 2.143 9.351 3.115a5.809 5.809 0 0 0-.71 2.757c0 3.2 2.601 5.802 5.801 5.802s5.802-2.602 5.802-5.802c0-3.2-2.602-5.801-5.802-5.801a.967.967 0 1 0 0 1.933 3.872 3.872 0 0 1 3.868 3.868 3.872 3.872 0 0 1-3.868 3.868 3.872 3.872 0 0 1-3.868-3.868c0-.696.19-1.376.542-1.968 1.675.802 2.722 1.478 3.136 1.91-.177.05-.451.106-.864.141a.967.967 0 0 0 .17 1.928c.595-.054 2.404-.213 2.752-1.51.953-3.557-13.003-7.49-15.81-8.241-4.295-1.151-8.419-1.938-11.614-2.217-3.927-.343-5.84.104-6.2 1.448-.172.645-.631 2.357 7.209 5.449a.966.966 0 1 0 .709-1.799c-3.788-1.494-5.357-2.588-5.86-3.104 1.192-.35 5.27-.248 11.837 1.245L1.452 31.9a4.801 4.801 0 0 0-1.417 3.418 4.8 4.8 0 0 0 1.417 3.42l17.777 17.777a4.8 4.8 0 0 0 3.417 1.415 4.803 4.803 0 0 0 3.42-1.416l28.717-28.757c2.233-2.231 3.184-4.46 3.184-7.452V4.835A4.84 4.84 0 0 0 53.133 0Z" fill="url(#b)"/><path d="m30.999 36.103-1.026 1.014-9.783-9.897 1.026-1.014 6.653 6.731c.786.135 1.399-.015 1.838-.45.599-.591.87-1.294.813-2.11-.046-.804-.495-1.636-1.346-2.497a7.407 7.407 0 0 0-1.757-1.301 7.744 7.744 0 0 0-2.118-.824l1.071-1.848c.814.188 1.595.49 2.343.905.76.402 1.424.89 1.991 1.464.861.871 1.442 1.776 1.742 2.715.31.95.341 1.86.093 2.733-.226.871-.693 1.657-1.401 2.357-.391.387-.807.687-1.248.9l1.109 1.122Zm-12.311-7.398 9.782 9.897-1.026 1.014-6.623-6.7c-.85-.152-1.526.02-2.027.514-.598.592-.868 1.284-.81 2.077.082.79.558 1.626 1.429 2.507a7.874 7.874 0 0 0 2.34 1.636c.905.402 1.766.625 2.582.67l-.989 1.857c-.98-.063-1.96-.321-2.937-.773a8.87 8.87 0 0 1-2.526-1.786c-.881-.892-1.483-1.806-1.806-2.743-.3-.939-.337-1.844-.111-2.715.225-.87.699-1.663 1.42-2.375.439-.435.906-.744 1.4-.929l-1.124-1.137 1.026-1.014Z" fill="url(#c)"/><defs><linearGradient id="a" x1="33.5" y1="38.193" x2="49.726" y2="40.455" gradientUnits="userSpaceOnUse"><stop stop-color="#2173EF"/><stop offset="1" stop-color="#C03CD6"/></linearGradient><linearGradient id="b" x1="9.304" y1="7.531" x2="55.048" y2="14.628" gradientUnits="userSpaceOnUse"><stop stop-color="#2173EF"/><stop offset="1" stop-color="#C03CD6"/></linearGradient><linearGradient id="c" x1="25.835" y1="24.771" x2="32.717" y2="33.577" gradientUnits="userSpaceOnUse"><stop stop-color="#2173EF"/><stop offset="1" stop-color="#C03CD6"/></linearGradient></defs></svg>