<svg width="58" height="58" fill="none" xmlns="http://www.w3.org/2000/svg"><path d="M28.242 35.852a.905.905 0 0 1 1.206-.43c.734.349 1.504.637 2.288.856.328.092.577.36.644.694l.957 4.786c.094.473.513.816.995.816h2.611c.482 0 .9-.343.995-.816l.957-4.786a.905.905 0 0 1 .643-.694 14.38 14.38 0 0 0 3.178-1.317.905.905 0 0 1 .947.036l4.061 2.707c.401.268.94.214 1.28-.126l1.847-1.847c.34-.34.394-.88.127-1.28l-2.708-4.062a.905.905 0 0 1-.036-.946c.564-1 1.007-2.07 1.317-3.178a.904.904 0 0 1 .694-.643l4.786-.957c.473-.095.816-.513.816-.995v-2.612c0-.482-.343-.9-.816-.994l-4.786-.958a.905.905 0 0 1-.694-.643 14.375 14.375 0 0 0-1.317-3.178.905.905 0 0 1 .036-.946l2.707-4.061c.268-.401.214-.94-.127-1.28L49.004 7.15c-.34-.34-.88-.394-1.28-.127l-4.062 2.708a.905.905 0 0 1-.946.036c-1-.564-2.07-1.007-3.178-1.317a.904.904 0 0 1-.643-.694l-.957-4.786a1.017 1.017 0 0 0-.995-.816h-2.611c-.482 0-.9.343-.995.816l-.958 4.786a.905.905 0 0 1-.643.694c-1.108.31-2.177.753-3.178 1.317a.905.905 0 0 1-.946-.036l-4.061-2.708c-.401-.267-.94-.214-1.28.127l-1.847 1.847c-.341.34-.394.879-.127 1.28l2.708 4.061c.189.284.203.65.035.947a14.38 14.38 0 0 0-1.317 3.177.904.904 0 0 1-.694.644l-4.786.957a1.017 1.017 0 0 0-.815.995v2.611c0 .482.343.9.815.995l4.786.957a.905.905 0 0 1 .694.644c.225.804.522 1.592.882 2.343a.905.905 0 1 1-1.631.783 16.232 16.232 0 0 1-.833-2.102l-4.253-.85a2.832 2.832 0 0 1-2.27-2.77V21.06c0-1.342.955-2.507 2.271-2.77l4.252-.85c.28-.878.633-1.732 1.056-2.549l-2.405-3.608a2.832 2.832 0 0 1 .352-3.564l1.847-1.847a2.832 2.832 0 0 1 3.564-.353l3.608 2.406c.817-.423 1.671-.777 2.549-1.056l.85-4.252a2.832 2.832 0 0 1 2.77-2.27h2.611c1.342 0 2.506.954 2.77 2.27l.85 4.252c.878.28 1.732.633 2.549 1.056L46.72 5.52a2.832 2.832 0 0 1 3.564.353l1.846 1.846a2.832 2.832 0 0 1 .353 3.564l-2.405 3.609c.423.817.777 1.67 1.055 2.548l4.253.85a2.832 2.832 0 0 1 2.27 2.77v2.611a2.832 2.832 0 0 1-2.27 2.77l-4.253.85a16.183 16.183 0 0 1-1.056 2.549l2.406 3.608a2.832 2.832 0 0 1-.353 3.564l-1.846 1.847a2.832 2.832 0 0 1-3.564.353l-3.609-2.406a16.2 16.2 0 0 1-2.548 1.056l-.85 4.253a2.832 2.832 0 0 1-2.77 2.27h-2.611a2.832 2.832 0 0 1-2.77-2.27l-.85-4.253a16.206 16.206 0 0 1-2.04-.804.905.905 0 0 1-.43-1.206Z" fill="url(#a)"/><path d="M27.8 27.393A.905.905 0 0 1 26.583 27a10.203 10.203 0 0 1-1.115-4.636c0-5.609 4.563-10.172 10.172-10.172 2.668 0 5.19 1.026 7.1 2.888a.905.905 0 0 1-1.264 1.296 8.317 8.317 0 0 0-5.836-2.374c-4.61 0-8.362 3.751-8.362 8.362 0 1.343.308 2.625.916 3.81a.905.905 0 0 1-.392 1.218Z" fill="url(#b)"/><path d="M44.107 18.493a.905.905 0 0 1 1.15.561c.366 1.063.552 2.177.552 3.31 0 5.61-4.563 10.172-10.172 10.172-2.157 0-4.218-.666-5.96-1.928a.905.905 0 0 1 1.061-1.466 8.3 8.3 0 0 0 4.9 1.584c4.61 0 8.361-3.75 8.361-8.361 0-.933-.152-1.85-.453-2.723a.904.904 0 0 1 .561-1.15Z" fill="url(#c)"/><path d="m2.088 39.893 2.617-.523c.159-.474.351-.937.574-1.385l-1.48-2.22a2.172 2.172 0 0 1 .27-2.734l1.213-1.213a2.172 2.172 0 0 1 2.733-.27l2.221 1.48c.448-.223.91-.415 1.385-.574l.523-2.617a2.172 2.172 0 0 1 2.124-1.741h1.716c1.03 0 1.923.732 2.125 1.741l.523 2.617c.474.16.937.351 1.385.574l2.22-1.48a2.172 2.172 0 0 1 2.734.27l1.213 1.213c.728.728.841 1.877.27 2.733l-1.48 2.221c.306.615.554 1.26.74 1.923a.905.905 0 0 1-1.743.487 9.13 9.13 0 0 0-.837-2.02.905.905 0 0 1 .035-.945l1.78-2.67a.357.357 0 0 0-.045-.45l-1.213-1.213a.358.358 0 0 0-.45-.044l-2.669 1.78a.905.905 0 0 1-.946.035 9.137 9.137 0 0 0-2.02-.837.905.905 0 0 1-.643-.694l-.629-3.145a.357.357 0 0 0-.35-.287h-1.716c-.169 0-.316.121-.35.287l-.628 3.145a.905.905 0 0 1-.643.694 9.13 9.13 0 0 0-2.02.837.905.905 0 0 1-.946-.035l-2.67-1.78a.357.357 0 0 0-.449.045L5.349 34.31a.358.358 0 0 0-.045.45l1.78 2.669c.189.284.202.65.035.946a9.133 9.133 0 0 0-.837 2.02.904.904 0 0 1-.694.643l-3.145.629a.357.357 0 0 0-.286.35v1.716c0 .169.12.316.286.35l3.145.628a.905.905 0 0 1 .694.643c.197.705.479 1.384.837 2.02a.905.905 0 0 1-.035.946l-1.78 2.67a.358.358 0 0 0 .045.449l1.213 1.213c.12.12.309.139.45.045l2.67-1.78a.905.905 0 0 1 .945-.035c.636.358 1.315.64 2.02.837.328.092.576.36.643.694l.629 3.145c.033.166.18.286.35.286h1.716c.169 0 .316-.12.35-.286l.628-3.145a.905.905 0 0 1 .644-.694 9.13 9.13 0 0 0 2.02-.837.905.905 0 0 1 .945.035l2.67 1.78c.14.094.33.075.45-.045l1.212-1.213a.358.358 0 0 0 .045-.45l-1.78-2.67a.905.905 0 0 1-.035-.945c.358-.636.64-1.316.837-2.02a.904.904 0 0 1 .694-.643l3.145-.63a.357.357 0 0 0 .286-.349v-1.716c0-.169-.12-.316-.286-.35l-.193-.038a.905.905 0 1 1 .355-1.774l.193.038a2.172 2.172 0 0 1 1.741 2.124v1.716a2.172 2.172 0 0 1-1.741 2.125l-2.617.523c-.16.474-.351.937-.574 1.385l1.48 2.22c.572.857.458 2.006-.27 2.734l-1.213 1.213a2.172 2.172 0 0 1-2.734.27l-2.22-1.48c-.448.223-.91.415-1.385.574l-.523 2.617a2.173 2.173 0 0 1-2.125 1.741h-1.716a2.172 2.172 0 0 1-2.124-1.741l-.523-2.617c-.474-.16-.938-.351-1.385-.574l-2.22 1.48a2.172 2.172 0 0 1-2.734-.27L4.069 52.72a2.172 2.172 0 0 1-.271-2.734l1.48-2.22c-.222-.448-.414-.911-.573-1.385l-2.617-.523a2.172 2.172 0 0 1-1.741-2.125v-1.716c0-1.029.732-1.922 1.741-2.124Z" fill="url(#d)"/><path d="M15.128 39.617a3.261 3.261 0 0 0-3.258 3.258.905.905 0 1 1-1.81 0 5.073 5.073 0 0 1 5.068-5.067 5.073 5.073 0 0 1 5.067 5.067 5.073 5.073 0 0 1-5.067 5.067 5.02 5.02 0 0 1-3.096-1.055.905.905 0 0 1 1.107-1.432 3.226 3.226 0 0 0 1.989.678 3.261 3.261 0 0 0 3.258-3.258 3.261 3.261 0 0 0-3.258-3.258Z" fill="url(#e)"/><path d="M30.122 22.365a5.52 5.52 0 0 1 5.513-5.513 5.52 5.52 0 0 1 5.513 5.513 5.52 5.52 0 0 1-5.513 5.513 5.52 5.52 0 0 1-5.513-5.513Zm9.217 0a3.708 3.708 0 0 0-3.704-3.704 3.708 3.708 0 0 0-3.703 3.704 3.708 3.708 0 0 0 3.703 3.703 3.708 3.708 0 0 0 3.704-3.703Z" fill="url(#f)"/><defs><linearGradient id="a" x1="50.61" y1="6.071" x2="15.838" y2="11.466" gradientUnits="userSpaceOnUse"><stop stop-color="#2173EF"/><stop offset="1" stop-color="#C03CD6"/></linearGradient><linearGradient id="b" x1="40.205" y1="14.182" x2="26.453" y2="16.629" gradientUnits="userSpaceOnUse"><stop stop-color="#2173EF"/><stop offset="1" stop-color="#C03CD6"/></linearGradient><linearGradient id="c" x1="43.168" y1="20.276" x2="30.247" y2="22.623" gradientUnits="userSpaceOnUse"><stop stop-color="#2173EF"/><stop offset="1" stop-color="#C03CD6"/></linearGradient><linearGradient id="d" x1="25.177" y1="31.938" x2="1.836" y2="35.56" gradientUnits="userSpaceOnUse"><stop stop-color="#2173EF"/><stop offset="1" stop-color="#C03CD6"/></linearGradient><linearGradient id="e" x1="18.574" y1="39.125" x2="10.571" y2="40.367" gradientUnits="userSpaceOnUse"><stop stop-color="#2173EF"/><stop offset="1" stop-color="#C03CD6"/></linearGradient><linearGradient id="f" x1="39.384" y1="18.285" x2="30.678" y2="19.636" gradientUnits="userSpaceOnUse"><stop stop-color="#2173EF"/><stop offset="1" stop-color="#C03CD6"/></linearGradient></defs></svg>