<svg xmlns="http://www.w3.org/2000/svg"><symbol viewBox="0 0 74.000755 58" id="src-1"><path d="M73.99 12.466v-.103a1.305 1.305 0 0 0-.103-.207l-.077-.104-.154-.168-.09-.077-.167-.078h-.064L45.45.255a1.277 1.277 0 0 0-.963 0l-27.821 11.28H16.6l-.167.078-.09.078-.154.168-.077.103c-.04.066-.075.135-.103.207v.103a1.293 1.293 0 0 0 0 .323v10.337H1.284c-.71 0-1.284.579-1.284 1.292 0 .714.575 1.292 1.284 1.292v.168h14.572v4.42h-4.994c-.71 0-1.284.578-1.284 1.291 0 .714.575 1.293 1.284 1.293h4.994v4.419H4.019c-.71 0-1.284.578-1.284 1.292 0 .713.575 1.292 1.284 1.292h11.837v5.401c.002.522.316.99.796 1.189L44.486 57.91c.14.055.287.086.437.09.15-.004.297-.035.436-.09l27.835-11.63c.48-.197.793-.666.796-1.188V12.789a1.294 1.294 0 0 0 0-.323ZM44.96 2.878 55.515 7.13 31.506 17.35l-10.977-4.6 24.432-9.872ZM43.64 54.796l-25.215-10.57v-4.548h5.328c.709 0 1.284-.578 1.284-1.292 0-.714-.575-1.292-1.284-1.292h-5.328v-4.42H30.62c.709 0 1.283-.578 1.283-1.291 0-.714-.575-1.293-1.284-1.293H18.425v-4.406h2.567c.71 0 1.284-.578 1.284-1.292 0-.713-.575-1.292-1.284-1.292h-2.567v-8.425l9.809 4.084 15.406 6.46v29.577Zm1.335-31.76-10.142-4.277 24.034-10.26 10.515 4.264-15.317 6.46-9.09 3.813Zm1.271 31.76V25.219l7.229-3.023 17.974-7.546.064 29.576-25.267 10.57Z" fill="url(#a)" stroke="#fff"/><defs><linearGradient id="a" x1="11.84" y1="7.68" x2="69.409" y2="19.108" gradientUnits="userSpaceOnUse"><stop stop-color="#2173EF"/><stop offset="1" stop-color="#C03CD6"/></linearGradient></defs></symbol><symbol viewBox="0 0 57.496292 57.552002" id="src-2"><path d="M57.494 28.463c-.049-7.614-3.087-14.78-8.57-20.154C43.405 2.886 36.12-.044 28.41.053 12.554.247-.191 13.296.002 29.141c.097 7.687 3.171 14.877 8.654 20.24 5.41 5.277 12.515 8.17 20.068 8.17h.363c7.637-.048 14.802-3.086 20.164-8.546 5.41-5.507 8.34-12.807 8.243-20.542Zm-9.538 19.26c-5.023 5.12-11.728 7.952-18.893 8-7.19.085-13.992-2.626-19.136-7.65-5.144-5.011-8.025-11.754-8.11-18.956C1.638 14.277 13.57 2.05 28.434 1.87h.34c7.092 0 13.797 2.736 18.88 7.735 5.132 5.036 7.977 11.742 8.025 18.871.085 7.251-2.65 14.09-7.722 19.247Z" fill="url(#a)"/><path d="M41.457 8.526a23.893 23.893 0 0 0-25.442 0 23.92 23.92 0 0 0-8.847 9.89.91.91 0 0 0 .423 1.21.91.91 0 0 0 1.21-.423C12.482 11.589 20.3 6.662 28.737 6.662c8.436 0 16.267 4.927 19.934 12.54a.927.927 0 0 0 1.21.424.91.91 0 0 0 .424-1.21 24.079 24.079 0 0 0-8.847-9.89Z" fill="url(#b)"/><path d="m37.776 18.392-9.392 9.394a.913.913 0 0 0 0 1.283.898.898 0 0 0 .642.266.86.86 0 0 0 .641-.266l9.392-9.394a.913.913 0 0 0 0-1.283.913.913 0 0 0-1.282 0Z" fill="url(#c)"/><path d="M33.528 27.894a.914.914 0 0 0-.908.908c0 2.094-1.707 3.801-3.898 3.886-2.13-.012-3.86-1.707-3.86-3.79v-.035a3.877 3.877 0 0 1 1.077-2.82 3.6 3.6 0 0 1 2.614-1.127.914.914 0 0 0 .908-.907.915.915 0 0 0-.908-.908c-1.489 0-2.88.605-3.922 1.682a5.744 5.744 0 0 0-1.585 4.128c.012 3.087 2.566 5.592 5.7 5.592h.025c3.17-.12 5.664-2.626 5.664-5.701a.914.914 0 0 0-.907-.908Z" fill="url(#d)"/><defs><linearGradient id="a" x1="9.199" y1="7.526" x2="54.598" y2="14.569" gradientUnits="userSpaceOnUse"><stop stop-color="#2173EF"/><stop offset="1" stop-color="#C03CD6"/></linearGradient><linearGradient id="b" x1="14.009" y1="6.79" x2="43.085" y2="19.942" gradientUnits="userSpaceOnUse"><stop stop-color="#2173EF"/><stop offset="1" stop-color="#C03CD6"/></linearGradient><linearGradient id="c" x1="29.913" y1="19.586" x2="38.758" y2="20.957" gradientUnits="userSpaceOnUse"><stop stop-color="#2173EF"/><stop offset="1" stop-color="#C03CD6"/></linearGradient><linearGradient id="d" x1="24.866" y1="24.583" x2="33.861" y2="25.977" gradientUnits="userSpaceOnUse"><stop stop-color="#2173EF"/><stop offset="1" stop-color="#C03CD6"/></linearGradient></defs></symbol><symbol viewBox="0 0 57.968002 58.002262" id="src-3"><path d="M50.206 35.367a.965.965 0 0 0-1.323.345L37.8 54.617c-.8 1.386-2.577 1.863-3.92 1.088l-2.16-1.4a.967.967 0 1 0-1.052 1.623l2.202 1.425a4.832 4.832 0 0 0 6.6-1.764l11.081-18.9a.966.966 0 0 0-.344-1.322Z" fill="url(#a)"/><path d="M53.133 0H37.66c-2.991 0-5.22.952-7.452 3.184a.966.966 0 1 0 1.367 1.367c1.884-1.883 3.59-2.617 6.085-2.617h15.472c1.599 0 2.9 1.301 2.9 2.9v15.472c0 2.496-.733 4.201-2.618 6.085L24.698 55.15c-1.096 1.094-3.007 1.095-4.101 0L2.819 37.37a2.882 2.882 0 0 1-.85-2.052c0-.775.302-1.503.849-2.05L28.773 7.351c.4.101.8.203 1.215.314 3.933 1.054 7.037 2.143 9.351 3.115a5.809 5.809 0 0 0-.71 2.757c0 3.2 2.601 5.802 5.801 5.802s5.802-2.602 5.802-5.802c0-3.2-2.602-5.801-5.802-5.801a.967.967 0 1 0 0 1.933 3.872 3.872 0 0 1 3.868 3.868 3.872 3.872 0 0 1-3.868 3.868 3.872 3.872 0 0 1-3.868-3.868c0-.696.19-1.376.542-1.968 1.675.802 2.722 1.478 3.136 1.91-.177.05-.451.106-.864.141a.967.967 0 0 0 .17 1.928c.595-.054 2.404-.213 2.752-1.51.953-3.557-13.003-7.49-15.81-8.241-4.295-1.151-8.419-1.938-11.614-2.217-3.927-.343-5.84.104-6.2 1.448-.172.645-.631 2.357 7.209 5.449a.966.966 0 1 0 .709-1.799c-3.788-1.494-5.357-2.588-5.86-3.104 1.192-.35 5.27-.248 11.837 1.245L1.452 31.9a4.801 4.801 0 0 0-1.417 3.418 4.8 4.8 0 0 0 1.417 3.42l17.777 17.777a4.8 4.8 0 0 0 3.417 1.415 4.803 4.803 0 0 0 3.42-1.416l28.717-28.757c2.233-2.231 3.184-4.46 3.184-7.452V4.835A4.84 4.84 0 0 0 53.133 0Z" fill="url(#b)"/><path d="m30.999 36.103-1.026 1.014-9.783-9.897 1.026-1.014 6.653 6.731c.786.135 1.399-.015 1.838-.45.599-.591.87-1.294.813-2.11-.046-.804-.495-1.636-1.346-2.497a7.407 7.407 0 0 0-1.757-1.301 7.744 7.744 0 0 0-2.118-.824l1.071-1.848c.814.188 1.595.49 2.343.905.76.402 1.424.89 1.991 1.464.861.871 1.442 1.776 1.742 2.715.31.95.341 1.86.093 2.733-.226.871-.693 1.657-1.401 2.357-.391.387-.807.687-1.248.9l1.109 1.122Zm-12.311-7.398 9.782 9.897-1.026 1.014-6.623-6.7c-.85-.152-1.526.02-2.027.514-.598.592-.868 1.284-.81 2.077.082.79.558 1.626 1.429 2.507a7.874 7.874 0 0 0 2.34 1.636c.905.402 1.766.625 2.582.67l-.989 1.857c-.98-.063-1.96-.321-2.937-.773a8.87 8.87 0 0 1-2.526-1.786c-.881-.892-1.483-1.806-1.806-2.743-.3-.939-.337-1.844-.111-2.715.225-.87.699-1.663 1.42-2.375.439-.435.906-.744 1.4-.929l-1.124-1.137 1.026-1.014Z" fill="url(#c)"/><defs><linearGradient id="a" x1="33.5" y1="38.193" x2="49.726" y2="40.455" gradientUnits="userSpaceOnUse"><stop stop-color="#2173EF"/><stop offset="1" stop-color="#C03CD6"/></linearGradient><linearGradient id="b" x1="9.304" y1="7.531" x2="55.048" y2="14.628" gradientUnits="userSpaceOnUse"><stop stop-color="#2173EF"/><stop offset="1" stop-color="#C03CD6"/></linearGradient><linearGradient id="c" x1="25.835" y1="24.771" x2="32.717" y2="33.577" gradientUnits="userSpaceOnUse"><stop stop-color="#2173EF"/><stop offset="1" stop-color="#C03CD6"/></linearGradient></defs></symbol><symbol viewBox="0 0 57.654663 57.654667" id="src-4"><path d="M28.242 35.852a.905.905 0 0 1 1.206-.43c.734.349 1.504.637 2.288.856.328.092.577.36.644.694l.957 4.786c.094.473.513.816.995.816h2.611c.482 0 .9-.343.995-.816l.957-4.786a.905.905 0 0 1 .643-.694 14.38 14.38 0 0 0 3.178-1.317.905.905 0 0 1 .947.036l4.061 2.707c.401.268.94.214 1.28-.126l1.847-1.847c.34-.34.394-.88.127-1.28l-2.708-4.062a.905.905 0 0 1-.036-.946c.564-1 1.007-2.07 1.317-3.178a.904.904 0 0 1 .694-.643l4.786-.957c.473-.095.816-.513.816-.995v-2.612c0-.482-.343-.9-.816-.994l-4.786-.958a.905.905 0 0 1-.694-.643 14.375 14.375 0 0 0-1.317-3.178.905.905 0 0 1 .036-.946l2.707-4.061c.268-.401.214-.94-.127-1.28L49.004 7.15c-.34-.34-.88-.394-1.28-.127l-4.062 2.708a.905.905 0 0 1-.946.036c-1-.564-2.07-1.007-3.178-1.317a.904.904 0 0 1-.643-.694l-.957-4.786a1.017 1.017 0 0 0-.995-.816h-2.611c-.482 0-.9.343-.995.816l-.958 4.786a.905.905 0 0 1-.643.694c-1.108.31-2.177.753-3.178 1.317a.905.905 0 0 1-.946-.036l-4.061-2.708c-.401-.267-.94-.214-1.28.127l-1.847 1.847c-.341.34-.394.879-.127 1.28l2.708 4.061c.189.284.203.65.035.947a14.38 14.38 0 0 0-1.317 3.177.904.904 0 0 1-.694.644l-4.786.957a1.017 1.017 0 0 0-.815.995v2.611c0 .482.343.9.815.995l4.786.957a.905.905 0 0 1 .694.644c.225.804.522 1.592.882 2.343a.905.905 0 1 1-1.631.783 16.232 16.232 0 0 1-.833-2.102l-4.253-.85a2.832 2.832 0 0 1-2.27-2.77V21.06c0-1.342.955-2.507 2.271-2.77l4.252-.85c.28-.878.633-1.732 1.056-2.549l-2.405-3.608a2.832 2.832 0 0 1 .352-3.564l1.847-1.847a2.832 2.832 0 0 1 3.564-.353l3.608 2.406c.817-.423 1.671-.777 2.549-1.056l.85-4.252a2.832 2.832 0 0 1 2.77-2.27h2.611c1.342 0 2.506.954 2.77 2.27l.85 4.252c.878.28 1.732.633 2.549 1.056L46.72 5.52a2.832 2.832 0 0 1 3.564.353l1.846 1.846a2.832 2.832 0 0 1 .353 3.564l-2.405 3.609c.423.817.777 1.67 1.055 2.548l4.253.85a2.832 2.832 0 0 1 2.27 2.77v2.611a2.832 2.832 0 0 1-2.27 2.77l-4.253.85a16.183 16.183 0 0 1-1.056 2.549l2.406 3.608a2.832 2.832 0 0 1-.353 3.564l-1.846 1.847a2.832 2.832 0 0 1-3.564.353l-3.609-2.406a16.2 16.2 0 0 1-2.548 1.056l-.85 4.253a2.832 2.832 0 0 1-2.77 2.27h-2.611a2.832 2.832 0 0 1-2.77-2.27l-.85-4.253a16.206 16.206 0 0 1-2.04-.804.905.905 0 0 1-.43-1.206Z" fill="url(#a)"/><path d="M27.8 27.393A.905.905 0 0 1 26.583 27a10.203 10.203 0 0 1-1.115-4.636c0-5.609 4.563-10.172 10.172-10.172 2.668 0 5.19 1.026 7.1 2.888a.905.905 0 0 1-1.264 1.296 8.317 8.317 0 0 0-5.836-2.374c-4.61 0-8.362 3.751-8.362 8.362 0 1.343.308 2.625.916 3.81a.905.905 0 0 1-.392 1.218Z" fill="url(#b)"/><path d="M44.107 18.493a.905.905 0 0 1 1.15.561c.366 1.063.552 2.177.552 3.31 0 5.61-4.563 10.172-10.172 10.172-2.157 0-4.218-.666-5.96-1.928a.905.905 0 0 1 1.061-1.466 8.3 8.3 0 0 0 4.9 1.584c4.61 0 8.361-3.75 8.361-8.361 0-.933-.152-1.85-.453-2.723a.904.904 0 0 1 .561-1.15Z" fill="url(#c)"/><path d="m2.088 39.893 2.617-.523c.159-.474.351-.937.574-1.385l-1.48-2.22a2.172 2.172 0 0 1 .27-2.734l1.213-1.213a2.172 2.172 0 0 1 2.733-.27l2.221 1.48c.448-.223.91-.415 1.385-.574l.523-2.617a2.172 2.172 0 0 1 2.124-1.741h1.716c1.03 0 1.923.732 2.125 1.741l.523 2.617c.474.16.937.351 1.385.574l2.22-1.48a2.172 2.172 0 0 1 2.734.27l1.213 1.213c.728.728.841 1.877.27 2.733l-1.48 2.221c.306.615.554 1.26.74 1.923a.905.905 0 0 1-1.743.487 9.13 9.13 0 0 0-.837-2.02.905.905 0 0 1 .035-.945l1.78-2.67a.357.357 0 0 0-.045-.45l-1.213-1.213a.358.358 0 0 0-.45-.044l-2.669 1.78a.905.905 0 0 1-.946.035 9.137 9.137 0 0 0-2.02-.837.905.905 0 0 1-.643-.694l-.629-3.145a.357.357 0 0 0-.35-.287h-1.716c-.169 0-.316.121-.35.287l-.628 3.145a.905.905 0 0 1-.643.694 9.13 9.13 0 0 0-2.02.837.905.905 0 0 1-.946-.035l-2.67-1.78a.357.357 0 0 0-.449.045L5.349 34.31a.358.358 0 0 0-.045.45l1.78 2.669c.189.284.202.65.035.946a9.133 9.133 0 0 0-.837 2.02.904.904 0 0 1-.694.643l-3.145.629a.357.357 0 0 0-.286.35v1.716c0 .169.12.316.286.35l3.145.628a.905.905 0 0 1 .694.643c.197.705.479 1.384.837 2.02a.905.905 0 0 1-.035.946l-1.78 2.67a.358.358 0 0 0 .045.449l1.213 1.213c.12.12.309.139.45.045l2.67-1.78a.905.905 0 0 1 .945-.035c.636.358 1.315.64 2.02.837.328.092.576.36.643.694l.629 3.145c.033.166.18.286.35.286h1.716c.169 0 .316-.12.35-.286l.628-3.145a.905.905 0 0 1 .644-.694 9.13 9.13 0 0 0 2.02-.837.905.905 0 0 1 .945.035l2.67 1.78c.14.094.33.075.45-.045l1.212-1.213a.358.358 0 0 0 .045-.45l-1.78-2.67a.905.905 0 0 1-.035-.945c.358-.636.64-1.316.837-2.02a.904.904 0 0 1 .694-.643l3.145-.63a.357.357 0 0 0 .286-.349v-1.716c0-.169-.12-.316-.286-.35l-.193-.038a.905.905 0 1 1 .355-1.774l.193.038a2.172 2.172 0 0 1 1.741 2.124v1.716a2.172 2.172 0 0 1-1.741 2.125l-2.617.523c-.16.474-.351.937-.574 1.385l1.48 2.22c.572.857.458 2.006-.27 2.734l-1.213 1.213a2.172 2.172 0 0 1-2.734.27l-2.22-1.48c-.448.223-.91.415-1.385.574l-.523 2.617a2.173 2.173 0 0 1-2.125 1.741h-1.716a2.172 2.172 0 0 1-2.124-1.741l-.523-2.617c-.474-.16-.938-.351-1.385-.574l-2.22 1.48a2.172 2.172 0 0 1-2.734-.27L4.069 52.72a2.172 2.172 0 0 1-.271-2.734l1.48-2.22c-.222-.448-.414-.911-.573-1.385l-2.617-.523a2.172 2.172 0 0 1-1.741-2.125v-1.716c0-1.029.732-1.922 1.741-2.124Z" fill="url(#d)"/><path d="M15.128 39.617a3.261 3.261 0 0 0-3.258 3.258.905.905 0 1 1-1.81 0 5.073 5.073 0 0 1 5.068-5.067 5.073 5.073 0 0 1 5.067 5.067 5.073 5.073 0 0 1-5.067 5.067 5.02 5.02 0 0 1-3.096-1.055.905.905 0 0 1 1.107-1.432 3.226 3.226 0 0 0 1.989.678 3.261 3.261 0 0 0 3.258-3.258 3.261 3.261 0 0 0-3.258-3.258Z" fill="url(#e)"/><path d="M30.122 22.365a5.52 5.52 0 0 1 5.513-5.513 5.52 5.52 0 0 1 5.513 5.513 5.52 5.52 0 0 1-5.513 5.513 5.52 5.52 0 0 1-5.513-5.513Zm9.217 0a3.708 3.708 0 0 0-3.704-3.704 3.708 3.708 0 0 0-3.703 3.704 3.708 3.708 0 0 0 3.703 3.703 3.708 3.708 0 0 0 3.704-3.703Z" fill="url(#f)"/><defs><linearGradient id="a" x1="50.61" y1="6.071" x2="15.838" y2="11.466" gradientUnits="userSpaceOnUse"><stop stop-color="#2173EF"/><stop offset="1" stop-color="#C03CD6"/></linearGradient><linearGradient id="b" x1="40.205" y1="14.182" x2="26.453" y2="16.629" gradientUnits="userSpaceOnUse"><stop stop-color="#2173EF"/><stop offset="1" stop-color="#C03CD6"/></linearGradient><linearGradient id="c" x1="43.168" y1="20.276" x2="30.247" y2="22.623" gradientUnits="userSpaceOnUse"><stop stop-color="#2173EF"/><stop offset="1" stop-color="#C03CD6"/></linearGradient><linearGradient id="d" x1="25.177" y1="31.938" x2="1.836" y2="35.56" gradientUnits="userSpaceOnUse"><stop stop-color="#2173EF"/><stop offset="1" stop-color="#C03CD6"/></linearGradient><linearGradient id="e" x1="18.574" y1="39.125" x2="10.571" y2="40.367" gradientUnits="userSpaceOnUse"><stop stop-color="#2173EF"/><stop offset="1" stop-color="#C03CD6"/></linearGradient><linearGradient id="f" x1="39.384" y1="18.285" x2="30.678" y2="19.636" gradientUnits="userSpaceOnUse"><stop stop-color="#2173EF"/><stop offset="1" stop-color="#C03CD6"/></linearGradient></defs></symbol></svg>