<svg width="15" height="14" viewBox="0 0 15 14" fill="none" xmlns="http://www.w3.org/2000/svg">
<g clip-path="url(#clip0)">
<path d="M10.7552 9.01155C10.6329 9.01155 10.5104 8.96506 10.4173 8.87149C10.2305 8.68506 10.2305 8.3828 10.4173 8.19637L12.1166 6.50051C12.7332 5.89087 13.0725 5.07627 13.0725 4.20445C13.0725 2.41246 11.6117 0.954545 9.81604 0.954545C8.94246 0.954545 8.12621 1.29246 7.51662 1.90653L5.81605 3.60378C5.62924 3.79022 5.32637 3.79022 5.13944 3.60378C4.95263 3.41723 4.95263 3.11497 5.13944 2.92854L6.83884 1.23268C7.62696 0.437772 8.68548 0 9.81534 0C12.1384 0 14.0283 1.88614 14.0283 4.20445C14.0283 5.33273 13.5889 6.38912 12.7913 7.1775L11.0933 8.87149C10.9995 8.96506 10.8777 9.01155 10.7552 9.01155Z" fill="#2173EF"/>
<path d="M4.21296 14.0001C1.88995 14.0001 0 12.114 0 9.79564C0 8.66736 0.439359 7.61109 1.23705 6.82259L2.93517 5.1286C3.12198 4.94216 3.42485 4.94216 3.61166 5.1286C3.79847 5.31503 3.79847 5.61729 3.61166 5.80372L1.91237 7.4997C1.29507 8.10864 0.956478 8.92324 0.956478 9.79564C0.956478 11.5876 2.41735 13.0455 4.21296 13.0455C5.08654 13.0455 5.90279 12.7076 6.51238 12.0936L8.21296 10.3964C8.39977 10.21 8.70264 10.21 8.88945 10.3964C9.07638 10.5829 9.07638 10.8851 8.88945 11.0716L7.19016 12.7675C6.40135 13.5623 5.34294 14.0001 4.21296 14.0001Z" fill="#2173EF"/>
<path d="M4.46353 10.0228C4.34117 10.0228 4.21869 9.97627 4.12564 9.88282C3.93882 9.69627 3.93882 9.39401 4.12564 9.20758L9.22677 4.11663C9.4137 3.9302 9.71657 3.9302 9.90338 4.11663C10.0902 4.30318 10.0902 4.60544 9.90338 4.79188L4.80213 9.88282C4.70837 9.97627 4.58601 10.0228 4.46353 10.0228Z" fill="#2173EF"/>
</g>
<defs>
<clipPath id="clip0">
<rect width="14.0283" height="14" fill="white"/>
</clipPath>
</defs>
</svg>
