<svg width="26" height="26" viewBox="0 0 26 26" fill="none" xmlns="http://www.w3.org/2000/svg">
<g clip-path="url(#clip0)">
<path d="M23.5625 3.25H2.43752C1.09339 3.25 0 4.34339 0 5.68752V20.3125C0 21.6566 1.09339 22.75 2.43752 22.75H23.5625C24.9066 22.75 26 21.6566 26 20.3125V5.68752C26 4.34339 24.9066 3.25 23.5625 3.25ZM23.5625 4.87499C23.6729 4.87499 23.7779 4.8979 23.8739 4.9379L13 14.3624L2.12604 4.9379C2.22205 4.89795 2.32707 4.87499 2.43746 4.87499H23.5625ZM23.5625 21.125H2.43752C1.98922 21.125 1.62499 20.7608 1.62499 20.3125V6.65472L12.4676 16.0516C12.6207 16.1841 12.8104 16.25 13 16.25C13.1896 16.25 13.3793 16.1842 13.5324 16.0516L24.375 6.65472V20.3125C24.375 20.7608 24.0108 21.125 23.5625 21.125Z" fill="#C3D9F9" stroke="#C3D9F9" stroke-width="0.5"/>
</g>
<defs>
<clipPath id="clip0">
<rect width="26" height="26" fill="white"/>
</clipPath>
</defs>
</svg>
