<svg width="65" height="40" viewBox="0 0 65 40" fill="none" xmlns="http://www.w3.org/2000/svg">
<path d="M61.874 0H2.13683C0.958849 0 0.00390625 0.954943 0.00390625 2.13293V37.8671C0.00390625 39.0451 0.958849 40 2.13683 40H61.874C63.052 40 64.007 39.0451 64.007 37.8671V2.13293C64.007 0.954943 63.052 0 61.874 0Z" fill="#F9F9F9"/>
<path fill-rule="evenodd" clip-rule="evenodd" d="M39.6872 31.4838L40.2791 31.4685L40.8659 31.4277L41.4374 31.3511L42.0038 31.2491L42.56 31.1215L43.106 30.9684L43.6418 30.7847L44.1623 30.5806L44.6725 30.351L45.1726 30.0959L45.6523 29.8203L46.1217 29.5193L46.5707 29.1978L47.0045 28.8559L47.4229 28.4987L47.8209 28.116L48.2036 27.7129L48.5659 27.2945L48.9027 26.8659L49.2241 26.4117L49.5252 25.9474L49.8007 25.4626L50.0559 24.9677L50.2855 24.4574L50.4896 23.9369L50.6733 23.4012L50.8315 22.8552L50.9591 22.299L51.056 21.7326L51.1325 21.156L51.1734 20.5743L51.1887 19.9823L51.1734 19.3904L51.1325 18.8087L51.056 18.2372L50.9591 17.6759L50.8315 17.1197L50.6733 16.5789L50.4896 16.0431L50.2855 15.5277L50.0559 15.0174L49.8007 14.5225L49.5252 14.0479L49.2241 13.5785L48.9027 13.1294L48.5659 12.7008L48.2036 12.2824L47.8209 11.8793L47.4229 11.5017L47.0045 11.1394L46.5707 10.8026L46.1217 10.4811L45.6523 10.1801L45.1726 9.90453L44.6725 9.6545L44.1623 9.41978L43.6418 9.21567L43.106 9.03197L42.56 8.87889L42.0038 8.75132L41.4374 8.64927L40.8659 8.57783L40.2791 8.53701L39.6872 8.5166L39.0953 8.53701L38.5136 8.57783L37.937 8.64927L37.3706 8.75132L36.8195 8.87889L36.2735 9.03197L35.7428 9.21567L35.2224 9.41978L34.7121 9.6545L34.2222 9.90453L33.7426 10.1801L33.2731 10.4811L32.8292 10.8026L32.3904 11.1394L31.977 11.5017L31.579 11.8793L31.2014 12.2824L30.8391 12.7008L30.4973 13.1294L30.1809 13.5785L29.8849 14.0479L29.6094 14.5225L29.3543 15.0174L29.1246 15.5277L28.9154 16.0431L28.7419 16.5789L28.5837 17.1197L28.4562 17.6759L28.3541 18.2372L28.2827 18.8087L28.2419 19.3904L28.2266 19.9823L28.2419 20.5743L28.2827 21.156L28.3541 21.7326L28.4562 22.299L28.5837 22.8552L28.7419 23.4012L28.9154 23.9369L29.1246 24.4574L29.3543 24.9677L29.6094 25.4626L29.8849 25.9474L30.1809 26.4117L30.4973 26.8659L30.8391 27.2945L31.2014 27.7129L31.579 28.116L31.977 28.4987L32.3904 28.8559L32.8292 29.1978L33.2731 29.5193L33.7426 29.8203L34.2222 30.0959L34.7121 30.351L35.2224 30.5806L35.7428 30.7847L36.2735 30.9684L36.8195 31.1215L37.3706 31.2491L37.937 31.3511L38.5136 31.4277L39.0953 31.4685L39.6872 31.4838Z" fill="#FBB231"/>
<path fill-rule="evenodd" clip-rule="evenodd" d="M24.3237 31.4838L24.9105 31.4685L25.4974 31.4277L26.074 31.3511L26.6353 31.2491L27.1914 31.1215L27.7374 30.9684L28.2681 30.7847L28.7886 30.5806L29.2989 30.351L29.7887 30.0959L30.2684 29.8203L30.7327 29.5193L31.1869 29.1978L31.6206 28.8559L32.0339 28.4987L32.4319 28.116L32.8095 27.7129L33.1718 27.2945L33.5137 26.8659L33.83 26.4117L34.1311 25.9474L34.4015 25.4626L34.6567 24.9677L34.8863 24.4574L35.0955 23.9369L35.269 23.4012L35.4272 22.8552L35.5548 22.299L35.6517 21.7326L35.7282 21.156L35.7691 20.5743L35.7844 19.9823L35.7691 19.3904L35.7282 18.8087L35.6517 18.2372L35.5548 17.6759L35.4272 17.1197L35.269 16.5789L35.0955 16.0431L34.8863 15.5277L34.6567 15.0174L34.4015 14.5225L34.1311 14.0479L33.83 13.5785L33.5137 13.1294L33.1718 12.7008L32.8095 12.2824L32.4319 11.8793L32.0339 11.5017L31.6206 11.1394L31.1869 10.8026L30.7327 10.4811L30.2684 10.1801L29.7887 9.90453L29.2989 9.6545L28.7886 9.41978L28.2681 9.21567L27.7374 9.03197L27.1914 8.87889L26.6353 8.75132L26.074 8.64927L25.4974 8.57783L24.9105 8.53701L24.3237 8.5166L23.7318 8.53701L23.145 8.57783L22.5735 8.64927L22.0071 8.75132L21.4509 8.87889L20.9049 9.03197L20.3691 9.21567L19.8487 9.41978L19.3384 9.6545L18.8383 9.90453L18.3587 10.1801L17.8892 10.4811L17.4402 10.8026L17.0065 11.1394L16.5881 11.5017L16.19 11.8793L15.8073 12.2824L15.4502 12.7008L15.1083 13.1294L14.7868 13.5785L14.4857 14.0479L14.2102 14.5225L13.9551 15.0174L13.7254 15.5277L13.5162 16.0431L13.3376 16.5789L13.1795 17.1197L13.0519 17.6759L12.9549 18.2372L12.8784 18.8087L12.8376 19.3904L12.8223 19.9823L12.8376 20.5743L12.8784 21.156L12.9549 21.7326L13.0519 22.299L13.1795 22.8552L13.3376 23.4012L13.5162 23.9369L13.7254 24.4574L13.9551 24.9677L14.2102 25.4626L14.4857 25.9474L14.7868 26.4117L15.1083 26.8659L15.4502 27.2945L15.8073 27.7129L16.19 28.116L16.5881 28.4987L17.0065 28.8559L17.4402 29.1978L17.8892 29.5193L18.3587 29.8203L18.8383 30.0959L19.3384 30.351L19.8487 30.5806L20.3691 30.7847L20.9049 30.9684L21.4509 31.1215L22.0071 31.2491L22.5735 31.3511L23.145 31.4277L23.7318 31.4685L24.3237 31.4838Z" fill="#EC1C2E"/>
<path fill-rule="evenodd" clip-rule="evenodd" d="M30.6602 12.9255H36.763V12.2979H31.1857L30.6602 12.9255Z" fill="#FBB231"/>
<path fill-rule="evenodd" clip-rule="evenodd" d="M29.748 14.3081H36.7642V13.6855H30.1154L29.748 14.3081Z" fill="#FBB231"/>
<path fill-rule="evenodd" clip-rule="evenodd" d="M29.0645 15.6909H36.7644V15.0684H29.3349L29.0645 15.6909Z" fill="#FBB231"/>
<path fill-rule="evenodd" clip-rule="evenodd" d="M28.5938 17.0786H36.7632V16.4561H28.7877L28.5938 17.0786Z" fill="#FBB231"/>
<path fill-rule="evenodd" clip-rule="evenodd" d="M28.8697 23.7788H36.7789V23.1562H28.6758L28.8697 23.7788Z" fill="#FBB231"/>
<path fill-rule="evenodd" clip-rule="evenodd" d="M29.451 25.1665H36.7785V24.5439H29.1602L29.451 25.1665Z" fill="#FBB231"/>
<path fill-rule="evenodd" clip-rule="evenodd" d="M30.2726 26.5493H36.7785V25.9268H29.8848L30.2726 26.5493Z" fill="#FBB231"/>
<path fill-rule="evenodd" clip-rule="evenodd" d="M31.4054 27.9372H36.7785V27.3096H30.8594L31.4054 27.9372Z" fill="#FBB231"/>
<path fill-rule="evenodd" clip-rule="evenodd" d="M28.3242 18.4614H36.7641V17.8389H28.4416L28.3242 18.4614Z" fill="#FBB231"/>
<path fill-rule="evenodd" clip-rule="evenodd" d="M33.4668 22.396H36.6815V21.7734H33.5842L33.4668 22.396Z" fill="#FBB231"/>
<path fill-rule="evenodd" clip-rule="evenodd" d="M33.7227 21.0124H36.6822V20.3848H33.84L33.7227 21.0124Z" fill="#FBB231"/>
<path fill-rule="evenodd" clip-rule="evenodd" d="M28.1094 20.3848H28.9462V21.0124H28.1502L28.1094 20.3848Z" fill="#FBB231"/>
<path fill-rule="evenodd" clip-rule="evenodd" d="M26.5485 19.6299L26.4924 19.6248L26.4413 19.6197L26.3903 19.6146L26.3393 19.6044L26.2934 19.5993L26.2423 19.5891L26.1913 19.5789L26.1352 19.5738L26.0841 19.5636H26.0229L25.9515 19.5585L25.88 19.5533H25.7984L25.7065 19.5585L25.6045 19.5636L25.4922 19.5738L25.4157 19.584L25.3443 19.5993L25.2779 19.6197L25.2218 19.6401L25.1657 19.6707L25.1146 19.7013L25.0738 19.7421L25.0381 19.7728L25.0177 19.8187L24.9973 19.8595L24.9922 19.9054V19.9514L25.0024 20.0024L25.0177 20.0534L25.0483 20.1044L25.0891 20.1555L25.1657 20.2269L25.2575 20.2881L25.3647 20.3341L25.482 20.38L25.6045 20.4157L25.7321 20.4616L25.8647 20.5075L25.9872 20.5586L26.1046 20.6249L26.2117 20.7066L26.3087 20.8035L26.3903 20.9209L26.4515 21.0688L26.4924 21.2423L26.5077 21.4515L26.4924 21.6965L26.4617 21.8802L26.4158 22.0384L26.3546 22.1863L26.278 22.3139L26.1862 22.4262L26.0892 22.518L25.977 22.6048L25.8596 22.6813L25.7321 22.7374L25.6045 22.7885L25.4769 22.8242L25.3391 22.8599L25.2065 22.8803L25.0789 22.8905L24.9513 22.9007L24.834 22.9058H24.6656L24.5125 22.9007H24.3747L24.2472 22.8956L24.1298 22.8905L24.0278 22.8854L23.9359 22.8752L23.8441 22.865L23.7624 22.8599L23.691 22.8446L23.6144 22.8293L23.5481 22.8089L23.4869 22.7936L23.4205 22.7731L23.3593 22.7476L23.293 22.7272L23.4665 21.87L23.5022 21.8802L23.5481 21.8904L23.5991 21.9057L23.6655 21.921L23.7369 21.9363L23.8134 21.9516L23.9002 21.972L23.992 21.9873L24.089 22.0026L24.191 22.0179L24.2931 22.0282L24.4003 22.0384L24.5125 22.0435L24.6299 22.0486H24.737L24.8493 22.0435L24.9615 22.023L25.0534 21.9873L25.1248 21.9465L25.1759 21.8955L25.2167 21.8394L25.2473 21.7781L25.2677 21.7169L25.283 21.6557L25.2881 21.5434L25.2524 21.4464L25.1861 21.3699L25.0891 21.3036L24.9769 21.2474L24.8391 21.1862L24.6911 21.1352L24.538 21.0739L24.3849 21.0025L24.237 20.9209L24.0992 20.8188L23.9767 20.7015L23.8798 20.5535L23.8083 20.38L23.7726 20.1708L23.7777 19.9207L23.7981 19.7728L23.8236 19.6248L23.8645 19.4972L23.9104 19.3696L23.9716 19.2574L24.0431 19.1553L24.1247 19.0584L24.2217 18.9716L24.3339 18.9002L24.4564 18.839L24.5942 18.7777L24.7523 18.7369L24.9258 18.7012L25.1146 18.6757L25.3238 18.6604L25.5535 18.6553H25.6963L25.829 18.6604L25.9464 18.6655H26.0586L26.1556 18.6757L26.2423 18.6808L26.3189 18.691L26.3903 18.6961L26.4566 18.7063L26.5077 18.7165L26.5587 18.7267L26.6046 18.7318L26.6454 18.742H26.6812L26.7169 18.7522L26.7475 18.7573L26.5485 19.6299Z" fill="white"/>
<path d="M26.5485 19.6299L26.4924 19.6248L26.4413 19.6197L26.3903 19.6146L26.3393 19.6044L26.2934 19.5993L26.2423 19.5891L26.1913 19.5789L26.1352 19.5738L26.0841 19.5636H26.0229L25.9515 19.5585L25.88 19.5533H25.7984L25.7065 19.5585L25.6045 19.5636L25.4922 19.5738L25.4157 19.584L25.3443 19.5993L25.2779 19.6197L25.2218 19.6401L25.1657 19.6707L25.1146 19.7013L25.0738 19.7421L25.0381 19.7728L25.0177 19.8187L24.9973 19.8595L24.9922 19.9054V19.9514L25.0024 20.0024L25.0177 20.0534L25.0483 20.1044L25.0891 20.1555L25.1657 20.2269L25.2575 20.2881L25.3647 20.3341L25.482 20.38L25.6045 20.4157L25.7321 20.4616L25.8647 20.5075L25.9872 20.5586L26.1046 20.6249L26.2117 20.7066L26.3087 20.8035L26.3903 20.9209L26.4515 21.0688L26.4924 21.2423L26.5077 21.4515L26.4924 21.6965L26.4617 21.8802L26.4158 22.0384L26.3546 22.1863L26.278 22.3139L26.1862 22.4262L26.0892 22.518L25.977 22.6048L25.8596 22.6813L25.7321 22.7374L25.6045 22.7885L25.4769 22.8242L25.3391 22.8599L25.2065 22.8803L25.0789 22.8905L24.9513 22.9007L24.834 22.9058H24.6656L24.5125 22.9007H24.3747L24.2472 22.8956L24.1298 22.8905L24.0278 22.8854L23.9359 22.8752L23.8441 22.865L23.7624 22.8599L23.691 22.8446L23.6144 22.8293L23.5481 22.8089L23.4869 22.7936L23.4205 22.7731L23.3593 22.7476L23.293 22.7272L23.4665 21.87L23.5022 21.8802L23.5481 21.8904L23.5991 21.9057L23.6655 21.921L23.7369 21.9363L23.8134 21.9516L23.9002 21.972L23.992 21.9873L24.089 22.0026L24.191 22.0179L24.2931 22.0282L24.4003 22.0384L24.5125 22.0435L24.6299 22.0486H24.737L24.8493 22.0435L24.9615 22.023L25.0534 21.9873L25.1248 21.9465L25.1759 21.8955L25.2167 21.8394L25.2473 21.7781L25.2677 21.7169L25.283 21.6557L25.2881 21.5434L25.2524 21.4464L25.1861 21.3699L25.0891 21.3036L24.9769 21.2474L24.8391 21.1862L24.6911 21.1352L24.538 21.0739L24.3849 21.0025L24.237 20.9209L24.0992 20.8188L23.9767 20.7015L23.8798 20.5535L23.8083 20.38L23.7726 20.1708L23.7777 19.9207L23.7981 19.7728L23.8236 19.6248L23.8645 19.4972L23.9104 19.3696L23.9716 19.2574L24.0431 19.1553L24.1247 19.0584L24.2217 18.9716L24.3339 18.9002L24.4564 18.839L24.5942 18.7777L24.7523 18.7369L24.9258 18.7012L25.1146 18.6757L25.3238 18.6604L25.5535 18.6553H25.6963L25.829 18.6604L25.9464 18.6655H26.0586L26.1556 18.6757L26.2423 18.6808L26.3189 18.691L26.3903 18.6961L26.4566 18.7063L26.5077 18.7165L26.5587 18.7267L26.6046 18.7318L26.6454 18.742H26.6812L26.7169 18.7522L26.7475 18.7573L26.5485 19.6299Z" stroke="white" stroke-width="0.22" stroke-miterlimit="2.61"/>
<path fill-rule="evenodd" clip-rule="evenodd" d="M27.4666 17.7979H28.5381L28.38 18.7367H29.028L28.8851 19.6144L28.2065 19.594L27.834 21.7524L27.8289 21.829L27.8493 21.8953L27.8901 21.9463L27.936 21.9872L28.0075 22.0178L28.084 22.0382L28.1707 22.0535L28.2626 22.0637L28.3493 22.0586L28.4259 22.0535L28.4973 22.0382L28.5586 22.0229L28.6096 22.0076L28.6453 21.9974L28.6657 21.9872H28.6759L28.5381 22.7066L28.5126 22.7271L28.482 22.7424L28.4565 22.7577L28.431 22.773L28.4055 22.7832L28.3698 22.7934L28.3391 22.8087L28.3034 22.8189L28.2626 22.8291L28.2269 22.8393L28.181 22.8444L28.135 22.8546L28.084 22.8597L28.0228 22.8699L27.9615 22.875L27.8952 22.8852H27.5992L27.4462 22.875L27.3135 22.8597L27.1859 22.8342L27.0839 22.8087L26.992 22.773L26.9206 22.7322L26.8543 22.6862L26.8032 22.6352L26.7624 22.5842L26.7369 22.5178L26.7165 22.4515L26.7063 22.375L26.7012 22.2984V22.2117L26.7165 22.1198L26.7267 22.0229L27.4666 17.7979Z" fill="white"/>
<path d="M27.4666 17.7979H28.5381L28.38 18.7367H29.028L28.8851 19.6144L28.2065 19.594L27.834 21.7524L27.8289 21.829L27.8493 21.8953L27.8901 21.9463L27.936 21.9872L28.0075 22.0178L28.084 22.0382L28.1707 22.0535L28.2626 22.0637L28.3493 22.0586L28.4259 22.0535L28.4973 22.0382L28.5586 22.0229L28.6096 22.0076L28.6453 21.9974L28.6657 21.9872H28.6759L28.5381 22.7066L28.5126 22.7271L28.482 22.7424L28.4565 22.7577L28.431 22.773L28.4055 22.7832L28.3698 22.7934L28.3391 22.8087L28.3034 22.8189L28.2626 22.8291L28.2269 22.8393L28.181 22.8444L28.135 22.8546L28.084 22.8597L28.0228 22.8699L27.9615 22.875L27.8952 22.8852H27.5992L27.4462 22.875L27.3135 22.8597L27.1859 22.8342L27.0839 22.8087L26.992 22.773L26.9206 22.7322L26.8543 22.6862L26.8032 22.6352L26.7624 22.5842L26.7369 22.5178L26.7165 22.4515L26.7063 22.375L26.7012 22.2984V22.2117L26.7165 22.1198L26.7267 22.0229L27.4666 17.7979Z" stroke="white" stroke-width="0.22" stroke-miterlimit="2.61"/>
<path d="M29.8848 21.0739L29.8694 21.1352L29.8643 21.2066L29.8745 21.2832L29.8899 21.3546L29.9154 21.426L29.9511 21.4975L29.9919 21.574L30.0378 21.6352L30.094 21.7016L30.1501 21.7628L30.2113 21.8189L30.2828 21.8649L30.3491 21.9108L30.4307 21.9414L30.5073 21.972L30.5838 21.9873L30.6859 22.0026L30.7828 22.0128L30.8798 22.0231L30.9818 22.0333L31.0839 22.0384H31.1859L31.288 22.0333L31.3951 22.0231L31.4972 22.0077L31.6044 21.9873L31.7115 21.9669L31.8136 21.9312L31.9258 21.8904L32.033 21.8445L32.1452 21.7832L32.2575 21.7169L32.1044 22.666L32.0381 22.6966L31.9769 22.7323L31.9156 22.7527L31.8595 22.7782L31.7983 22.7936L31.737 22.814L31.6758 22.8293L31.6095 22.8446L31.538 22.8548L31.4615 22.8599L31.3798 22.8701L31.2931 22.8752L31.191 22.8803H31.089L30.9665 22.8854H30.839L30.6502 22.8803L30.4563 22.8599L30.2623 22.8344L30.0684 22.7885L29.8796 22.7323L29.696 22.6558L29.5225 22.5588L29.3592 22.4466L29.2061 22.3139L29.0785 22.1557L28.9663 21.9771L28.8693 21.773L28.8081 21.5434L28.7622 21.2832L28.752 20.9974L28.7724 20.681L28.7877 20.5586L28.8081 20.4157L28.8387 20.2626L28.8846 20.0993L28.9408 19.9309L29.0122 19.7677L29.0989 19.5993L29.2061 19.436L29.3337 19.2778L29.4816 19.1298L29.6551 19.0023L29.849 18.8849L30.0736 18.7879L30.3236 18.7165L30.6042 18.6706L30.9155 18.6553L31.0686 18.6604L31.2268 18.6757L31.3849 18.7012L31.5431 18.742L31.7013 18.7981L31.8493 18.8696L31.9922 18.9614L32.1197 19.0686L32.232 19.2013L32.3289 19.3594L32.4055 19.5329L32.4616 19.7421L32.4922 19.9718L32.4973 20.2371L32.4718 20.528L32.4106 20.8545L32.3902 21.0893H29.5684L29.747 20.329H31.4411L31.4513 20.232L31.4462 20.1402L31.436 20.0534L31.4258 19.9769L31.3951 19.9003L31.3696 19.834L31.3288 19.7779L31.2931 19.7268L31.2472 19.6758L31.1961 19.6401L31.14 19.6044L31.0788 19.5738L31.0175 19.5482L30.9563 19.5329L30.89 19.5227L30.8185 19.5125L30.7471 19.5176L30.6757 19.5278L30.6093 19.5482L30.543 19.5687L30.4767 19.5993L30.4205 19.635L30.3644 19.6758L30.3134 19.7268L30.2623 19.7779L30.2164 19.834L30.1756 19.9003L30.1399 19.9667L30.1042 20.033L30.0787 20.1095L30.0531 20.1912L30.0378 20.2728L29.8848 21.0739Z" stroke="white" stroke-width="0.22" stroke-miterlimit="2.61"/>
<path fill-rule="evenodd" clip-rule="evenodd" d="M39.1214 18.967L39.0703 18.9415L39.0193 18.9211L38.9632 18.8905L38.907 18.865L38.8509 18.8394L38.7846 18.819L38.7182 18.7935L38.6468 18.7731L38.5754 18.7527L38.4988 18.7374L38.4223 18.7221L38.3406 18.7119L38.2488 18.7017L38.1621 18.6966H38.0651H37.9733H37.8763L37.7742 18.7017L37.6671 18.7119L37.5599 18.7323L37.4528 18.7629L37.3456 18.8088L37.2334 18.8599L37.1262 18.9313L37.0242 19.018L36.9221 19.115L36.8251 19.2426L36.7333 19.3854L36.6466 19.5538L36.5649 19.7477L36.4884 19.9671L36.4322 20.2121L36.4067 20.3498L36.3914 20.4876L36.3812 20.6254L36.3863 20.7529L36.3965 20.8856L36.4271 21.0081L36.4578 21.1254L36.5037 21.2428L36.5598 21.35L36.6312 21.4469L36.7129 21.5388L36.8047 21.6204L36.9119 21.6867L37.0293 21.748L37.1619 21.799L37.3099 21.8296L37.3558 21.8449L37.4171 21.8551L37.4885 21.8602L37.565 21.8704L37.6467 21.8806H37.7385H37.8355L37.9324 21.8704L38.0345 21.8602L38.1314 21.8398L38.2284 21.8143L38.3253 21.7837L38.4223 21.7378L38.5141 21.6867L38.5958 21.6255L38.6723 21.5592L38.4988 22.5899L38.4733 22.6103L38.4529 22.6358L38.4223 22.6614L38.3866 22.6818L38.3406 22.7124L38.2896 22.743L38.2284 22.7685L38.1569 22.794L38.0651 22.8195L37.9682 22.84L37.8508 22.8553L37.713 22.8706L37.565 22.8757L37.3915 22.8808L37.1925 22.8757L36.9731 22.8655L36.7945 22.8451L36.6159 22.8093L36.4424 22.7481L36.2639 22.6716L36.0904 22.5797L35.9271 22.4624L35.774 22.3297L35.6311 22.1715L35.5036 21.998L35.3964 21.8041L35.2994 21.5898L35.2331 21.35L35.1872 21.0897L35.1719 20.8193L35.177 20.5131L35.2229 20.1917L35.2535 20.0335L35.2841 19.8804L35.325 19.7273L35.3658 19.5844L35.4066 19.4518L35.4576 19.314L35.5087 19.1864L35.5597 19.0691L35.6209 18.9466L35.677 18.8343L35.7434 18.7272L35.8148 18.6251L35.8811 18.5282L35.9628 18.4363L36.0393 18.3496L36.121 18.2679L36.2077 18.1914L36.2996 18.12L36.3914 18.0536L36.4884 17.9873L36.5904 17.9312L36.6976 17.8801L36.8047 17.8342L36.917 17.7934L37.0395 17.7526L37.1568 17.722L37.2793 17.6964L37.412 17.6709L37.5446 17.6505L37.6824 17.6352L37.8253 17.6301L37.9733 17.625L38.0957 17.6301L38.2131 17.6352L38.3304 17.6505L38.4478 17.6658L38.555 17.6811L38.6621 17.7015L38.7591 17.722L38.856 17.7475L38.9428 17.7679L39.0193 17.7934L39.0958 17.8138L39.1571 17.8393L39.2081 17.8597L39.254 17.875L39.2897 17.8903L39.3153 17.8954L39.1214 18.967Z" fill="white"/>
<path d="M39.1214 18.967L39.0703 18.9415L39.0193 18.9211L38.9632 18.8905L38.907 18.865L38.8509 18.8394L38.7846 18.819L38.7182 18.7935L38.6468 18.7731L38.5754 18.7527L38.4988 18.7374L38.4223 18.7221L38.3406 18.7119L38.2488 18.7017L38.1621 18.6966H38.0651H37.9733H37.8763L37.7742 18.7017L37.6671 18.7119L37.5599 18.7323L37.4528 18.7629L37.3456 18.8088L37.2334 18.8599L37.1262 18.9313L37.0242 19.018L36.9221 19.115L36.8251 19.2426L36.7333 19.3854L36.6466 19.5538L36.5649 19.7477L36.4884 19.9671L36.4322 20.2121L36.4067 20.3498L36.3914 20.4876L36.3812 20.6254L36.3863 20.7529L36.3965 20.8856L36.4271 21.0081L36.4578 21.1254L36.5037 21.2428L36.5598 21.35L36.6312 21.4469L36.7129 21.5388L36.8047 21.6204L36.9119 21.6867L37.0293 21.748L37.1619 21.799L37.3099 21.8296L37.3558 21.8449L37.4171 21.8551L37.4885 21.8602L37.565 21.8704L37.6467 21.8806H37.7385H37.8355L37.9324 21.8704L38.0345 21.8602L38.1314 21.8398L38.2284 21.8143L38.3253 21.7837L38.4223 21.7378L38.5141 21.6867L38.5958 21.6255L38.6723 21.5592L38.4988 22.5899L38.4733 22.6103L38.4529 22.6358L38.4223 22.6614L38.3866 22.6818L38.3406 22.7124L38.2896 22.743L38.2284 22.7685L38.1569 22.794L38.0651 22.8195L37.9682 22.84L37.8508 22.8553L37.713 22.8706L37.565 22.8757L37.3915 22.8808L37.1925 22.8757L36.9731 22.8655L36.7945 22.8451L36.6159 22.8093L36.4424 22.7481L36.2639 22.6716L36.0904 22.5797L35.9271 22.4624L35.774 22.3297L35.6311 22.1715L35.5036 21.998L35.3964 21.8041L35.2994 21.5898L35.2331 21.35L35.1872 21.0897L35.1719 20.8193L35.177 20.5131L35.2229 20.1917L35.2535 20.0335L35.2841 19.8804L35.325 19.7273L35.3658 19.5844L35.4066 19.4518L35.4576 19.314L35.5087 19.1864L35.5597 19.0691L35.6209 18.9466L35.677 18.8343L35.7434 18.7272L35.8148 18.6251L35.8811 18.5282L35.9628 18.4363L36.0393 18.3496L36.121 18.2679L36.2077 18.1914L36.2996 18.12L36.3914 18.0536L36.4884 17.9873L36.5904 17.9312L36.6976 17.8801L36.8047 17.8342L36.917 17.7934L37.0395 17.7526L37.1568 17.722L37.2793 17.6964L37.412 17.6709L37.5446 17.6505L37.6824 17.6352L37.8253 17.6301L37.9733 17.625L38.0957 17.6301L38.2131 17.6352L38.3304 17.6505L38.4478 17.6658L38.555 17.6811L38.6621 17.7015L38.7591 17.722L38.856 17.7475L38.9428 17.7679L39.0193 17.7934L39.0958 17.8138L39.1571 17.8393L39.2081 17.8597L39.254 17.875L39.2897 17.8903L39.3153 17.8954L39.1214 18.967Z" stroke="white" stroke-width="0.22" stroke-miterlimit="2.61"/>
<path fill-rule="evenodd" clip-rule="evenodd" d="M48.6589 22.8853H47.5873L47.6639 22.4567V22.4159L47.6026 22.4924L47.5312 22.5639L47.47 22.6251L47.3985 22.6812L47.3271 22.7323L47.2608 22.7731L47.1893 22.8088L47.1179 22.8445L47.0413 22.87L46.9699 22.8904L46.8934 22.9057L46.8168 22.9211L46.7403 22.9313L46.6688 22.9364L46.5923 22.9415H46.5107L46.3117 22.9262L46.1229 22.8853L45.9545 22.819L45.8014 22.7323L45.6585 22.62L45.5361 22.4873L45.4289 22.3444L45.3319 22.1812L45.2554 22.0077L45.1942 21.824L45.1533 21.6352L45.1227 21.4362L45.1074 21.2372L45.1125 21.0382L45.1329 20.8392L45.1687 20.6401L45.2248 20.4156L45.2962 20.1962L45.3779 19.9972L45.4748 19.8135L45.5769 19.64L45.6891 19.4818L45.8116 19.3441L45.9392 19.2165L46.0718 19.1042L46.2147 19.0073L46.3627 18.9205L46.5107 18.8542L46.6688 18.8032L46.8219 18.7675L46.975 18.7419L47.1332 18.7368L47.2455 18.7419L47.3577 18.7522L47.4598 18.7726L47.5516 18.7981L47.6384 18.8287L47.7149 18.8644L47.7965 18.9052L47.8629 18.9512L47.9241 18.9971L47.9853 19.0481L48.0364 19.094L48.0823 19.1451L48.118 19.1961L48.1537 19.2471L48.1843 19.293L48.2099 19.339L48.4803 17.8184H49.5315L48.6589 22.8853Z" fill="white"/>
<path d="M48.6589 22.8853H47.5873L47.6639 22.4567V22.4159L47.6026 22.4924L47.5312 22.5639L47.47 22.6251L47.3985 22.6812L47.3271 22.7323L47.2608 22.7731L47.1893 22.8088L47.1179 22.8445L47.0413 22.87L46.9699 22.8904L46.8934 22.9057L46.8168 22.9211L46.7403 22.9313L46.6688 22.9364L46.5923 22.9415H46.5107L46.3117 22.9262L46.1229 22.8853L45.9545 22.819L45.8014 22.7323L45.6585 22.62L45.5361 22.4873L45.4289 22.3444L45.3319 22.1812L45.2554 22.0077L45.1942 21.824L45.1533 21.6352L45.1227 21.4362L45.1074 21.2372L45.1125 21.0382L45.1329 20.8392L45.1687 20.6401L45.2248 20.4156L45.2962 20.1962L45.3779 19.9972L45.4748 19.8135L45.5769 19.64L45.6891 19.4818L45.8116 19.3441L45.9392 19.2165L46.0718 19.1042L46.2147 19.0073L46.3627 18.9205L46.5107 18.8542L46.6688 18.8032L46.8219 18.7675L46.975 18.7419L47.1332 18.7368L47.2455 18.7419L47.3577 18.7522L47.4598 18.7726L47.5516 18.7981L47.6384 18.8287L47.7149 18.8644L47.7965 18.9052L47.8629 18.9512L47.9241 18.9971L47.9853 19.0481L48.0364 19.094L48.0823 19.1451L48.118 19.1961L48.1537 19.2471L48.1843 19.293L48.2099 19.339L48.4803 17.8184H49.5315L48.6589 22.8853Z" stroke="white" stroke-width="0.22" stroke-miterlimit="2.61"/>
<path fill-rule="evenodd" clip-rule="evenodd" d="M46.9034 21.9467L47.0106 21.9416L47.1126 21.9161L47.2045 21.8906L47.2963 21.8446L47.3729 21.8038L47.4545 21.7426L47.5259 21.6763L47.5923 21.6048L47.6484 21.5283L47.7045 21.4415L47.7556 21.3548L47.7964 21.2629L47.8372 21.166L47.8678 21.0639L47.8933 20.9619L47.9137 20.8547L47.9342 20.7476L47.9444 20.6353V20.5282L47.9393 20.421L47.9291 20.3189L47.9137 20.222L47.8882 20.1301L47.8576 20.0434L47.8168 19.9669L47.7709 19.8903L47.7198 19.8291L47.6637 19.773L47.5974 19.727L47.5259 19.6964L47.4545 19.676L47.3729 19.6709L47.2657 19.676L47.1688 19.6913L47.082 19.727L46.9902 19.7627L46.9136 19.8138L46.8371 19.875L46.7707 19.9413L46.7044 20.0179L46.6483 20.0995L46.5921 20.1914L46.5411 20.2832L46.5003 20.3853L46.4595 20.4873L46.4289 20.5945L46.3982 20.7067L46.3778 20.819L46.3574 20.9874L46.3625 21.1711L46.3931 21.365L46.4442 21.5436L46.5207 21.7018L46.6228 21.8293L46.7503 21.9161L46.9034 21.9467Z" fill="#FBB231"/>
<path fill-rule="evenodd" clip-rule="evenodd" d="M23.119 22.0237L22.9608 22.886H21.9862L22.0117 22.7279L22.0321 22.585L22.0474 22.4727L22.0627 22.4166L22.0066 22.4778L21.9453 22.5391L21.8739 22.6003L21.7923 22.6513L21.7004 22.7074L21.6035 22.7534L21.5014 22.7993L21.3942 22.8401L21.282 22.8758L21.1697 22.9013L21.0575 22.9218L20.9452 22.9371L20.8278 22.9473L20.7207 22.9524L20.6084 22.9371L20.5064 22.9218L20.3686 22.8911L20.2461 22.8503L20.139 22.7993L20.042 22.7432L19.9553 22.6819L19.8787 22.6105L19.8175 22.534L19.7614 22.4574L19.7155 22.3758L19.6746 22.2941L19.644 22.2074L19.6236 22.1206L19.6083 22.0339L19.593 21.942L19.5879 21.8604V21.7737L19.5981 21.6206L19.6236 21.4777L19.6593 21.345L19.7104 21.2124L19.7716 21.0899L19.843 20.9776L19.9247 20.8705L20.0165 20.7684L20.1135 20.6817L20.2206 20.6L20.3329 20.5286L20.4502 20.4623L20.5727 20.4112L20.7003 20.3653L20.8329 20.3347L20.9707 20.3092H20.9758L20.9962 20.3041H21.0268L21.0677 20.299L21.1136 20.2888H21.1697L21.2259 20.2786L21.2922 20.2735L21.3585 20.2633L21.4249 20.2582L21.4963 20.2531L21.5524 20.2428L21.6188 20.2377H21.6749L21.731 20.2326H21.7718H21.8637L21.9555 20.2377H22.0372H22.1239L22.1954 20.2428L22.2464 20.2479L22.2872 20.2531H22.2974L22.3076 20.2224L22.328 20.1561L22.3484 20.0745L22.3587 19.9979L22.3382 19.9163L22.3076 19.8346L22.2617 19.7683L22.1954 19.7071L22.1239 19.6611L22.0423 19.6254L21.9504 19.5999L21.8484 19.5948L21.7412 19.5897L21.6239 19.5846H21.5065L21.3789 19.5897L21.2514 19.5999L21.1289 19.6101L21.0064 19.6203L20.884 19.6356L20.7666 19.6509L20.6544 19.6713L20.5574 19.6918L20.4605 19.7071L20.3788 19.7326L20.3074 19.7581L20.2563 19.7836L20.2104 19.804L20.486 18.8702L20.5727 18.8396L20.6544 18.809L20.7513 18.7784L20.8432 18.758L20.935 18.7427L21.0371 18.7273L21.134 18.712L21.2412 18.7018L21.3483 18.6967L21.4606 18.6916L21.5779 18.6865H21.7004H21.8229H21.9504L22.0831 18.6916L22.2209 18.6967L22.328 18.7018L22.4454 18.7222L22.5679 18.7478L22.6903 18.7835L22.8077 18.8294L22.925 18.8855L23.0424 18.9519L23.1496 19.0233L23.2465 19.11L23.3333 19.2019L23.4098 19.304L23.4659 19.4213L23.5068 19.5489L23.5272 19.6764V19.8244L23.5068 19.9826L23.119 22.0237Z" fill="white"/>
<path d="M23.119 22.0237L22.9608 22.886H21.9862L22.0117 22.7279L22.0321 22.585L22.0474 22.4727L22.0627 22.4166L22.0066 22.4778L21.9453 22.5391L21.8739 22.6003L21.7923 22.6513L21.7004 22.7074L21.6035 22.7534L21.5014 22.7993L21.3942 22.8401L21.282 22.8758L21.1697 22.9013L21.0575 22.9218L20.9452 22.9371L20.8278 22.9473L20.7207 22.9524L20.6084 22.9371L20.5064 22.9218L20.3686 22.8911L20.2461 22.8503L20.139 22.7993L20.042 22.7432L19.9553 22.6819L19.8787 22.6105L19.8175 22.534L19.7614 22.4574L19.7155 22.3758L19.6746 22.2941L19.644 22.2074L19.6236 22.1206L19.6083 22.0339L19.593 21.942L19.5879 21.8604V21.7737L19.5981 21.6206L19.6236 21.4777L19.6593 21.345L19.7104 21.2124L19.7716 21.0899L19.843 20.9776L19.9247 20.8705L20.0165 20.7684L20.1135 20.6817L20.2206 20.6L20.3329 20.5286L20.4502 20.4623L20.5727 20.4112L20.7003 20.3653L20.8329 20.3347L20.9707 20.3092H20.9758L20.9962 20.3041H21.0268L21.0677 20.299L21.1136 20.2888H21.1697L21.2259 20.2786L21.2922 20.2735L21.3585 20.2633L21.4249 20.2582L21.4963 20.2531L21.5524 20.2428L21.6188 20.2377H21.6749L21.731 20.2326H21.7718H21.8637L21.9555 20.2377H22.0372H22.1239L22.1954 20.2428L22.2464 20.2479L22.2872 20.2531H22.2974L22.3076 20.2224L22.328 20.1561L22.3484 20.0745L22.3587 19.9979L22.3382 19.9163L22.3076 19.8346L22.2617 19.7683L22.1954 19.7071L22.1239 19.6611L22.0423 19.6254L21.9504 19.5999L21.8484 19.5948L21.7412 19.5897L21.6239 19.5846H21.5065L21.3789 19.5897L21.2514 19.5999L21.1289 19.6101L21.0064 19.6203L20.884 19.6356L20.7666 19.6509L20.6544 19.6713L20.5574 19.6918L20.4605 19.7071L20.3788 19.7326L20.3074 19.7581L20.2563 19.7836L20.2104 19.804L20.486 18.8702L20.5727 18.8396L20.6544 18.809L20.7513 18.7784L20.8432 18.758L20.935 18.7427L21.0371 18.7273L21.134 18.712L21.2412 18.7018L21.3483 18.6967L21.4606 18.6916L21.5779 18.6865H21.7004H21.8229H21.9504L22.0831 18.6916L22.2209 18.6967L22.328 18.7018L22.4454 18.7222L22.5679 18.7478L22.6903 18.7835L22.8077 18.8294L22.925 18.8855L23.0424 18.9519L23.1496 19.0233L23.2465 19.11L23.3333 19.2019L23.4098 19.304L23.4659 19.4213L23.5068 19.5489L23.5272 19.6764V19.8244L23.5068 19.9826L23.119 22.0237Z" stroke="white" stroke-width="0.22" stroke-miterlimit="2.61"/>
<path fill-rule="evenodd" clip-rule="evenodd" d="M22.186 21.0126L22.1809 20.9973L22.1656 20.9769L22.1401 20.9616L22.1044 20.9565L22.0584 20.9463H22.0074H21.9513H21.89H21.8288L21.7676 20.9565L21.7012 20.9616L21.64 20.9718L21.5839 20.982L21.5278 20.9922L21.4818 21.0024L21.441 21.0126L21.4104 21.0228L21.3798 21.033L21.339 21.0483L21.2981 21.0688L21.2471 21.0892L21.1961 21.1198L21.1399 21.1453L21.0889 21.1759L21.0379 21.2167L20.9869 21.2525L20.9409 21.2984L20.9001 21.3494L20.8593 21.3953L20.8287 21.4515L20.8083 21.5127L20.7981 21.5739L20.793 21.7066L20.8134 21.8137L20.8491 21.8903L20.9001 21.9464L20.9614 21.9872L21.0277 22.0077L21.0889 22.023H21.1502H21.2624L21.3696 22.0077L21.4716 21.9923L21.5584 21.9719L21.6349 21.9413L21.7115 21.9107L21.7778 21.875L21.8339 21.8291L21.8849 21.7933L21.9309 21.7474L21.9717 21.7015L22.0023 21.6556L22.0278 21.6096L22.0533 21.5637L22.0686 21.5229L22.0839 21.477L22.1146 21.3647L22.1401 21.2371L22.1656 21.1147L22.186 21.0126Z" fill="#EC1C2E"/>
<path fill-rule="evenodd" clip-rule="evenodd" d="M14.9652 22.8852H13.9141L14.7917 17.7979H16.6236L16.7971 20.8186L18.0677 17.7979H19.9812L19.078 22.8852H18.0268L18.6953 19.0837H18.6494L17.0726 22.8852H15.8837L15.8786 22.7271L15.848 22.3035L15.8174 21.7014L15.7765 21.0125L15.7357 20.3186L15.7051 19.7114L15.6745 19.2725L15.6694 19.0837H15.6592H15.6337H15.6082L14.9652 22.8852Z" fill="white"/>
<path d="M14.9652 22.8852H13.9141L14.7917 17.7979H16.6236L16.7971 20.8186L18.0677 17.7979H19.9812L19.078 22.8852H18.0268L18.6953 19.0837H18.6494L17.0726 22.8852H15.8837L15.8786 22.7271L15.848 22.3035L15.8174 21.7014L15.7765 21.0125L15.7357 20.3186L15.7051 19.7114L15.6745 19.2725L15.6694 19.0837H15.6592H15.6337H15.6082L14.9652 22.8852Z" stroke="white" stroke-width="0.22" stroke-miterlimit="2.61"/>
<path fill-rule="evenodd" clip-rule="evenodd" d="M42.3407 22.0237L42.1825 22.886H41.2079L41.2181 22.7279V22.5901V22.4829L41.2283 22.437L41.1773 22.4931L41.1212 22.5544L41.0498 22.6054L40.9732 22.6615L40.8916 22.7125L40.7997 22.7585L40.7028 22.8044L40.6058 22.8452L40.4987 22.8758L40.3915 22.9065L40.2843 22.9218L40.1721 22.9371L40.0598 22.9473L39.9527 22.9524L39.8506 22.9371L39.7435 22.9218L39.6057 22.8911L39.4832 22.8503L39.371 22.7993L39.2689 22.7432L39.1873 22.6819L39.1107 22.6105L39.0495 22.534L38.9985 22.4574L38.9525 22.3758L38.9168 22.2941L38.8862 22.2074L38.8658 22.1206L38.8505 22.0339L38.8403 21.942L38.8301 21.8604V21.7737L38.8403 21.6206L38.8607 21.4777L38.8964 21.345L38.9474 21.2124L39.0036 21.0899L39.0801 20.9776L39.1567 20.8705L39.2485 20.7684L39.3506 20.6817L39.4526 20.6L39.5649 20.5286L39.6873 20.4623L39.8047 20.4112L39.9323 20.3653L40.0598 20.3347L40.1925 20.3092H40.2027L40.218 20.3041H40.2486L40.2843 20.299L40.3354 20.2888H40.3915L40.4476 20.2786L40.5089 20.2735L40.5752 20.2633L40.6466 20.2582L40.713 20.2531L40.7793 20.2428L40.8405 20.2377H40.8967L40.9477 20.2326H40.9936H41.0855L41.1773 20.2377H41.2641H41.3508L41.4273 20.2428L41.4886 20.2479L41.5192 20.2531H41.5396L41.5447 20.2224L41.56 20.1561L41.5702 20.0745L41.5753 19.9979L41.56 19.9163L41.5294 19.8346L41.4784 19.7683L41.4222 19.7071L41.3508 19.6611L41.2692 19.6254L41.1824 19.5999L41.0906 19.5948L40.9834 19.5897L40.8661 19.5846H40.7487L40.6211 19.5897L40.4936 19.5999L40.3711 19.6101L40.2486 19.6203L40.1262 19.6356L40.0088 19.6509L39.9016 19.6713L39.7996 19.6918L39.7077 19.7071L39.621 19.7326L39.5496 19.7581L39.4934 19.7836L39.4526 19.804L39.723 18.8702L39.8098 18.8396L39.9016 18.809L39.9884 18.7784L40.0802 18.758L40.1772 18.7427L40.2741 18.7273L40.3762 18.712L40.4782 18.7018L40.5905 18.6967L40.7028 18.6916L40.815 18.6865H40.9324H41.0549H41.1773L41.31 18.6916L41.4427 18.6967L41.5498 18.7018L41.6672 18.7222L41.7845 18.7478L41.9121 18.7835L42.0295 18.8294L42.1468 18.8855L42.2642 18.9519L42.3713 19.0233L42.4734 19.11L42.5601 19.2019L42.6367 19.304L42.6979 19.4213L42.7387 19.5489L42.7643 19.6764V19.8244L42.7489 19.9826L42.3407 22.0237Z" fill="white"/>
<path fill-rule="evenodd" clip-rule="evenodd" d="M42.1837 22.9113L42.2041 22.8909L42.3623 22.0285L42.3164 22.0234L42.1582 22.8807L42.1837 22.8603V22.9113L42.199 22.9062L42.2041 22.8909L42.1837 22.9113Z" fill="white"/>
<path fill-rule="evenodd" clip-rule="evenodd" d="M41.1836 22.8859L41.2091 22.9114H42.1837V22.8604H41.2091L41.2346 22.8859H41.1836V22.9114H41.2091L41.1836 22.8859Z" fill="white"/>
<path fill-rule="evenodd" clip-rule="evenodd" d="M41.2499 22.4515L41.2142 22.4209L41.1989 22.4821L41.1938 22.5893V22.7271L41.1836 22.8852H41.2346L41.2397 22.7271L41.2499 22.5893L41.2448 22.4821V22.4515L41.2091 22.4209L41.2499 22.4515Z" fill="white"/>
<path fill-rule="evenodd" clip-rule="evenodd" d="M39.7383 22.9465L39.8505 22.9618L39.9526 22.972H40.0597L40.172 22.9618L40.2843 22.9465L40.3965 22.9261L40.5037 22.8955L40.6108 22.8648L40.7078 22.824L40.8098 22.7832L40.9017 22.7322L40.9833 22.6811L41.065 22.625L41.1364 22.5689L41.1977 22.5076L41.2487 22.4515L41.2079 22.4209L41.1568 22.477L41.1058 22.5332L41.0344 22.5893L40.9629 22.6403L40.8813 22.6862L40.7843 22.7322L40.6925 22.7832L40.5955 22.8189L40.4935 22.8495L40.3863 22.8801L40.2792 22.9006L40.172 22.9159L40.0597 22.921L39.9526 22.9261L39.8505 22.9159L39.7485 22.9006L39.7383 22.9465Z" fill="white"/>
<path fill-rule="evenodd" clip-rule="evenodd" d="M38.8047 21.7734V21.8602L38.8149 21.9418L38.8251 22.0388L38.8404 22.1255L38.8608 22.2123L38.8914 22.299L38.9272 22.3909L38.9782 22.4725L39.0292 22.5542L39.0955 22.6256L39.1721 22.697L39.2588 22.7634L39.3609 22.8246L39.4731 22.8756L39.6007 22.9113L39.7385 22.9471L39.7487 22.9011L39.6109 22.8654L39.4884 22.8246L39.3813 22.7787L39.2843 22.7225L39.2027 22.6613L39.1313 22.595L39.07 22.5184L39.0139 22.447L38.9731 22.3654L38.9374 22.2837L38.9067 22.2021L38.8863 22.1204L38.871 22.0286L38.8608 21.9418L38.8557 21.8602V21.7734H38.8047Z" fill="white"/>
<path fill-rule="evenodd" clip-rule="evenodd" d="M40.1926 20.2881L40.06 20.3085L39.9273 20.3442L39.7997 20.385L39.6772 20.4412L39.5548 20.5024L39.4374 20.5789L39.3354 20.6606L39.2333 20.7524L39.1415 20.8494L39.0598 20.9616L38.9833 21.0739L38.922 21.2015L38.871 21.3341L38.8404 21.477L38.8149 21.6199L38.8047 21.773H38.8557L38.8608 21.6199L38.8863 21.4821L38.922 21.3494L38.968 21.2219L39.0292 21.0994L39.0955 20.9923L39.1772 20.88L39.2639 20.783L39.366 20.7014L39.468 20.6198L39.5752 20.5483L39.6977 20.4871L39.815 20.431L39.9426 20.3901L40.0651 20.3544L40.1926 20.334V20.2881Z" fill="white"/>
<path fill-rule="evenodd" clip-rule="evenodd" d="M40.9945 20.207H40.9486L40.8975 20.2121L40.8414 20.2172L40.7802 20.2223L40.7138 20.2274L40.6475 20.2325L40.5761 20.2376L40.5097 20.2479L40.4485 20.2581L40.3924 20.2632L40.3362 20.2683L40.2852 20.2734L40.2495 20.2785L40.2189 20.2836L40.2036 20.2887H40.1934V20.3346H40.2036L40.224 20.3295L40.2495 20.3244L40.2852 20.3193L40.3362 20.3142L40.3924 20.3091L40.4485 20.304L40.5097 20.2938L40.5761 20.2887L40.6475 20.2785L40.7138 20.2734L40.7802 20.2683L40.8414 20.2632L40.8975 20.2581H40.9486H40.9945V20.207Z" fill="white"/>
<path fill-rule="evenodd" clip-rule="evenodd" d="M41.5146 20.2479L41.5401 20.2274H41.5197L41.4891 20.2223H41.4279L41.3513 20.2121H41.2646H41.1778L41.086 20.207H40.9941V20.2581H41.086H41.1778L41.2646 20.2683H41.3513H41.4279L41.4891 20.2734H41.5197H41.5401L41.5605 20.2581L41.5401 20.2734L41.5605 20.2785V20.2581L41.5146 20.2479Z" fill="white"/>
<path fill-rule="evenodd" clip-rule="evenodd" d="M41.5545 19.9971H41.5494L41.5443 20.0736L41.5341 20.1502L41.5188 20.2216L41.5137 20.2471L41.5596 20.2573L41.5698 20.2267L41.58 20.1553L41.5902 20.0736L41.6004 19.9971H41.5545Z" fill="white"/>
<path fill-rule="evenodd" clip-rule="evenodd" d="M41.0898 19.6145V19.6196L41.1817 19.6247L41.2633 19.6451L41.3399 19.6808L41.4062 19.7268L41.4572 19.7829L41.5032 19.8492L41.5389 19.9156L41.5542 19.9972H41.6001L41.5848 19.9105L41.5542 19.8237L41.4981 19.7523L41.4368 19.691L41.3654 19.6349L41.2786 19.5992L41.1868 19.5788L41.0898 19.5635V19.5686V19.6145Z" fill="white"/>
<path fill-rule="evenodd" clip-rule="evenodd" d="M39.4316 19.8035L39.4674 19.8239L39.5082 19.8035L39.5592 19.778L39.6255 19.7576L39.7072 19.7321L39.8041 19.7117L39.9011 19.6913L40.0134 19.676L40.1256 19.6606L40.2481 19.6402L40.3705 19.63L40.493 19.6198L40.6206 19.6147H40.7481H40.8655H40.9829H41.09V19.5688L40.9829 19.5637L40.8655 19.5586H40.7481L40.6206 19.5637L40.493 19.5739L40.3705 19.5841L40.2481 19.5994L40.1256 19.6147L40.0082 19.6249L39.896 19.6453L39.7939 19.6658L39.7021 19.6862L39.6153 19.7066L39.5439 19.7321L39.4827 19.7576L39.4367 19.7882L39.4776 19.8086L39.4316 19.8035Z" fill="white"/>
<path fill-rule="evenodd" clip-rule="evenodd" d="M39.7174 18.8496L39.7021 18.87L39.4316 19.8038L39.4776 19.8089L39.748 18.8751L39.7327 18.8955L39.7174 18.8496L39.7072 18.8547L39.7021 18.87L39.7174 18.8496Z" fill="white"/>
<path fill-rule="evenodd" clip-rule="evenodd" d="M41.4435 18.6704L41.3108 18.6653L41.1781 18.6602H41.0557H40.9332H40.8158L40.7036 18.6653L40.5913 18.6704L40.4791 18.6806L40.377 18.6857L40.2698 18.701L40.1729 18.7163L40.0759 18.7367L39.9841 18.7571L39.8922 18.7826L39.8055 18.8132L39.7188 18.849L39.7341 18.8949L39.8208 18.8592L39.9075 18.8285L39.9943 18.803L40.0861 18.7826L40.1831 18.7622L40.28 18.7469L40.377 18.7316L40.4791 18.7265L40.5913 18.7163L40.7036 18.7112H40.8158H40.9332H41.0557H41.1781L41.3108 18.7163H41.4435V18.6704Z" fill="white"/>
<path fill-rule="evenodd" clip-rule="evenodd" d="M42.7701 19.9823L42.7905 19.8241V19.6761L42.765 19.5435L42.719 19.4159L42.6578 19.2934L42.5813 19.1863L42.4843 19.0893L42.3925 19.0026L42.2802 18.9311L42.1628 18.8597L42.0404 18.8087L41.9179 18.7576L41.7903 18.727L41.6679 18.6964L41.5505 18.6811L41.4434 18.6709V18.7168L41.5505 18.727L41.6628 18.7423L41.7801 18.773L41.9026 18.8087L42.02 18.8546L42.1373 18.9056L42.2547 18.9669L42.3567 19.0434L42.4537 19.125L42.5404 19.2169L42.617 19.3189L42.6731 19.4312L42.7139 19.5486L42.7445 19.6761V19.8241L42.7241 19.9772L42.7701 19.9823Z" fill="white"/>
<path fill-rule="evenodd" clip-rule="evenodd" d="M42.3604 22.0278L42.7686 19.9817L42.7227 19.9766L42.3145 22.0227L42.3604 22.0278Z" fill="white"/>
<path fill-rule="evenodd" clip-rule="evenodd" d="M41.4027 21.0128L41.3925 20.9924L41.3823 20.972L41.3517 20.9618L41.3159 20.9465H41.27L41.219 20.9414H41.1629L41.1067 20.9465L41.0404 20.9516L40.9792 20.9618L40.9179 20.9669L40.8618 20.9771L40.8006 20.9873L40.7546 20.9975L40.7036 21.0077L40.6628 21.0128L40.6373 21.0179L40.6067 21.0282L40.5658 21.0435L40.525 21.0588L40.474 21.0792L40.4281 21.1047L40.3719 21.1302L40.3209 21.1659L40.2699 21.2016L40.2189 21.2425L40.178 21.2833L40.1372 21.3343L40.1015 21.3904L40.076 21.4466L40.0505 21.5078L40.0403 21.5741L40.0352 21.7068L40.0556 21.814L40.0862 21.8905L40.1321 21.9466L40.1882 21.9875L40.2546 22.0079L40.3209 22.0232H40.3872H40.5046L40.6118 22.0079L40.7138 21.9875L40.8006 21.9619L40.8873 21.9313L40.9638 21.8956L41.0302 21.8599L41.0914 21.814L41.1475 21.768L41.1935 21.717L41.2343 21.6711L41.27 21.6201L41.2955 21.5741L41.3159 21.5282L41.3312 21.4823L41.3465 21.4415L41.3619 21.3292L41.3823 21.2221L41.3925 21.1098L41.4027 21.0128Z" fill="#FBB231"/>
<path fill-rule="evenodd" clip-rule="evenodd" d="M49.3828 22.3547L49.3879 22.2628L49.4185 22.1608L49.4747 22.0689L49.541 21.9873L49.6226 21.9209L49.7145 21.875L49.8165 21.8444L49.9237 21.8291L50.0309 21.8444L50.1329 21.875L50.2248 21.9209L50.3064 21.9873L50.3727 22.0689L50.4289 22.1608L50.4595 22.2628L50.4646 22.3547H50.3523L50.3472 22.2832L50.3217 22.2016L50.286 22.12L50.235 22.0536L50.1737 22.0026L50.0972 21.9618L50.0104 21.9363L49.9237 21.9261L49.837 21.9363L49.7502 21.9618L49.6737 22.0026L49.6124 22.0536L49.5614 22.12L49.5257 22.2016L49.5002 22.2832L49.4951 22.3547H49.3828Z" fill="white"/>
<path fill-rule="evenodd" clip-rule="evenodd" d="M49.7305 22.3548V22.1201H49.9448L49.9907 22.1252L50.0315 22.1354L50.0621 22.1456L50.0928 22.1609L50.1081 22.1865L50.1234 22.2069L50.1336 22.2324L50.1387 22.263L50.1336 22.2987L50.1234 22.3242L50.1132 22.3446L50.1081 22.3548H49.9448L49.9601 22.3497L49.9856 22.3446L50.0111 22.3395L50.0264 22.3293L50.0417 22.3191L50.0519 22.3089L50.057 22.2885V22.263V22.2426L50.0468 22.2273L50.0366 22.2171L50.0264 22.212L50.006 22.2069L49.9856 22.2018H49.9652H49.9448H49.8274V22.3548H49.7305Z" fill="white"/>
<path fill-rule="evenodd" clip-rule="evenodd" d="M49.3821 22.3545L49.377 22.3749L49.3872 22.4923L49.4178 22.5943L49.4739 22.6862L49.5402 22.7627L49.6219 22.829L49.7137 22.8801L49.8158 22.9107L49.9229 22.9209L50.0301 22.9107L50.1321 22.8801L50.224 22.829L50.3056 22.7627L50.372 22.6862L50.4281 22.5943L50.4587 22.4923L50.4689 22.3749L50.4638 22.3545H50.3516V22.3749L50.3465 22.4719L50.3209 22.5535L50.2852 22.63L50.2342 22.6964L50.173 22.7474L50.0964 22.7933L50.0097 22.8188L49.9229 22.8239L49.8362 22.8188L49.7494 22.7933L49.6729 22.7474L49.6117 22.6964L49.5606 22.63L49.5249 22.5535L49.4994 22.4719L49.4943 22.3749V22.3545H49.3821Z" fill="white"/>
<path fill-rule="evenodd" clip-rule="evenodd" d="M49.7305 22.3545V22.5892H49.8274V22.3953H49.9244L50.0417 22.5892H50.1183L50.0009 22.3953H50.0264L50.057 22.3902L50.0775 22.38L50.0979 22.3647L50.1081 22.3545H49.9448L49.9244 22.3596H49.8274V22.3545H49.7305Z" fill="white"/>
<path d="M49.8974 22.7989H50.0097H50.0964L50.173 22.753L50.2342 22.702L50.2852 22.6356L50.3209 22.5591V22.4775V22.3805V22.2887V22.2019L50.2852 22.1254L50.2342 22.059L50.173 22.008L50.0964 21.9417H50.0097H49.9229H49.8362H49.7494L49.6729 21.9825L49.6117 22.0335L49.5607 22.0999L49.5249 22.1764V22.2631V22.355V22.4519V22.5336L49.5607 22.6101L49.6117 22.6765L49.6729 22.7275L49.7494 22.7734H49.8362H49.9229M49.377 22.3754V22.2631L49.4076 22.1611L49.4637 22.0692L49.53 21.9876L49.6117 21.9213L49.7035 21.8753L49.8056 21.8447H49.9127H50.0199L50.1219 21.8753L50.2138 21.9213L50.2954 21.9876L50.3618 22.0692L50.4179 22.1611L50.4485 22.2631V22.3754V22.4877L50.4179 22.5948L50.3618 22.6867L50.2954 22.7632L50.2138 22.8295L50.1219 22.8806L50.0199 22.9112H49.9127H49.8056L49.7035 22.8806L49.6117 22.8295L49.53 22.7632L49.4994 22.6867L49.4433 22.5948L49.4127 22.4877V22.3754H49.377ZM49.8617 22.5897H49.7648V22.1203H50.0097H50.0505H50.0811H50.1117V22.1509V22.1815V22.2121H50.0097L50.127 22.406H50.0505L49.9331 22.2121H49.8362V22.406L49.8617 22.5897ZM49.9331 22.1764H49.9689H50.0097H49.8005V22.3346H49.8974L49.9331 22.1764Z" stroke="white" stroke-width="0.22" stroke-miterlimit="2.61"/>
<path fill-rule="evenodd" clip-rule="evenodd" d="M42.6309 22.8856H43.7228L44.1106 20.6812L44.1259 20.5945L44.1515 20.5128L44.1719 20.4261L44.2076 20.3394L44.2433 20.2577L44.2892 20.171L44.3403 20.0944L44.4015 20.023L44.4729 19.9567L44.5495 19.8954L44.6413 19.8342L44.7383 19.7883L44.8505 19.7525L44.9781 19.7219L45.1108 19.6964L45.2638 19.6913H45.32H45.3455H45.3608L45.5343 18.6963L45.4271 18.7014L45.32 18.7116L45.223 18.732L45.1312 18.7575L45.0444 18.7932L44.9628 18.829L44.8862 18.8698L44.8148 18.9208L44.7434 18.9718L44.677 19.028L44.6158 19.0892L44.5546 19.1504L44.4933 19.2168L44.4372 19.2882L44.3811 19.3596L44.325 19.4362L44.4423 18.7371H43.3554L42.6309 22.8856Z" fill="white"/>
<path d="M42.6309 22.8856H43.7228L44.1106 20.6812L44.1259 20.5945L44.1515 20.5128L44.1719 20.4261L44.2076 20.3394L44.2433 20.2577L44.2892 20.171L44.3403 20.0944L44.4015 20.023L44.4729 19.9567L44.5495 19.8954L44.6413 19.8342L44.7383 19.7883L44.8505 19.7525L44.9781 19.7219L45.1108 19.6964L45.2638 19.6913H45.32H45.3455H45.3608L45.5343 18.6963L45.4271 18.7014L45.32 18.7116L45.223 18.732L45.1312 18.7575L45.0444 18.7932L44.9628 18.829L44.8862 18.8698L44.8148 18.9208L44.7434 18.9718L44.677 19.028L44.6158 19.0892L44.5546 19.1504L44.4933 19.2168L44.4372 19.2882L44.3811 19.3596L44.325 19.4362L44.4423 18.7371H43.3554L42.6309 22.8856Z" stroke="white" stroke-width="0.22" stroke-miterlimit="2.61"/>
<path fill-rule="evenodd" clip-rule="evenodd" d="M32.375 22.8856H33.467H33.4823L33.8548 20.6812L33.8701 20.5945L33.8905 20.5128L33.9109 20.4312L33.9364 20.3547L33.967 20.2781L34.0079 20.2067L34.0538 20.1352L34.1099 20.0689L34.1711 20.0128L34.2375 19.9516L34.3242 19.9056L34.4161 19.8648L34.5283 19.8291L34.6457 19.7985L34.7784 19.7781L34.9263 19.7679H34.9416L34.957 19.773H34.9774H34.9978L35.0131 19.7781L35.0284 19.7832L35.0437 19.7883L35.0488 19.773L35.059 19.727L35.0743 19.6556L35.0947 19.5688L35.1253 19.4668L35.1509 19.3596L35.1866 19.2525L35.2223 19.1453L35.2529 19.0688L35.2886 18.9973L35.3295 18.9208L35.3652 18.8545L35.4009 18.7983L35.4264 18.7524L35.4468 18.7269L35.457 18.7116H35.4519H35.4366L35.4162 18.7065L35.3907 18.7014H35.3652L35.3346 18.6963H35.3039H35.2784L35.156 18.7014L35.0488 18.7116L34.9468 18.732L34.8549 18.7575L34.7682 18.7881L34.6865 18.829L34.61 18.8647L34.5436 18.9106L34.4773 18.9616L34.4161 19.0178L34.3548 19.079L34.2987 19.1453L34.2375 19.2117L34.1865 19.2831L34.1303 19.3596L34.0691 19.4362L34.2069 18.7371H33.0996L32.375 22.8856Z" fill="white"/>
<path d="M32.375 22.8856H33.467H33.4823L33.8548 20.6812L33.8701 20.5945L33.8905 20.5128L33.9109 20.4312L33.9364 20.3547L33.967 20.2781L34.0079 20.2067L34.0538 20.1352L34.1099 20.0689L34.1711 20.0128L34.2375 19.9516L34.3242 19.9056L34.4161 19.8648L34.5283 19.8291L34.6457 19.7985L34.7784 19.7781L34.9263 19.7679H34.9416L34.957 19.773H34.9774H34.9978L35.0131 19.7781L35.0284 19.7832L35.0437 19.7883L35.0488 19.773L35.059 19.727L35.0743 19.6556L35.0947 19.5688L35.1253 19.4668L35.1509 19.3596L35.1866 19.2525L35.2223 19.1453L35.2529 19.0688L35.2886 18.9973L35.3295 18.9208L35.3652 18.8545L35.4009 18.7983L35.4264 18.7524L35.4468 18.7269L35.457 18.7116H35.4519H35.4366L35.4162 18.7065L35.3907 18.7014H35.3652L35.3346 18.6963H35.3039H35.2784L35.156 18.7014L35.0488 18.7116L34.9468 18.732L34.8549 18.7575L34.7682 18.7881L34.6865 18.829L34.61 18.8647L34.5436 18.9106L34.4773 18.9616L34.4161 19.0178L34.3548 19.079L34.2987 19.1453L34.2375 19.2117L34.1865 19.2831L34.1303 19.3596L34.0691 19.4362L34.2069 18.7371H33.0996L32.375 22.8856Z" stroke="white" stroke-width="0.22" stroke-miterlimit="2.61"/>
<path fill-rule="evenodd" clip-rule="evenodd" d="M49.3887 26.9579V26.9426L49.4193 26.8457L49.4754 26.7538L49.5418 26.6773L49.6234 26.616L49.7152 26.5701L49.8173 26.5446L49.9245 26.5293L50.0316 26.5446L50.1337 26.5701L50.2255 26.616L50.3072 26.6773L50.3735 26.7538L50.4296 26.8457L50.4602 26.9426V26.9579H50.348L50.3225 26.8814L50.2867 26.8048L50.2357 26.7385L50.1745 26.6875L50.0979 26.6416L50.0112 26.616L49.9245 26.6058L49.8377 26.616L49.751 26.6416L49.6744 26.6875L49.6132 26.7385L49.5622 26.8048L49.5264 26.8814L49.5009 26.9579H49.3887Z" fill="#FBB231"/>
<path fill-rule="evenodd" clip-rule="evenodd" d="M49.7305 26.9579V26.8252H49.9448H49.9907L50.0315 26.8303L50.0621 26.8405L50.0928 26.8558L50.1081 26.8762L50.1234 26.8966L50.1336 26.9273L50.1387 26.9579H50.057V26.9426V26.9221L50.0468 26.9068L50.0366 26.8966L50.0264 26.8915L50.006 26.8864L49.9856 26.8813H49.9652H49.9448H49.8274V26.9579H49.7305Z" fill="#FBB231"/>
<path fill-rule="evenodd" clip-rule="evenodd" d="M49.377 27.0448L49.3872 26.958H49.4994V26.9631L49.4943 27.0448H49.377Z" fill="#FBB231"/>
<path fill-rule="evenodd" clip-rule="evenodd" d="M49.7305 27.0448V26.958H49.8274V27.0396H49.9244L49.9601 27.0294L49.9856 27.0243L50.0111 27.0192L50.0264 27.009L50.0417 26.9988L50.0519 26.9886L50.057 26.9682V26.958H50.1387L50.1336 26.9886L50.1234 27.009L50.1132 27.0294L50.0979 27.0448H49.7305Z" fill="#FBB231"/>
<path fill-rule="evenodd" clip-rule="evenodd" d="M50.3528 27.0448L50.3477 26.9631V26.958H50.4599L50.4701 27.0448H50.3528Z" fill="#FBB231"/>
<path fill-rule="evenodd" clip-rule="evenodd" d="M49.377 27.0439V27.0542L49.3872 27.1664L49.4178 27.2736L49.4739 27.3654L49.5402 27.4471L49.6219 27.5134L49.7137 27.5593L49.8158 27.5899L49.9229 27.6001L50.0301 27.5899L50.1321 27.5593L50.224 27.5134L50.3056 27.4471L50.372 27.3654L50.4281 27.2736L50.4587 27.1664L50.4689 27.0542V27.0439H50.3516V27.0542L50.3465 27.1511L50.3209 27.2327L50.2852 27.3093L50.2342 27.3756L50.173 27.4266L50.0964 27.4726L50.0097 27.4981L49.9229 27.5083L49.8362 27.4981L49.7494 27.4726L49.6729 27.4266L49.6117 27.3756L49.5606 27.3093L49.5249 27.2327L49.4994 27.1511L49.4943 27.0542V27.0439H49.377Z" fill="#FBB231"/>
<path fill-rule="evenodd" clip-rule="evenodd" d="M49.7305 27.0439V27.2685H49.8274V27.0746H49.9244L50.0417 27.2685H50.1183L50.0009 27.0746H50.0264L50.057 27.0695L50.0775 27.0593L50.0979 27.0439H49.7305Z" fill="#FBB231"/>
<path fill-rule="evenodd" clip-rule="evenodd" d="M32.4932 19.9723L32.4626 19.7427L32.4064 19.5334L32.3299 19.3549L32.2329 19.2018L32.1207 19.0691L31.9931 18.9619L31.8502 18.8803L31.7023 18.8089L31.5441 18.7527L31.3859 18.7119H31.2277H31.0695H30.9164H30.6052L30.3245 18.7578L30.0745 18.8293L29.85 18.9262L29.6561 19.0436L29.4826 19.1712L29.3346 19.3191L29.207 19.4773L29.0897 19.5947L29.0029 19.7682L28.9315 19.9366L28.8754 20.0998L28.8294 20.2631L28.7988 20.4162V20.5591V20.6816V20.9979V21.2837L28.8448 21.5439L28.906 21.7735L29.0029 21.9776L29.1152 22.1562L29.2428 22.3144L29.3958 22.4471L29.5591 22.5593L29.7326 22.6563L29.9163 22.7328L30.1051 22.789L30.299 22.8349H30.4929H30.6868H31.4165H31.4982H31.5747H31.6461H31.7125H31.7737H31.8349H31.8962H31.9523H32.0135L32.0748 22.7992L32.136 22.7686L32.2942 21.8195L32.1819 21.8858L32.0748 21.947L31.9625 21.9929L31.8502 22.0338L31.7482 22.0695H31.641H31.5339H31.4318H31.3247H31.0185H30.9164H30.8195H30.7225H30.6205H30.5439L30.4317 21.9419L30.35 21.9113L30.2837 21.8654L30.2123 21.8195L30.151 21.7633L30.1102 21.7021L30.0592 21.6358L30.0133 21.5745L29.9724 21.498L29.9163 21.4316V21.3602V21.2888V21.1459V21.0949H32.4268V20.8601L32.4881 20.5336V20.2427L32.4932 19.9723ZM31.442 20.3295H30.0286V20.2784V20.1968V20.1152L30.0592 20.0386L30.0949 19.9723L30.1255 19.9059L30.1715 19.8396L30.2174 19.7835L30.2684 19.7274L30.3194 19.6814L30.3756 19.6406L30.4317 19.6049L30.498 19.5743H30.5644H30.6307H30.7021H30.7736H30.845H30.9113H30.9726H31.0338L31.0899 19.6049L31.1512 19.6406L31.2022 19.6763L31.2481 19.7222L31.2838 19.7784L31.3247 19.8345L31.3502 19.9008L31.3808 19.9774V20.0539V20.2325L31.442 20.3295Z" fill="white"/>
</svg>
