<svg width="22" height="22" viewBox="0 0 22 22" fill="none" xmlns="http://www.w3.org/2000/svg">
<circle cx="11" cy="11" r="11" fill="#B4B4B4"/>
<path d="M10.664 12.216C10.664 11.784 10.76 11.428 10.952 11.148C11.152 10.86 11.44 10.548 11.816 10.212C12.104 9.956 12.316 9.736 12.452 9.552C12.596 9.36 12.668 9.144 12.668 8.904C12.668 8.568 12.532 8.296 12.26 8.088C11.988 7.88 11.624 7.776 11.168 7.776C10.304 7.776 9.652 8.084 9.212 8.7L8.048 7.944C8.392 7.472 8.836 7.112 9.38 6.864C9.924 6.608 10.564 6.48 11.3 6.48C12.196 6.48 12.908 6.676 13.436 7.068C13.972 7.452 14.24 7.984 14.24 8.664C14.24 8.992 14.184 9.28 14.072 9.528C13.968 9.776 13.84 9.988 13.688 10.164C13.536 10.332 13.336 10.528 13.088 10.752C12.784 11.024 12.556 11.264 12.404 11.472C12.26 11.68 12.188 11.928 12.188 12.216H10.664ZM11.432 15.084C11.152 15.084 10.92 14.996 10.736 14.82C10.56 14.636 10.472 14.412 10.472 14.148C10.472 13.884 10.56 13.664 10.736 13.488C10.92 13.312 11.152 13.224 11.432 13.224C11.704 13.224 11.928 13.312 12.104 13.488C12.288 13.664 12.38 13.884 12.38 14.148C12.38 14.412 12.288 14.636 12.104 14.82C11.928 14.996 11.704 15.084 11.432 15.084Z" fill="white"/>
</svg>
