<svg width="16" height="16" viewBox="0 0 16 16" fill="none" xmlns="http://www.w3.org/2000/svg">
<path fill-rule="evenodd" clip-rule="evenodd" d="M5.96568 0C5.53252 0 5.18137 0.351149 5.18137 0.784314V1.70846H1.72572C1.29255 1.70846 0.941406 2.05961 0.941406 2.49277V4.35721C0.941406 4.79037 1.29256 5.14152 1.72572 5.14152H2.55342V14.1456C2.55342 15.1804 3.46509 16 4.55754 16H11.4429C12.5353 16 13.447 15.1804 13.447 14.1456V5.14152H14.2747C14.7079 5.14152 15.059 4.79038 15.059 4.35722L15.059 2.49278C15.059 2.05961 14.7079 1.70846 14.2747 1.70846H10.8191V0.784313C10.8191 0.351149 10.468 0 10.0348 0H5.96568ZM6.31412 1.70846V1.06644H9.68628V1.70846H6.31412ZM2.07422 4.07508V2.77489H13.9262L13.9262 4.07508H2.07422ZM3.68623 14.1456V5.14152H12.3142V14.1456C12.3142 14.5677 11.9359 14.9336 11.4429 14.9336H4.55754C4.06446 14.9336 3.68623 14.5677 3.68623 14.1456Z" fill="#C3D9F9"/>
</svg>
