<svg width="22" height="22" viewBox="0 0 22 22" fill="none" xmlns="http://www.w3.org/2000/svg">
<path d="M0.240719 20.5981C0.240719 20.5981 5.28653 15.558 5.60657 15.2386C5.92661 14.9193 6.44388 14.9206 6.76228 15.2417C7.04162 15.5238 7.07463 15.9585 6.86207 16.2767C6.83254 16.3209 6.79828 16.3629 6.75928 16.4019L1.39343 21.7613C1.23381 21.9204 1.02571 22 0.817075 22C0.607073 22 0.397337 21.9193 0.237717 21.7583C-0.0804205 21.437 -0.0790515 20.9177 0.240719 20.5981Z" fill="#B4B4B4"/>
<path d="M6.76228 15.2417C6.44388 14.9206 5.92661 14.9193 5.60657 15.2386L6.34521 14.5L7 15L7.5 15.5L6.86207 16.2767C7.07463 15.9585 7.04162 15.5238 6.76228 15.2417Z" fill="#B4B4B4"/>
<path d="M13 0.0264587C17.9626 0.0264587 22 4.06388 22 9.02646C22 13.989 17.9625 18.0265 13 18.0265C8.03752 18.0265 4 13.989 4 9.02646C4 4.06388 8.03748 0.0264587 13 0.0264587ZM13 16.547C17.1491 16.547 20.5246 13.1731 20.5246 9.02642C20.5246 4.87951 17.1491 1.50587 13 1.50587C8.85092 1.50587 5.47545 4.87951 5.47545 9.02642C5.47541 13.1731 8.85088 16.547 13 16.547Z" fill="#B4B4B4"/>
</svg>
