<svg width="24" height="24" viewBox="0 0 24 24" fill="none" xmlns="http://www.w3.org/2000/svg">
<path d="M0.262669 22.4706C0.262669 22.4706 5.76719 16.9724 6.11632 16.624C6.46545 16.2756 7.02975 16.2771 7.3771 16.6273C7.68183 16.935 7.71785 17.4092 7.48596 17.7564C7.45375 17.8046 7.41637 17.8504 7.37383 17.893L1.52017 23.7396C1.34604 23.9132 1.11902 24 0.89142 24C0.662328 24 0.433524 23.912 0.259393 23.7363C-0.0876656 23.3858 -0.0861721 22.8193 0.262669 22.4706Z" fill="white"/>
<path d="M7.3771 16.6273C7.02975 16.2771 6.46545 16.2756 6.11632 16.624L6.92212 15.8182L7.63643 16.3636L8.18188 16.9091L7.48596 17.7564C7.71785 17.4092 7.68183 16.935 7.3771 16.6273Z" fill="white"/>
<path d="M14.1818 0.0288696C19.5955 0.0288696 24 4.43333 24 9.84705C24 15.2608 19.5955 19.6652 14.1818 19.6652C8.7682 19.6652 4.36364 15.2608 4.36364 9.84705C4.36364 4.43333 8.76816 0.0288696 14.1818 0.0288696ZM14.1818 18.0512C18.7081 18.0512 22.3905 14.3706 22.3905 9.84701C22.3905 5.32311 18.7081 1.64277 14.1818 1.64277C9.65555 1.64277 5.97322 5.32311 5.97322 9.84701C5.97317 14.3706 9.65551 18.0512 14.1818 18.0512Z" fill="white"/>
</svg>
