<svg width="26" height="26" viewBox="0 0 26 26" fill="none" xmlns="http://www.w3.org/2000/svg">
<g clip-path="url(#clip0)">
<path d="M18.9922 26C17.5779 26 16.2335 25.5882 15.0757 24.8043C11.3244 25.4601 7.3857 24.3341 4.52568 21.4743C1.66705 18.6155 0.539749 14.6772 1.19574 10.9243C0.411804 9.76646 0 8.42215 0 7.00781C0 3.14368 3.14368 0 7.00781 0C8.42215 0 9.76646 0.411804 10.9243 1.19574C19.1015 -0.233673 26.239 6.86876 24.8043 15.0757C25.5882 16.2335 26 17.5779 26 18.9922C26 22.8563 22.8563 26 18.9922 26ZM15.9386 22.9218C16.8185 23.6067 17.8744 23.9688 18.9922 23.9688C21.7362 23.9688 23.9688 21.7364 23.9688 18.9922C23.9688 17.8744 23.6067 16.8185 22.9218 15.9386C22.7373 15.7015 22.6671 15.3951 22.7304 15.1015C24.253 8.01292 17.9379 1.75731 10.8985 3.26964C10.6051 3.33272 10.2985 3.2627 10.0614 3.07822C9.18149 2.39326 8.1256 2.03125 7.00781 2.03125C4.26384 2.03125 2.03125 4.26364 2.03125 7.00781C2.03125 8.1256 2.39326 9.18149 3.07822 10.0614C3.2627 10.2985 3.33292 10.6049 3.26964 10.8985C1.75037 17.9712 8.04565 24.2461 15.1015 22.7304C15.3937 22.6675 15.7005 22.7365 15.9386 22.9218ZM18.0105 15.9961C18.0105 13.2535 14.5433 12.4152 13.7673 12.177C12.1597 11.6837 10.0208 11.1336 10.0208 10.0039C10.0208 8.93036 11.3851 8.02344 13 8.02344C14.2848 8.02344 15.4561 8.60524 15.8487 9.43817C16.0879 9.94539 16.6931 10.163 17.2006 9.92377C17.7078 9.68454 17.9252 9.07953 17.6862 8.57211C16.8869 6.87669 14.8995 5.99219 13 5.99219C10.0448 5.99219 7.98952 7.91394 7.98952 10.0039C7.98952 12.7465 11.4567 13.5848 12.2327 13.823C13.8403 14.3163 15.9792 14.8664 15.9792 15.9961C15.9792 17.0696 14.6149 17.9766 13 17.9766C11.7152 17.9766 10.5439 17.3948 10.1513 16.5618C9.91206 16.0546 9.30685 15.837 8.79944 16.0762C8.29222 16.3155 8.07481 16.9205 8.31384 17.4279C9.11305 19.1233 11.1005 20.0078 13 20.0078C15.9552 20.0078 18.0105 18.0861 18.0105 15.9961Z" fill="#C3D9F9"/>
</g>
<defs>
<clipPath id="clip0">
<rect width="26" height="26" fill="white"/>
</clipPath>
</defs>
</svg>
