<svg width="20" height="20" viewBox="0 0 20 20" fill="none" xmlns="http://www.w3.org/2000/svg">
<g clip-path="url(#clip0)">
<path d="M10.0123 0.97225L10.0125 0.972616L12.5565 6.99387L12.6739 7.27163L12.9743 7.29744L19.4871 7.85694C19.4871 7.85694 19.4872 7.85694 19.4872 7.85695C19.489 7.85711 19.4904 7.85731 19.4915 7.8575C19.4923 7.85764 19.4929 7.85778 19.4934 7.85789L19.4945 7.85821C19.4953 7.85914 19.4974 7.86179 19.4989 7.86663C19.5003 7.87091 19.5004 7.87391 19.5003 7.87525C19.4996 7.87614 19.4981 7.87776 19.4955 7.88002L19.4953 7.88023L14.5551 12.1603L14.3272 12.3577L14.3955 12.6514L15.8758 19.0184C15.8759 19.0185 15.8759 19.0186 15.8759 19.0186C15.8766 19.0217 15.8768 19.0238 15.8769 19.025L15.877 19.0263C15.8763 19.0273 15.8746 19.0298 15.8707 19.0326C15.8673 19.0351 15.8646 19.036 15.8634 19.0364L15.8628 19.0362C15.8618 19.0357 15.8599 19.0349 15.8571 19.0332L15.8563 19.0327L10.259 15.6571L10.0008 15.5014L9.74259 15.6571L4.14581 19.0324C4.14573 19.0324 4.14566 19.0325 4.14559 19.0325C4.14286 19.0342 4.14094 19.035 4.13985 19.0355L4.1386 19.0359C4.13744 19.0356 4.13447 19.0348 4.13065 19.032C4.12703 19.0293 4.12528 19.0269 4.12462 19.0259L4.12465 19.025C4.12468 19.0247 4.12472 19.0242 4.12479 19.0237C4.12494 19.0225 4.12521 19.0208 4.12571 19.0187L4.12572 19.0187L5.60613 12.6514L5.67442 12.3577L5.44653 12.1603L0.505307 7.87921L0.505062 7.879C0.502637 7.8769 0.50123 7.87537 0.50052 7.87453L0.500034 7.87392C0.499948 7.87265 0.499953 7.86963 0.501356 7.86531C0.502849 7.86071 0.504772 7.85819 0.505565 7.85729L0.506807 7.85691C0.507967 7.85663 0.510109 7.8562 0.513416 7.85592L7.0263 7.29641L7.32671 7.2706L7.44407 6.99287L9.98809 0.972645L9.98825 0.97225C9.98955 0.969175 9.99062 0.96726 9.99125 0.966239L9.99193 0.965245C9.99305 0.964791 9.99584 0.963867 10.0003 0.963867C10.0047 0.963867 10.0075 0.964791 10.0086 0.965245L10.0093 0.966239C10.01 0.96726 10.011 0.969175 10.0123 0.97225ZM9.9914 0.965475C9.99137 0.965498 9.99137 0.965495 9.99142 0.965473L9.9914 0.965475Z" stroke="#FECB00"/>
</g>
<defs>
<clipPath id="clip0">
<rect width="20" height="20" fill="white"/>
</clipPath>
</defs>
</svg>
