<svg width="16" height="16" viewBox="0 0 16 16" fill="none" xmlns="http://www.w3.org/2000/svg">
<circle cx="8" cy="8" r="8" fill="#FF2626"/>
<path fill-rule="evenodd" clip-rule="evenodd" d="M5.20921 5.20921C5.48816 4.93026 5.94042 4.93026 6.21936 5.20921L8 6.98985L9.78064 5.20921C10.0596 4.93026 10.5118 4.93026 10.7908 5.20921C11.0697 5.48816 11.0697 5.94042 10.7908 6.21936L9.01015 8L10.7908 9.78064C11.0697 10.0596 11.0697 10.5118 10.7908 10.7908C10.5118 11.0697 10.0596 11.0697 9.78064 10.7908L8 9.01015L6.21936 10.7908C5.94042 11.0697 5.48816 11.0697 5.20921 10.7908C4.93026 10.5118 4.93026 10.0596 5.20921 9.78064L6.98985 8L5.20921 6.21936C4.93026 5.94042 4.93026 5.48816 5.20921 5.20921Z" fill="#F9F9F9"/>
</svg>
