<svg width="20" height="20" viewBox="0 0 20 20" fill="none" xmlns="http://www.w3.org/2000/svg">
<path d="M17.0711 2.92898C15.1823 1.0402 12.6711 0 10 0C7.32895 0 4.8177 1.04016 2.92895 2.92898C1.04016 4.81766 0 7.32891 0 10C0 12.6711 1.04016 15.1823 2.92895 17.0711C4.81773 18.9598 7.32895 20 10 20C12.6711 20 15.1823 18.9598 17.0711 17.0711C18.9598 15.1823 20 12.6711 20 10C20 7.32891 18.9598 4.81766 17.0711 2.92898ZM16.2052 3.7948C16.3604 3.94992 16.5082 4.10957 16.6492 4.27309L14.1602 6.76215C14.027 6.59164 13.8825 6.42828 13.7271 6.27289C13.5718 6.11746 13.4084 5.97297 13.2379 5.8398L15.7272 3.35051C15.8911 3.49195 16.0506 3.64016 16.2052 3.7948ZM14.0465 10C14.0465 10.7034 13.8681 11.3794 13.5329 11.9764C13.5289 11.9835 13.5247 11.9905 13.521 11.9977C13.3431 12.3099 13.1223 12.6004 12.8613 12.8613C12.6003 13.1223 12.3098 13.3432 11.9975 13.5211C11.9905 13.5246 11.9838 13.5287 11.977 13.5326C11.3798 13.868 10.7036 14.0465 9.99996 14.0465C9.2968 14.0465 8.62117 13.8682 8.02434 13.5333C8.01688 13.5291 8.00957 13.5246 8.00195 13.5207C7.68984 13.343 7.39953 13.1221 7.13863 12.8613C5.5609 11.2836 5.5609 8.71641 7.13863 7.13863C7.39965 6.87762 7.69004 6.65676 8.0023 6.47894C8.00941 6.47527 8.01625 6.47113 8.02324 6.46719C8.62035 6.13191 9.29637 5.95344 9.99992 5.95344C10.7022 5.95344 11.3771 6.13129 11.9734 6.46543C11.9818 6.4702 11.99 6.47516 11.9986 6.47957C12.3105 6.65727 12.6005 6.87793 12.8613 7.13867C13.122 7.39937 13.3426 7.68937 13.5203 8.00125C13.5248 8.01 13.5299 8.01848 13.5348 8.02707C13.8687 8.62328 14.0465 9.29793 14.0465 10ZM10 1.22449C11.7053 1.22449 13.336 1.70809 14.7364 2.60957L12.1579 5.18812C11.488 4.88742 10.7563 4.72902 10 4.72902C9.24379 4.72902 8.51195 4.88742 7.84211 5.18812L5.26363 2.60953C6.6641 1.70809 8.2948 1.22449 10 1.22449ZM3.79477 3.7948C3.94945 3.64012 4.10895 3.49195 4.27281 3.35035L6.76207 5.83969C6.5916 5.97293 6.4282 6.11738 6.27281 6.27277C6.11664 6.42895 5.97258 6.59262 5.84012 6.76254L3.3507 4.27309C3.49176 4.10961 3.63965 3.94992 3.79477 3.7948ZM2.61105 14.7349C0.768594 11.8607 0.768594 8.13926 2.61105 5.26512L5.19016 7.84426C4.57906 9.21184 4.57906 10.7881 5.19016 12.1557L2.61105 14.7349ZM3.79477 16.2053C3.63965 16.0501 3.4918 15.8905 3.35074 15.727L5.84016 13.2375C5.97258 13.4073 6.11664 13.5711 6.27281 13.7272C6.4282 13.8826 6.59164 14.0271 6.76207 14.1603L4.27277 16.6497C4.10895 16.5081 3.94945 16.36 3.79477 16.2053ZM10 18.7755C8.2948 18.7755 6.66402 18.292 5.26359 17.3905L7.84207 14.8119C8.51191 15.1126 9.24371 15.271 9.99996 15.271C10.7562 15.271 11.488 15.1126 12.1579 14.8119L14.7364 17.3905C13.336 18.292 11.7053 18.7755 10 18.7755ZM16.2052 16.2053C16.0506 16.3599 15.8911 16.5081 15.7272 16.6497L13.2379 14.1603C13.4084 14.0271 13.5718 13.8826 13.7271 13.7272C13.8825 13.5718 14.0271 13.4084 14.1602 13.238L16.6493 15.727C16.5082 15.8904 16.3604 16.0501 16.2052 16.2053ZM14.8119 12.1579C15.1126 11.4881 15.271 10.7563 15.271 10C15.271 9.24379 15.1126 8.51195 14.812 7.84215L17.3889 5.26508C19.2314 8.13922 19.2314 11.8607 17.389 14.7349L14.8119 12.1579Z" fill="#2E2E2E"/>
</svg>
