<svg aria-hidden="true" style="position: absolute; width: 0; height: 0; overflow: hidden;" version="1.1" xmlns="http://www.w3.org/2000/svg" xmlns:xlink="http://www.w3.org/1999/xlink">
<defs>
<symbol id="icon-priceIconHome" viewBox="0 0 32 32">


<path d="M27.7 19.513c-0.255-0.149-0.581-0.064-0.73 0.19l-6.115 10.43c-0.442 0.765-1.422 1.028-2.163 0.6l-1.191-0.772c-0.247-0.161-0.578-0.090-0.738 0.157s-0.090 0.578 0.157 0.738l1.215 0.786c0.419 0.242 0.877 0.357 1.329 0.357 0.922 0 1.82-0.477 2.312-1.33l6.113-10.428c0.149-0.254 0.064-0.581-0.19-0.73z"></path>
<path d="M29.315 0h-8.536c-1.651 0-2.88 0.525-4.112 1.757-0.209 0.209-0.209 0.546 0 0.754s0.546 0.209 0.754 0c1.039-1.039 1.981-1.444 3.357-1.444h8.536c0.882 0 1.601 0.718 1.601 1.6v8.536c0 1.377-0.405 2.318-1.445 3.357l-15.844 15.866c-0.605 0.604-1.659 0.604-2.263 0l-9.808-9.808c-0.302-0.302-0.469-0.704-0.469-1.132s0.166-0.829 0.468-1.131l14.32-14.3c0.22 0.056 0.441 0.112 0.67 0.173 2.17 0.581 3.883 1.182 5.159 1.718-0.251 0.465-0.392 0.986-0.392 1.522 0 1.765 1.436 3.201 3.201 3.201s3.201-1.436 3.201-3.201-1.436-3.201-3.201-3.201c-0.295 0-0.534 0.239-0.534 0.533s0.238 0.533 0.534 0.533c1.177 0 2.134 0.957 2.134 2.134s-0.957 2.134-2.134 2.134c-1.177 0-2.134-0.957-2.134-2.134 0-0.384 0.105-0.759 0.299-1.086 0.924 0.442 1.502 0.815 1.73 1.053-0.098 0.028-0.249 0.059-0.476 0.078-0.293 0.026-0.511 0.285-0.484 0.578 0.025 0.277 0.257 0.487 0.531 0.487 0.015 0 0.031-0.001 0.047-0.002 0.328-0.029 1.326-0.117 1.518-0.833 0.525-1.963-7.174-4.132-8.723-4.547-2.369-0.635-4.645-1.069-6.408-1.223-2.166-0.189-3.222 0.057-3.42 0.799-0.095 0.356-0.348 1.301 3.977 3.006 0.274 0.108 0.584-0.026 0.692-0.3s-0.027-0.584-0.301-0.692c-2.090-0.824-2.956-1.428-3.233-1.712 0.658-0.193 2.908-0.137 6.531 0.687l-13.858 13.838c-0.504 0.504-0.782 1.174-0.782 1.886s0.277 1.383 0.782 1.886l9.808 9.808c0.503 0.504 1.173 0.781 1.885 0.781s1.382-0.277 1.886-0.782l15.844-15.866c1.232-1.231 1.757-2.461 1.757-4.112v-8.536c0-1.471-1.197-2.667-2.667-2.667z"></path>
<path d="M17.103 19.919l-0.566 0.559-5.397-5.46 0.566-0.56 3.671 3.714c0.433 0.074 0.771-0.008 1.014-0.248 0.33-0.326 0.48-0.714 0.448-1.164-0.026-0.444-0.273-0.903-0.743-1.378-0.274-0.277-0.597-0.516-0.969-0.718-0.366-0.208-0.755-0.36-1.168-0.454l0.591-1.020c0.449 0.104 0.88 0.27 1.293 0.499 0.42 0.222 0.786 0.492 1.099 0.808 0.475 0.48 0.795 0.98 0.961 1.498 0.171 0.524 0.188 1.026 0.052 1.508-0.125 0.481-0.382 0.914-0.773 1.3-0.216 0.213-0.445 0.379-0.689 0.496l0.612 0.619zM10.311 15.837l5.397 5.46-0.566 0.56-3.654-3.697c-0.469-0.084-0.842 0.011-1.118 0.284-0.33 0.326-0.479 0.708-0.447 1.145 0.045 0.436 0.307 0.897 0.788 1.384 0.374 0.379 0.805 0.68 1.292 0.902 0.499 0.222 0.974 0.345 1.424 0.369l-0.546 1.025c-0.541-0.035-1.081-0.177-1.621-0.426-0.527-0.25-0.992-0.579-1.394-0.986-0.486-0.492-0.818-0.996-0.996-1.513-0.166-0.518-0.186-1.017-0.062-1.498s0.386-0.917 0.783-1.31c0.243-0.24 0.5-0.411 0.773-0.512l-0.62-0.627 0.566-0.56z"></path>
</symbol>
<symbol id="icon-dashboardIconHome" viewBox="0 0 32 32">
<path d="M31.721 15.704c-0.027-4.201-1.703-8.155-4.728-11.12-3.045-2.992-7.065-4.608-11.319-4.555-8.748 0.107-15.78 7.306-15.673 16.049 0.053 4.241 1.75 8.208 4.775 11.167 2.985 2.912 6.905 4.508 11.072 4.508 0.067 0 0.134 0 0.2 0 4.214-0.027 8.167-1.703 11.125-4.715 2.985-3.039 4.601-7.066 4.548-11.334zM26.459 26.33c-2.771 2.825-6.471 4.388-10.424 4.415-3.967 0.047-7.72-1.449-10.558-4.221-2.838-2.765-4.427-6.485-4.474-10.459-0.1-8.188 6.484-14.933 14.684-15.034 0.060 0 0.127 0 0.187 0 3.913 0 7.613 1.509 10.417 4.268 2.831 2.778 4.401 6.478 4.427 10.412 0.047 4-1.462 7.774-4.26 10.619z"></path>
<path d="M22.873 4.704c-2.104-1.322-4.534-2.024-7.018-2.024s-4.908 0.701-7.018 2.024-3.8 3.212-4.881 5.456c-0.12 0.247-0.013 0.548 0.234 0.668s0.548 0.013 0.668-0.234c2.030-4.201 6.344-6.919 10.998-6.919s8.975 2.718 10.998 6.919c0.087 0.174 0.267 0.281 0.454 0.281 0.073 0 0.147-0.013 0.214-0.047 0.247-0.12 0.354-0.421 0.234-0.668-1.088-2.244-2.771-4.127-4.881-5.456z"></path>
<path d="M20.842 10.147l-5.182 5.183c-0.194 0.194-0.194 0.514 0 0.708 0.1 0.1 0.227 0.147 0.354 0.147 0.134 0 0.26-0.047 0.354-0.147l5.182-5.183c0.194-0.194 0.194-0.514 0-0.708s-0.514-0.194-0.708 0z"></path>
<path d="M18.498 15.39c-0.274 0-0.501 0.227-0.501 0.501 0 1.155-0.942 2.097-2.15 2.144-1.175-0.007-2.13-0.942-2.13-2.090 0-0.007 0-0.013 0-0.020-0.020-0.574 0.194-1.142 0.594-1.556 0.387-0.401 0.895-0.621 1.442-0.621 0.274 0 0.501-0.227 0.501-0.501s-0.227-0.501-0.501-0.501c-0.821 0-1.589 0.334-2.164 0.928-0.581 0.608-0.901 1.436-0.875 2.277 0.007 1.703 1.416 3.085 3.145 3.085 0.007 0 0.013 0 0.013 0 1.75-0.067 3.125-1.449 3.125-3.146 0-0.274-0.227-0.501-0.501-0.501z"></path>
</symbol>
<symbol id="icon-boxIconHome" viewBox="0 0 41 32">
<path stroke-linejoin="miter" stroke-linecap="butt" stroke-miterlimit="4" stroke-width="0.5517" d="M40.822 6.878v-0.057c-0.016-0.040-0.034-0.078-0.057-0.114l-0.042-0.057-0.085-0.093-0.050-0.043-0.092-0.043h-0.035l-15.385-6.33c-0.17-0.069-0.361-0.069-0.531 0l-15.527 6.309-0.085 0.093-0.042 0.057c-0.022 0.036-0.041 0.074-0.057 0.114v0.057c-0.007 0.059-0.007 0.119 0 0.178v5.703h-8.125c-0.391 0-0.708 0.319-0.708 0.713s0.317 0.713 0.708 0.713v0.093h8.040v2.438h-2.755c-0.391 0-0.708 0.319-0.708 0.713s0.317 0.713 0.708 0.713h2.755v2.438h-6.531c-0.391 0-0.708 0.319-0.708 0.713s0.317 0.713 0.708 0.713h6.531v2.98c0.001 0.288 0.175 0.547 0.439 0.656l15.357 6.416c0.077 0.031 0.158 0.047 0.241 0.050 0.083-0.002 0.164-0.019 0.241-0.050l15.357-6.416c0.264-0.109 0.438-0.368 0.439-0.656v-17.822c0.007-0.059 0.007-0.119 0-0.178zM24.806 1.588l5.823 2.345-13.246 5.639-6.056-2.538 13.48-5.447zM24.077 30.232l-13.912-5.831v-2.509h2.94c0.391 0 0.708-0.319 0.708-0.713s-0.317-0.713-0.708-0.713h-2.94v-2.438h6.729c0.391 0 0.708-0.319 0.708-0.713s-0.317-0.713-0.708-0.713h-6.729v-2.431h1.417c0.391 0 0.708-0.319 0.708-0.713s-0.317-0.713-0.708-0.713h-1.417v-4.648l5.412 2.253 8.5 3.564v16.318zM24.813 12.709l-5.596-2.36 13.26-5.66 5.801 2.353-13.466 5.668zM25.515 30.232v-16.318l3.988-1.668 9.917-4.163 0.035 16.318-13.94 5.831z"></path>
</symbol>
<symbol id="icon-GroupIconHome" viewBox="0 0 32 32">
<path d="M15.582 19.78c0.118-0.249 0.416-0.355 0.665-0.237 0.405 0.192 0.83 0.351 1.263 0.472 0.181 0.051 0.318 0.198 0.355 0.383l0.528 2.641c0.052 0.261 0.283 0.45 0.549 0.45h1.441c0.266 0 0.497-0.189 0.549-0.45l0.528-2.641c0.037-0.184 0.174-0.332 0.355-0.383 0.611-0.171 1.201-0.416 1.753-0.727 0.164-0.092 0.366-0.085 0.522 0.020l2.241 1.494c0.221 0.147 0.518 0.118 0.706-0.070l1.019-1.019c0.188-0.188 0.217-0.485 0.070-0.706l-1.494-2.241c-0.104-0.156-0.112-0.358-0.020-0.522 0.311-0.552 0.556-1.142 0.727-1.753 0.051-0.181 0.199-0.318 0.383-0.355l2.641-0.528c0.261-0.052 0.45-0.283 0.45-0.549v-1.441c0-0.266-0.189-0.497-0.45-0.549l-2.641-0.528c-0.184-0.037-0.332-0.174-0.383-0.355-0.171-0.611-0.416-1.201-0.727-1.753-0.092-0.164-0.085-0.366 0.020-0.522l1.494-2.241c0.147-0.221 0.118-0.518-0.070-0.706l-1.019-1.019c-0.188-0.188-0.485-0.217-0.706-0.070l-2.241 1.494c-0.156 0.104-0.358 0.112-0.522 0.020-0.552-0.311-1.142-0.555-1.753-0.726-0.181-0.051-0.318-0.199-0.355-0.383l-0.528-2.641c-0.052-0.261-0.283-0.45-0.549-0.45h-1.441c-0.266 0-0.497 0.189-0.549 0.45l-0.528 2.641c-0.037 0.184-0.174 0.332-0.355 0.383-0.611 0.171-1.201 0.415-1.753 0.726-0.164 0.092-0.366 0.085-0.522-0.020l-2.241-1.494c-0.221-0.147-0.518-0.118-0.706 0.070l-1.019 1.019c-0.188 0.188-0.217 0.485-0.070 0.706l1.494 2.241c0.104 0.156 0.112 0.358 0.020 0.522-0.311 0.552-0.555 1.142-0.726 1.753-0.051 0.181-0.199 0.318-0.383 0.355l-2.641 0.528c-0.261 0.052-0.45 0.283-0.45 0.549v1.441c0 0.266 0.189 0.497 0.45 0.549l2.641 0.528c0.184 0.037 0.332 0.174 0.383 0.355 0.124 0.443 0.288 0.878 0.487 1.293 0.119 0.249 0.014 0.547-0.234 0.666s-0.547 0.014-0.666-0.234c-0.179-0.374-0.334-0.763-0.46-1.16l-2.346-0.469c-0.726-0.145-1.252-0.788-1.252-1.528v-1.441c0-0.74 0.527-1.383 1.253-1.528l2.346-0.469c0.154-0.484 0.349-0.955 0.583-1.406l-1.327-1.991c-0.411-0.616-0.329-1.443 0.195-1.966l1.019-1.019c0.523-0.523 1.35-0.605 1.966-0.195l1.991 1.327c0.451-0.234 0.922-0.429 1.406-0.583l0.469-2.346c0.145-0.726 0.788-1.252 1.528-1.252h1.441c0.74 0 1.383 0.527 1.528 1.253l0.469 2.346c0.484 0.154 0.955 0.349 1.406 0.583l1.991-1.327c0.616-0.411 1.443-0.329 1.966 0.195l1.019 1.019c0.523 0.523 0.605 1.35 0.195 1.966l-1.327 1.991c0.234 0.451 0.429 0.922 0.583 1.406l2.346 0.469c0.726 0.145 1.253 0.788 1.253 1.528v1.441c0 0.74-0.527 1.383-1.253 1.528l-2.346 0.469c-0.154 0.484-0.349 0.955-0.583 1.406l1.327 1.991c0.411 0.616 0.329 1.443-0.195 1.966l-1.019 1.019c-0.523 0.523-1.35 0.605-1.966 0.195l-1.991-1.327c-0.451 0.234-0.922 0.429-1.406 0.583l-0.469 2.346c-0.145 0.726-0.788 1.252-1.528 1.252h-1.441c-0.74 0-1.383-0.527-1.528-1.253l-0.469-2.346c-0.385-0.122-0.762-0.271-1.126-0.443-0.249-0.118-0.355-0.416-0.237-0.665z"></path>
<path d="M15.338 15.113c-0.073 0.037-0.151 0.055-0.227 0.055-0.181 0-0.356-0.099-0.445-0.272-0.403-0.785-0.616-1.67-0.616-2.558 0-3.094 2.518-5.612 5.612-5.612 1.472 0 2.863 0.566 3.917 1.593 0.197 0.192 0.201 0.509 0.009 0.706s-0.508 0.202-0.706 0.009c-0.866-0.845-2.010-1.31-3.22-1.31-2.544 0-4.613 2.070-4.613 4.613 0 0.741 0.17 1.448 0.505 2.102 0.126 0.245 0.029 0.546-0.217 0.672z"></path>
<path d="M24.335 10.203c0.261-0.090 0.545 0.049 0.634 0.31 0.202 0.587 0.304 1.201 0.304 1.827 0 3.094-2.518 5.612-5.612 5.612-1.19 0-2.327-0.368-3.288-1.064-0.223-0.162-0.273-0.474-0.112-0.697s0.474-0.273 0.697-0.112c0.79 0.572 1.724 0.874 2.703 0.874 2.544 0 4.613-2.070 4.613-4.613 0-0.515-0.084-1.020-0.25-1.502-0.090-0.261 0.049-0.545 0.31-0.634z"></path>
<path d="M1.152 22.010l1.444-0.289c0.088-0.262 0.194-0.517 0.317-0.764l-0.817-1.225c-0.315-0.472-0.252-1.107 0.149-1.508l0.669-0.669c0.401-0.401 1.036-0.464 1.508-0.149l1.225 0.817c0.247-0.123 0.502-0.229 0.764-0.317l0.289-1.444c0.111-0.557 0.604-0.961 1.172-0.961h0.947c0.568 0 1.061 0.404 1.172 0.961l0.289 1.444c0.262 0.088 0.517 0.194 0.764 0.317l1.225-0.817c0.472-0.315 1.107-0.252 1.508 0.149l0.669 0.669c0.402 0.401 0.464 1.036 0.149 1.508l-0.817 1.225c0.169 0.34 0.306 0.695 0.408 1.061 0.074 0.266-0.081 0.541-0.346 0.615s-0.541-0.081-0.615-0.346c-0.109-0.389-0.264-0.763-0.462-1.114-0.092-0.164-0.085-0.366 0.020-0.522l0.982-1.473c0.052-0.078 0.041-0.182-0.025-0.248l-0.669-0.669c-0.066-0.066-0.17-0.076-0.248-0.025l-1.473 0.982c-0.156 0.104-0.358 0.112-0.522 0.020-0.351-0.198-0.726-0.353-1.114-0.462-0.181-0.051-0.318-0.198-0.355-0.383l-0.347-1.735c-0.018-0.092-0.099-0.158-0.193-0.158h-0.947c-0.093 0-0.175 0.067-0.193 0.158l-0.347 1.735c-0.037 0.184-0.174 0.332-0.355 0.383-0.389 0.109-0.763 0.264-1.114 0.462-0.164 0.092-0.366 0.085-0.522-0.020l-1.473-0.982c-0.078-0.052-0.182-0.042-0.248 0.025l-0.669 0.669c-0.066 0.066-0.076 0.17-0.025 0.248l0.982 1.473c0.104 0.156 0.112 0.358 0.020 0.522-0.198 0.351-0.353 0.726-0.462 1.114-0.051 0.181-0.199 0.318-0.383 0.355l-1.735 0.347c-0.092 0.018-0.158 0.099-0.158 0.193v0.947c0 0.093 0.067 0.174 0.158 0.193l1.735 0.347c0.184 0.037 0.332 0.174 0.383 0.355 0.109 0.389 0.264 0.763 0.462 1.114 0.092 0.164 0.085 0.366-0.020 0.522l-0.982 1.473c-0.052 0.078-0.042 0.182 0.025 0.248l0.669 0.669c0.066 0.066 0.17 0.076 0.248 0.025l1.473-0.982c0.156-0.104 0.358-0.112 0.522-0.020 0.351 0.198 0.726 0.353 1.114 0.462 0.181 0.051 0.318 0.199 0.355 0.383l0.347 1.735c0.018 0.092 0.099 0.158 0.193 0.158h0.947c0.093 0 0.175-0.066 0.193-0.158l0.347-1.735c0.037-0.184 0.174-0.332 0.355-0.383 0.389-0.109 0.763-0.264 1.114-0.462 0.164-0.092 0.366-0.085 0.522 0.020l1.473 0.982c0.078 0.052 0.182 0.042 0.248-0.025l0.669-0.669c0.066-0.066 0.076-0.17 0.025-0.248l-0.982-1.473c-0.104-0.156-0.112-0.358-0.020-0.522 0.198-0.351 0.353-0.726 0.462-1.114 0.051-0.181 0.199-0.318 0.383-0.355l1.735-0.347c0.092-0.018 0.158-0.099 0.158-0.193v-0.947c0-0.093-0.066-0.174-0.158-0.193l-0.106-0.021c-0.27-0.054-0.446-0.317-0.392-0.587s0.317-0.445 0.588-0.392l0.106 0.021c0.557 0.111 0.961 0.604 0.961 1.172v0.947c0 0.568-0.404 1.061-0.961 1.172l-1.444 0.289c-0.088 0.262-0.194 0.517-0.317 0.764l0.817 1.225c0.315 0.472 0.252 1.107-0.149 1.508l-0.669 0.669c-0.402 0.401-1.036 0.464-1.508 0.149l-1.225-0.817c-0.247 0.123-0.502 0.229-0.764 0.317l-0.289 1.444c-0.111 0.557-0.604 0.961-1.172 0.961h-0.947c-0.568 0-1.061-0.404-1.172-0.961l-0.289-1.444c-0.262-0.088-0.517-0.194-0.764-0.317l-1.225 0.817c-0.472 0.315-1.107 0.252-1.508-0.149l-0.669-0.669c-0.401-0.401-0.464-1.036-0.149-1.508l0.817-1.225c-0.123-0.247-0.229-0.502-0.317-0.764l-1.444-0.289c-0.557-0.111-0.961-0.604-0.961-1.172v-0.947c-0-0.568 0.404-1.061 0.961-1.172z"></path>
<path d="M8.346 21.858c-0.991 0-1.797 0.806-1.797 1.797 0 0.276-0.224 0.499-0.499 0.499s-0.499-0.224-0.499-0.499c0-1.542 1.254-2.796 2.796-2.796s2.796 1.254 2.796 2.796c0 1.542-1.254 2.796-2.796 2.796-0.624 0-1.215-0.201-1.708-0.582-0.218-0.169-0.258-0.482-0.090-0.7s0.482-0.258 0.7-0.090c0.317 0.245 0.696 0.374 1.098 0.374 0.991 0 1.797-0.806 1.797-1.797s-0.806-1.797-1.797-1.797z"></path>
<path d="M16.619 12.339c0-1.677 1.365-3.042 3.042-3.042s3.042 1.365 3.042 3.042-1.364 3.042-3.042 3.042c-1.677 0-3.042-1.365-3.042-3.042zM21.704 12.339c0-1.127-0.917-2.043-2.043-2.043s-2.043 0.917-2.043 2.043c0 1.127 0.917 2.043 2.043 2.043s2.043-0.917 2.043-2.043z"></path>
</symbol>
</defs>
</svg>
