<svg width="13" height="13" viewBox="0 0 13 13" fill="none" xmlns="http://www.w3.org/2000/svg">
<path d="M11.6005 0H6.6669C6.56594 0 6.46904 0.0401686 6.39762 0.11158L0.409125 6.09988C-0.136375 6.64558 -0.136375 7.53336 0.409125 8.07886L4.92101 12.5906C5.18443 12.8541 5.53583 12.9992 5.91034 12.9993H5.91044C6.28505 12.9993 6.63645 12.8541 6.89998 12.5905L12.8883 6.60214C12.9597 6.53073 12.9999 6.43383 12.9999 6.33286L13 1.39926C12.9999 0.627722 12.372 0 11.6005 0ZM12.2381 6.17516L6.36132 12.052C6.24171 12.1717 6.08153 12.2375 5.91044 12.2375C5.73926 12.2375 5.57918 12.1717 5.45956 12.0521L0.947682 7.5403C0.699133 7.29175 0.699133 6.88709 0.947682 6.63844L6.8246 0.761716H11.6005C11.9521 0.761716 12.2382 1.04776 12.2382 1.39936L12.2381 6.17516Z" fill="white"/>
<path d="M9.64204 2.16016C9.32238 2.16016 9.02186 2.28473 8.79582 2.51077C8.56979 2.7367 8.44531 3.03722 8.44531 3.35689C8.44531 3.67655 8.56979 3.97707 8.79582 4.20311C9.02186 4.42915 9.32238 4.55362 9.64204 4.55362C9.96161 4.55362 10.2621 4.42915 10.4882 4.20311C10.7142 3.97707 10.8387 3.67655 10.8387 3.35689C10.8387 3.03722 10.7142 2.7367 10.4883 2.51077C10.2622 2.28473 9.96171 2.16016 9.64204 2.16016ZM9.94961 3.66445C9.86749 3.74667 9.75819 3.7919 9.64204 3.7919C9.5258 3.7919 9.4166 3.74667 9.33448 3.66445C9.25226 3.58233 9.20703 3.47303 9.20703 3.35689C9.20703 3.24075 9.25226 3.13145 9.33448 3.04932C9.4166 2.9671 9.5259 2.92188 9.64204 2.92188C9.75819 2.92188 9.86739 2.9671 9.94961 3.04932C10.0318 3.13145 10.0771 3.24075 10.0771 3.35689C10.0771 3.47303 10.0317 3.58233 9.94961 3.66445Z" fill="white"/>
</svg>
