<svg width="15" height="16" viewBox="0 0 15 16" fill="none" xmlns="http://www.w3.org/2000/svg">
<path fill-rule="evenodd" clip-rule="evenodd" d="M5.02428 0C4.59111 0 4.23996 0.351149 4.23996 0.784314V1.70846H0.784313C0.351149 1.70846 0 2.05961 0 2.49277V4.35721C0 4.79037 0.351149 5.14152 0.784314 5.14152H1.61201V14.1456C1.61201 15.1804 2.52368 16 3.61613 16H10.5015C11.5939 16 12.5056 15.1804 12.5056 14.1456V5.14152H13.3333C13.7664 5.14152 14.1176 4.79038 14.1176 4.35722L14.1176 2.49278C14.1176 2.05961 13.7665 1.70846 13.3333 1.70846H9.87774V0.784313C9.87774 0.351149 9.52659 0 9.09342 0H5.02428ZM5.37272 1.70846V1.06644H8.74487V1.70846H5.37272ZM1.13281 4.07508V2.77489H12.9848L12.9848 4.07508H1.13281ZM2.74482 14.1456V5.14152H11.3728V14.1456C11.3728 14.5677 10.9945 14.9336 10.5015 14.9336H3.61613C3.12306 14.9336 2.74482 14.5677 2.74482 14.1456Z" fill="#C3D9F9"/>
</svg>
