<svg width="25" height="25" viewBox="0 0 25 25" fill="none" xmlns="http://www.w3.org/2000/svg">
<path d="M4.75374 23.5439C3.6155 23.5439 2.54597 23.1004 1.74158 22.2961C0.0809327 20.6353 0.0809327 17.9328 1.74158 16.2722L14.9099 3.10317C15.9708 2.04116 17.3828 1.45703 18.8841 1.45703C20.3855 1.45703 21.7975 2.04116 22.8584 3.10317C23.9203 4.16489 24.5052 5.57607 24.5052 7.07725C24.5052 8.57871 23.921 9.98984 22.8593 11.0509L12.4929 21.4163C12.1817 21.7274 11.6777 21.7274 11.3666 21.4163C11.0554 21.1051 11.0554 20.6011 11.3666 20.2898L21.7327 9.92446C22.4936 9.16372 22.9121 8.15244 22.9121 7.07725C22.9121 6.00225 22.4928 4.99033 21.7321 4.22949C20.9712 3.46875 19.9599 3.0501 18.8841 3.0501C17.8084 3.0501 16.7971 3.46875 16.0363 4.22949L2.86804 17.3985C1.82883 18.4386 1.82883 20.1298 2.86804 21.1697C3.8761 22.1764 5.63118 22.1764 6.63918 21.1697L15.4815 12.3267C15.7219 12.0862 15.8597 11.7534 15.8597 11.4142C15.8597 11.0702 15.7252 10.7459 15.4808 10.5016C14.9783 9.99912 14.1592 9.99761 13.6567 10.5016L7.6178 16.5412C7.30676 16.8525 6.80251 16.8525 6.49148 16.5412C6.18025 16.2301 6.18025 15.7259 6.49148 15.4149L12.5302 9.37534C13.6535 8.2521 15.4824 8.2521 16.6072 9.37534C17.1526 9.92056 17.4528 10.6449 17.4528 11.4142C17.4528 12.1733 17.1448 12.9163 16.608 13.453L7.7657 22.2961C6.9613 23.1004 5.89172 23.5439 4.75374 23.5439Z" fill="#C3D9F9"/>
</svg>
