<svg width="65" height="40" viewBox="0 0 65 40" fill="none" xmlns="http://www.w3.org/2000/svg">
<path d="M61.8701 0H2.13293C0.954943 0 0 0.954943 0 2.13293V37.8671C0 39.0451 0.954943 40 2.13293 40H61.8701C63.0481 40 64.0031 39.0451 64.0031 37.8671V2.13293C64.0031 0.954943 63.0481 0 61.8701 0Z" fill="#F9F9F9"/>
<path d="M29.4522 26.0086H26.3242L28.2785 14.002H31.4065L29.4522 26.0086Z" fill="#0066B2"/>
<path d="M23.6972 14.0021L20.7172 22.2582L20.3651 20.4825L19.3089 15.0838C19.2476 14.7483 19.06 14.4491 18.7847 14.2479C18.5094 14.0466 18.1673 13.9586 17.8291 14.0021H12.8999L12.8438 14.2062C13.9978 14.4939 15.1008 14.9568 16.1146 15.5788L18.8292 26.024H22.0898L27.0445 14.0021H23.6972Z" fill="#0066B2"/>
<path d="M48.2862 26.0236H51.159L48.6587 14.017H46.1431C45.8388 13.9934 45.5349 14.0673 45.2753 14.2278C45.0157 14.3883 44.8139 14.6272 44.699 14.91L40.0352 26.0236H43.2958L43.9489 24.2428H47.9239L48.2862 26.0236ZM44.847 21.7782L46.4901 17.2827L47.4136 21.7782H44.847Z" fill="#0066B2"/>
<path d="M40.2808 16.89L40.7299 14.2876C39.8255 13.9702 38.8765 13.7979 37.9183 13.7773C36.362 13.7773 32.6574 14.4662 32.6574 17.7625C32.6574 20.865 36.9845 20.9007 36.9845 22.5336C36.9845 24.1664 33.1064 23.8705 31.8257 22.8397L31.3613 25.5391C32.4769 26.0071 33.6776 26.2382 34.8873 26.2177C37.0202 26.2177 40.24 25.1104 40.24 22.1049C40.24 18.9821 35.8772 18.6912 35.8772 17.3339C35.8772 15.9766 38.9439 16.1501 40.2808 16.89Z" fill="#0066B2"/>
<path d="M20.3651 20.4825L19.3089 15.0838C19.2476 14.7483 19.06 14.4491 18.7847 14.2479C18.5094 14.0466 18.1673 13.9586 17.8291 14.0021H12.8999L12.8438 14.2062C14.5398 14.6375 16.1223 15.4313 17.4821 16.533C18.7752 17.5716 19.77 18.9343 20.3651 20.4825Z" fill="#F9A533"/>
</svg>
