<svg width="30" height="30" viewBox="0 0 30 30" fill="none" xmlns="http://www.w3.org/2000/svg">
<path d="M7.5 0C6.46875 0 5.625 0.84375 5.625 1.875V28.125C5.625 29.1562 6.46875 30 7.5 30H26.25C27.2812 30 28.125 29.1562 28.125 28.125V7.5L20.625 0H7.5Z" fill="#E2E5E7"/>
<path d="M22.5 7.5H28.125L20.625 0V5.625C20.625 6.65625 21.4688 7.5 22.5 7.5Z" fill="#B0B7BD"/>
<path d="M28.125 13.125L22.5 7.5H28.125V13.125Z" fill="#CAD1D8"/>
<path d="M24.375 24.375C24.375 24.8906 23.9531 25.3125 23.4375 25.3125H2.8125C2.29688 25.3125 1.875 24.8906 1.875 24.375V15C1.875 14.4844 2.29688 14.0625 2.8125 14.0625H23.4375C23.9531 14.0625 24.375 14.4844 24.375 15V24.375Z" fill="#84BD5A"/>
<path d="M8.45568 19.1122L9.75975 17.4782C10.1497 16.9682 10.9072 17.6197 10.4797 18.1072C10.0307 18.6397 9.55818 19.2172 9.10818 19.8088L10.6372 21.7129C11.0497 22.2754 10.2257 22.8144 9.82068 22.2594L8.44068 20.4904L7.08412 22.2979C6.70162 22.8444 5.85412 22.2304 6.28162 21.7204L7.78818 19.8088C7.31568 19.2163 6.85818 18.6397 6.40162 18.1072C5.93005 17.5447 6.80662 16.9682 7.15162 17.4941L8.45568 19.1122Z" fill="white"/>
<path d="M11.5625 17.7622C11.5625 17.5147 11.7725 17.3047 12.035 17.3047C12.275 17.3047 12.4775 17.5156 12.4775 17.7622V21.5178H14.5166C15.2506 21.5178 15.2666 22.4994 14.5166 22.4994H12.0359C11.7734 22.4994 11.5634 22.3128 11.5634 22.0428V17.7622H11.5625Z" fill="white"/>
<path d="M15.9386 18.4374C16.1111 16.9824 18.3067 16.7208 19.3417 17.5158C19.8517 17.9274 19.3117 18.5799 18.8617 18.2499C18.3067 17.8983 17.0477 17.7333 16.8902 18.5114C16.6877 19.7414 19.9483 19.0374 19.8958 21.0314C19.8433 22.9355 17.0852 22.9796 16.0502 22.1255C15.8017 21.923 15.8102 21.5939 15.9452 21.3905C16.1402 21.1964 16.3567 21.1289 16.6127 21.3389C17.2267 21.758 18.8092 22.073 18.9208 21.008C18.8242 19.8999 15.7061 20.5664 15.9386 18.4374Z" fill="white"/>
<path d="M23.4375 25.3125H5.625V26.25H23.4375C23.9531 26.25 24.375 25.8281 24.375 25.3125V24.375C24.375 24.8906 23.9531 25.3125 23.4375 25.3125Z" fill="#CAD1D8"/>
</svg>
