<svg width="24" height="24" viewBox="0 0 24 24" fill="none" xmlns="http://www.w3.org/2000/svg">
<rect width="24" height="24" rx="12" fill="#2E2E2E"/>
<path d="M8.86991 12.4692H10.4323V18.9675C10.4323 19.0958 10.5352 19.1998 10.6622 19.1998H13.3113C13.4383 19.1998 13.5412 19.0958 13.5412 18.9675V12.4999H15.3373C15.4541 12.4999 15.5523 12.4113 15.5657 12.2941L15.8385 9.90177C15.8459 9.83595 15.8253 9.77003 15.7817 9.72066C15.7381 9.67123 15.6756 9.64294 15.6101 9.64294H13.5413V8.1433C13.5413 7.69123 13.7822 7.46199 14.2574 7.46199C14.3252 7.46199 15.6101 7.46199 15.6101 7.46199C15.7371 7.46199 15.84 7.35799 15.84 7.22974V5.03378C15.84 4.90548 15.7371 4.80152 15.6101 4.80152H13.7459C13.7328 4.80087 13.7036 4.7998 13.6605 4.7998C13.3371 4.7998 12.2128 4.86395 11.3247 5.6894C10.3406 6.60412 10.4774 7.69936 10.5101 7.88926V9.6429H8.86991C8.74291 9.6429 8.64001 9.74686 8.64001 9.87515V12.2369C8.64001 12.3652 8.74291 12.4692 8.86991 12.4692Z" fill="white"/>
</svg>
