<svg width="289" height="75" viewBox="0 0 289 75" fill="none" xmlns="http://www.w3.org/2000/svg">
<path d="M37.5257 59.3561L15.5897 37.5329H0L37.5257 74.9379V59.3561Z" fill="white"/>
<path d="M15.5788 37.5329L37.3978 15.5927V0L0 37.5329H15.5788Z" fill="white"/>
<path d="M43.8938 15.6439L65.8298 37.4671H81.4159L43.8938 0.0621223V15.6439Z" fill="white"/>
<path d="M29.3417 34.2112L49.3705 54.1232L57.1416 46.3068L37.2882 26.5738L29.3417 34.2112Z" fill="white"/>
<path d="M65.8371 37.4671L44.0181 59.4109V75L81.4159 37.4671H65.8371Z" fill="white"/>
<path d="M93.6041 25.5579H98.3538V42.1848H108.624V46.0437H93.6041V25.5579Z" fill="white"/>
<path d="M123.688 31.792C124.995 32.9541 125.649 34.7057 125.649 37.0469V46.0437H121.375V44.0813C120.517 45.543 118.918 46.2739 116.578 46.2739C115.497 46.2997 114.424 46.0902 113.432 45.66C112.604 45.3016 111.897 44.7115 111.397 43.9607C110.926 43.2281 110.682 42.3724 110.695 41.5014C110.67 40.835 110.807 40.1724 111.095 39.5708C111.383 38.9692 111.812 38.4466 112.347 38.0481C113.45 37.2101 115.155 36.7911 117.462 36.7911H121.09C121.116 36.365 121.048 35.9385 120.892 35.5414C120.735 35.1443 120.493 34.7863 120.184 34.4925C119.577 33.9566 118.67 33.6886 117.462 33.6886C116.622 33.6888 115.787 33.822 114.988 34.0833C114.243 34.3124 113.545 34.6738 112.928 35.1503L111.287 31.9601C112.224 31.3239 113.262 30.8518 114.356 30.5642C115.562 30.2314 116.807 30.0642 118.057 30.0672C120.505 30.0672 122.382 30.6422 123.688 31.792ZM119.796 42.6525C120.401 42.2897 120.857 41.7237 121.083 41.0556V39.466H117.951C116.081 39.466 115.144 40.075 115.142 41.2931C115.134 41.5641 115.192 41.8329 115.313 42.0758C115.433 42.3186 115.612 42.528 115.832 42.6854C116.389 43.0548 117.05 43.2342 117.718 43.197C118.446 43.2145 119.165 43.0311 119.796 42.6671V42.6525Z" fill="white"/>
<path d="M136.928 30.6519C137.947 30.2442 139.038 30.0454 140.136 30.0672V34.2806C139.628 34.2404 139.285 34.2221 139.109 34.2221C137.801 34.2221 136.777 34.5876 136.037 35.3184C135.296 36.0493 134.931 37.1455 134.94 38.6072V46.0437H130.359V30.3011H134.721V32.3767C135.281 31.6063 136.045 31.0086 136.928 30.6519Z" fill="white"/>
<path d="M159.536 30.3011V43.4126C159.536 46.2995 158.785 48.4457 157.282 49.8514C155.779 51.2571 153.587 51.9599 150.706 51.9599C149.244 51.9671 147.788 51.7803 146.376 51.4045C145.148 51.0981 143.993 50.5503 142.978 49.7929L144.805 46.5041C145.553 47.0951 146.408 47.5368 147.322 47.805C148.305 48.1249 149.332 48.2889 150.366 48.291C151.944 48.291 153.113 47.9256 153.862 47.2203C154.611 46.5151 154.988 45.4297 154.988 43.9863V43.3139C153.801 44.6222 152.144 45.2763 150.015 45.2763C148.634 45.2912 147.271 44.9635 146.047 44.3225C144.869 43.7095 143.882 42.7825 143.197 41.6439C142.507 40.4314 142.144 39.0599 142.144 37.6644C142.144 36.2689 142.507 34.8975 143.197 33.685C143.883 32.5472 144.869 31.6205 146.047 31.0064C147.271 30.3665 148.634 30.04 150.015 30.0563C152.3 30.0563 154.036 30.8066 155.225 32.3073V30.3011H159.536ZM153.873 40.4709C154.613 39.7285 155.028 38.7233 155.028 37.6754C155.028 36.6275 154.613 35.6223 153.873 34.8799C153.057 34.149 151.987 33.7661 150.892 33.8129C149.797 33.7709 148.727 34.1531 147.907 34.8799C147.536 35.2451 147.242 35.6803 147.041 36.1602C146.841 36.6401 146.737 37.1551 146.737 37.6754C146.737 38.1957 146.841 38.7107 147.041 39.1906C147.242 39.6706 147.536 40.1058 147.907 40.4709C148.727 41.1977 149.797 41.5799 150.892 41.538C151.987 41.5848 153.057 41.2019 153.873 40.4709Z" fill="white"/>
<path d="M179.116 39.466H167.205C167.392 40.4042 167.937 41.2325 168.725 41.7755C169.605 42.3667 170.65 42.6646 171.71 42.6269C172.457 42.64 173.2 42.5161 173.902 42.2615C174.563 41.9979 175.165 41.604 175.67 41.1031L178.1 43.7378C176.617 45.4431 174.451 46.2958 171.604 46.2958C169.973 46.3277 168.358 45.972 166.891 45.258C165.585 44.616 164.489 43.6161 163.73 42.3748C162.985 41.1073 162.605 39.6575 162.634 38.187C162.613 36.7233 162.992 35.2816 163.73 34.0175C164.449 32.7924 165.492 31.7896 166.745 31.1197C168.049 30.447 169.494 30.0911 170.961 30.081C172.429 30.0708 173.878 30.4066 175.192 31.0612C176.426 31.7098 177.447 32.7007 178.133 33.9152C178.866 35.2334 179.235 36.7228 179.203 38.2309C179.203 38.2893 179.174 38.6986 179.116 39.466ZM168.429 34.3975C167.713 35.0069 167.253 35.8645 167.143 36.7984H174.896C174.777 35.8713 174.319 35.0211 173.61 34.4122C172.889 33.8108 171.972 33.4937 171.034 33.5205C170.088 33.4902 169.164 33.8015 168.429 34.3975Z" fill="white"/>
<path d="M186.722 28.1049V35.2453H196.996V37.7631H186.722V46.0437H183.799V25.5579H198.257V28.1159L186.722 28.1049Z" fill="white"/>
<path d="M203.96 45.1995C202.756 44.5427 201.758 43.5649 201.077 42.3748C200.396 41.1214 200.04 39.7176 200.04 38.2912C200.04 36.8647 200.396 35.4609 201.077 34.2075C201.756 33.0193 202.755 32.0457 203.96 31.3974C205.242 30.7347 206.665 30.3889 208.108 30.3889C209.552 30.3889 210.975 30.7347 212.257 31.3974C213.454 32.0513 214.447 33.0239 215.125 34.2075C215.806 35.4609 216.162 36.8647 216.162 38.2912C216.162 39.7176 215.806 41.1214 215.125 42.3748C214.444 43.5602 213.453 44.537 212.257 45.1995C210.977 45.8717 209.554 46.2229 208.108 46.2229C206.663 46.2229 205.239 45.8717 203.96 45.1995ZM210.792 43.0764C211.58 42.6184 212.224 41.9487 212.652 41.1433C213.09 40.2572 213.316 39.2816 213.314 38.2931C213.311 37.3046 213.079 36.3302 212.637 35.4463C212.223 34.6438 211.59 33.9758 210.81 33.5205C209.987 33.0769 209.067 32.8447 208.132 32.8447C207.197 32.8447 206.277 33.0769 205.454 33.5205C204.655 33.9703 204 34.6382 203.565 35.4463C203.111 36.3292 202.875 37.3076 202.875 38.3003C202.875 39.293 203.111 40.2714 203.565 41.1543C203.999 41.9587 204.646 42.6277 205.436 43.0874C206.257 43.5381 207.178 43.7743 208.114 43.7743C209.05 43.7743 209.971 43.5381 210.792 43.0874V43.0764Z" fill="white"/>
<path d="M224.328 31.0904C225.42 30.5937 226.611 30.3537 227.81 30.3888V33.1112C227.597 33.0878 227.382 33.078 227.167 33.082C225.645 33.082 224.449 33.5351 223.579 34.4414C222.71 35.3476 222.276 36.64 222.279 38.3186V46.0437H219.469V30.535H222.162V33.1405C222.646 32.2431 223.406 31.5247 224.328 31.0904Z" fill="white"/>
<path d="M255.888 32.0844C257.028 33.2172 257.599 34.8957 257.601 37.12V46.0437H254.792V37.4415C254.792 35.9384 254.445 34.8068 253.75 34.0467C253.06 33.2866 252.07 32.9029 250.78 32.9029C250.152 32.8729 249.525 32.9762 248.94 33.2061C248.355 33.436 247.825 33.7873 247.386 34.2367C246.551 35.1259 246.132 36.3988 246.129 38.0554V46.0437H243.327V37.4415C243.327 35.9384 242.98 34.8068 242.286 34.0467C241.588 33.2866 240.598 32.8883 239.308 32.8883C238.68 32.8585 238.053 32.962 237.468 33.1918C236.883 33.4217 236.353 33.7728 235.914 34.2221C235.076 35.1113 234.657 36.3842 234.657 38.0408V46.0437H231.847V30.535H234.558V32.8445C235.124 32.048 235.892 31.4172 236.783 31.0173C237.769 30.5834 238.838 30.3689 239.914 30.3888C241.031 30.3682 242.135 30.619 243.133 31.1197C244.05 31.5949 244.798 32.3397 245.278 33.2537C245.881 32.3429 246.723 31.6149 247.711 31.1489C248.813 30.6292 250.019 30.3692 251.237 30.3888C253.195 30.3888 254.745 30.954 255.888 32.0844Z" fill="white"/>
<path d="M273.359 31.9675C274.499 33.0235 275.069 34.5912 275.069 36.6814V46.0437H272.406V43.9973C271.918 44.7367 271.221 45.3133 270.403 45.6526C269.425 46.0535 268.374 46.2476 267.316 46.2227C265.577 46.2227 264.186 45.8025 263.144 44.962C262.644 44.5716 262.244 44.0692 261.975 43.4953C261.706 42.9214 261.576 42.2921 261.595 41.6585C261.574 41.0327 261.698 40.4105 261.956 39.8401C262.215 39.2698 262.601 38.7666 263.085 38.3697C264.084 37.539 265.667 37.1248 267.835 37.1273H272.281V36.5718C272.281 35.3537 271.931 34.4268 271.229 33.7909C270.528 33.1478 269.494 32.8225 268.127 32.8225C267.21 32.823 266.3 32.9774 265.435 33.2793C264.624 33.5429 263.87 33.9542 263.21 34.4925L262.04 32.384C262.894 31.7184 263.868 31.2222 264.908 30.9223C266.056 30.5746 267.25 30.4022 268.449 30.4107C270.58 30.3961 272.217 30.915 273.359 31.9675ZM270.564 43.3395C271.339 42.8671 271.935 42.1513 272.259 41.3041V39.1408H267.93C265.548 39.1408 264.358 39.9398 264.36 41.538C264.352 41.8931 264.43 42.245 264.588 42.5633C264.746 42.8816 264.979 43.1567 265.266 43.3651C266.012 43.8539 266.894 44.0897 267.784 44.0375C268.758 44.0692 269.721 43.8274 270.564 43.3395Z" fill="white"/>
<path d="M288.996 45.1411C288.549 45.5114 288.031 45.7851 287.473 45.945C286.867 46.1311 286.236 46.2248 285.602 46.2227C284.038 46.2227 282.833 45.8025 281.974 44.962C281.116 44.1215 280.685 42.9266 280.685 41.3626V32.8445H278.05V30.535H280.685V27.1402H283.516V30.535H287.966V32.8445H283.516V41.2493C283.468 41.9506 283.693 42.6433 284.144 43.1824C284.378 43.4125 284.658 43.591 284.965 43.7062C285.272 43.8214 285.6 43.8707 285.927 43.8511C286.721 43.8708 287.496 43.6123 288.119 43.1202L288.996 45.1411Z" fill="white"/>
</svg>
