<svg width="66" height="66" viewBox="0 0 66 66" fill="none" xmlns="http://www.w3.org/2000/svg">
<g clip-path="url(#clip0)">
<path d="M50.875 46.7498C50.6275 46.7498 50.3773 46.7031 50.1408 46.6151L1.32826 28.0526C0.530761 27.7501 0.00276086 26.9856 1.08597e-05 26.1331C-0.00273914 25.2806 0.517011 24.5106 1.31726 24.2026L63.1923 0.140066C63.9265 -0.145934 64.7625 0.0135664 65.3428 0.549816C65.9203 1.08882 66.143 1.91107 65.9093 2.66732L52.8468 45.2923C52.679 45.8368 52.294 46.2878 51.7825 46.5408C51.4965 46.6811 51.1858 46.7498 50.875 46.7498ZM7.81001 26.1028L49.5495 41.9758L60.7173 5.52732L7.81001 26.1028Z" fill="white"/>
<path d="M23.375 52.25C23.1247 52.25 22.8718 52.2032 22.6298 52.1097C21.835 51.8045 21.3125 51.04 21.3125 50.1875V34.375C21.3125 33.7452 21.5985 33.154 22.088 32.7607L62.6505 0.448221C63.5442 -0.253029 64.8422 -0.112779 65.5517 0.775471C66.2612 1.66647 66.1127 2.96447 65.2245 3.67672L25.4375 35.3677V44.8497L32.2602 37.3422C33.0247 36.4952 34.331 36.4375 35.1725 37.202C36.0167 37.9665 36.08 39.2727 35.3127 40.1142L24.9013 51.5735C24.5025 52.0135 23.9442 52.25 23.375 52.25Z" fill="white"/>
<path d="M21.9614 54.598C21.5681 54.598 21.1749 54.488 20.8229 54.2543C19.8741 53.6245 19.6184 52.3458 20.2454 51.3943C21.0539 50.1788 21.5159 49.2878 21.5406 49.2438C22.0576 48.2345 23.2951 47.8303 24.3154 48.3555C25.3274 48.8725 25.7289 50.1155 25.2119 51.1275C25.2119 51.1275 24.6646 52.2 23.6829 53.6795C23.2869 54.2735 22.6296 54.598 21.9614 54.598Z" fill="white"/>
<path d="M7.71917 62.1772C7.54317 62.1772 7.35892 62.1525 7.18017 62.1057C4.58692 61.4017 2.68667 59.837 1.53717 57.4582C1.04217 56.4325 1.47392 55.2005 2.49967 54.7027C3.53092 54.2077 4.75742 54.6422 5.25517 55.6652C5.88492 56.977 6.81167 57.7332 8.26092 58.1292C9.36092 58.4262 10.0099 59.562 9.71017 60.6592C9.45717 61.575 8.62667 62.1772 7.71917 62.1772ZM13.4364 62.1635C12.5674 62.1635 11.7589 61.6107 11.4729 60.7362C11.1237 59.65 11.7177 58.4895 12.7984 58.1375C14.1157 57.714 15.4824 56.8285 16.8574 55.514C17.6797 54.7275 18.9832 54.755 19.7752 55.5772C20.5617 56.4022 20.5314 57.7057 19.7119 58.495C17.8832 60.244 15.9884 61.443 14.0744 62.0645C13.8599 62.1332 13.6454 62.1635 13.4364 62.1635Z" fill="white"/>
<path d="M2.14225 52.9403C1.06425 52.9403 0.15675 52.1015 0.088 51.0125C0.03025 50.1133 0 49.148 0 48.125C0 46.9865 0.924 46.0625 2.0625 46.0625C3.201 46.0625 4.125 46.9865 4.125 48.125C4.125 49.0518 4.14975 49.9235 4.202 50.743C4.27625 51.8788 3.41825 52.8633 2.27975 52.9348C2.233 52.9375 2.189 52.9403 2.14225 52.9403Z" fill="white"/>
</g>
<defs>
<clipPath id="clip0">
<rect width="66" height="66" fill="white"/>
</clipPath>
</defs>
</svg>
