<svg width="51" height="80" viewBox="0 0 51 80" fill="none" xmlns="http://www.w3.org/2000/svg">
<path d="M50.0831 31.6851C50.0831 17.9734 38.9671 6.85742 25.2554 6.85742C11.5437 6.85742 0.427734 17.9734 0.427734 31.6851C0.427734 45.3968 11.5437 56.5127 25.2554 56.5127C38.9671 56.5127 50.0831 45.397 50.0831 31.6851Z" fill="#DBB40C"/>
<path d="M20.9476 14.2205C20.3105 14.2205 19.7394 13.7776 19.6 13.1294C19.44 12.3845 19.9159 11.6522 20.6606 11.4922C21.5944 11.2922 22.5544 11.1556 23.5144 11.0867C24.2592 11.0398 24.9364 11.6039 24.9903 12.3639C25.0455 13.1239 24.4744 13.7833 23.7144 13.8384C22.8798 13.899 22.0467 14.0178 21.2372 14.1901C21.1408 14.2108 21.0428 14.2205 20.9476 14.2205ZM31.5656 14.9419C31.4097 14.9419 31.2525 14.9142 31.0967 14.859C30.3119 14.575 29.5022 14.3445 28.6884 14.1736C27.9436 14.0176 27.4678 13.2867 27.6236 12.5405C27.7794 11.7956 28.5159 11.3156 29.2567 11.4742C30.1947 11.6714 31.1298 11.9376 32.0347 12.2645C32.7519 12.5239 33.1215 13.3142 32.8636 14.03C32.6594 14.593 32.1297 14.9419 31.5656 14.9419ZM13.6305 17.5033C13.2056 17.5033 12.785 17.3073 12.5159 16.9378C12.0662 16.3226 12.2 15.4592 12.8153 15.0109C13.5905 14.4455 14.4098 13.9295 15.2525 13.4758C15.9201 13.1158 16.7601 13.3669 17.1214 14.0386C17.4814 14.7089 17.2303 15.5462 16.5586 15.9062C15.8262 16.2994 15.1145 16.7491 14.4426 17.2386C14.1973 17.4178 13.9117 17.5033 13.6305 17.5033ZM38.3725 19.1873C38.0276 19.1873 37.6842 19.0591 37.4153 18.8011C36.8167 18.2245 36.1712 17.6851 35.4981 17.197C34.8815 16.7501 34.7436 15.8867 35.1904 15.2701C35.6359 14.655 36.4967 14.513 37.1173 14.9639C37.8939 15.5253 38.6373 16.1487 39.3284 16.8136C39.8787 17.3419 39.8939 18.215 39.367 18.7639C39.0953 19.0453 38.7353 19.1873 38.3725 19.1873ZM8.26483 23.473C8.03029 23.473 7.79311 23.415 7.57514 23.2881C6.91576 22.9061 6.68967 22.0633 7.0717 21.4041C7.55029 20.5764 8.09233 19.7723 8.6828 19.0137C9.15045 18.4137 10.0165 18.3048 10.6194 18.7737C11.2194 19.2426 11.327 20.1089 10.8608 20.7103C10.3462 21.3683 9.87592 22.0662 9.45936 22.7848C9.2042 23.2273 8.74076 23.473 8.26483 23.473ZM42.8828 25.8219C42.3394 25.8219 41.8234 25.4964 41.6056 24.9612C41.2953 24.1984 40.9242 23.4453 40.5036 22.7226C40.1201 22.0647 40.3436 21.2206 41.0001 20.8372C41.6581 20.4551 42.5036 20.6758 42.887 21.3337C43.3739 22.1697 43.8015 23.04 44.1615 23.9226C44.4484 24.6275 44.1078 25.4316 43.4029 25.7184C43.2317 25.7887 43.0565 25.8219 42.8828 25.8219ZM5.79311 31.1061C5.74623 31.1061 5.69795 31.1033 5.64967 31.0978C4.89248 31.0206 4.34201 30.3433 4.41936 29.5861C4.51733 28.6301 4.6842 27.6744 4.91592 26.742C5.09936 26.0026 5.84967 25.5503 6.58764 25.7366C7.32701 25.92 7.77655 26.6676 7.59311 27.4083C7.39311 28.2137 7.24826 29.0414 7.1642 29.8676C7.08967 30.5764 6.49248 31.1061 5.79311 31.1061ZM44.3022 33.717H44.2539C43.4939 33.6922 42.8967 33.0536 42.9228 32.2922C42.9283 32.1033 42.9311 31.9142 42.9311 31.7239C42.9311 31.0825 42.8951 30.4328 42.8276 29.7942C42.7476 29.037 43.2953 28.357 44.0525 28.277C44.8236 28.2011 45.4897 28.7447 45.5711 29.5019C45.6483 30.237 45.6883 30.9847 45.6883 31.7239C45.6883 31.9445 45.6869 32.1639 45.6786 32.3833C45.6539 33.1295 45.0428 33.717 44.3022 33.717ZM6.63733 39.0853C6.0567 39.0853 5.51592 38.7142 5.32561 38.1322C5.02904 37.2233 4.79326 36.2811 4.62498 35.3362C4.49123 34.5859 4.99186 33.87 5.74092 33.7362C6.50373 33.6039 7.20857 34.1045 7.34092 34.8522C7.48717 35.6728 7.69123 36.4894 7.9492 37.277C8.18514 38.0011 7.7892 38.7805 7.06639 39.0164C6.9228 39.0633 6.77936 39.0853 6.63733 39.0853ZM42.3834 41.5087C42.1834 41.5087 41.978 41.4645 41.7848 41.3722C41.0994 41.0398 40.8111 40.2162 41.1434 39.5294C41.5075 38.7722 41.822 37.99 42.0731 37.2066C42.3076 36.4811 43.0869 36.0811 43.8097 36.3169C44.5351 36.55 44.9337 37.328 44.7008 38.052C44.4084 38.9569 44.047 39.8561 43.6262 40.728C43.3904 41.2219 42.8965 41.5087 42.3834 41.5087ZM10.6608 46.0247C10.2842 46.0247 9.90904 45.8716 9.63733 45.5695C8.99326 44.855 8.39451 44.0923 7.85936 43.2992C7.4317 42.6689 7.59733 41.8109 8.22764 41.3847C8.86217 40.957 9.71592 41.1226 10.1436 41.7544C10.6084 42.4412 11.127 43.1033 11.6842 43.7212C12.1945 44.2867 12.1505 45.1598 11.5848 45.6701C11.3214 45.9073 10.9905 46.0247 10.6608 46.0247ZM37.4608 47.8453C37.069 47.8453 36.6801 47.6798 36.407 47.3584C35.9147 46.7778 35.985 45.9073 36.567 45.415C37.2042 44.8744 37.8084 44.2867 38.3601 43.6701C38.869 43.1019 39.7436 43.055 40.3078 43.5612C40.8747 44.0701 40.9229 44.9419 40.4154 45.5101C39.7783 46.2205 39.0844 46.8964 38.3506 47.5184C38.0925 47.7378 37.7753 47.8453 37.4608 47.8453ZM17.149 50.7461C16.9614 50.7461 16.7711 50.7075 16.589 50.6261C15.7131 50.2358 14.8553 49.7778 14.0414 49.2675C13.3959 48.862 13.2028 48.0109 13.6083 47.3655C14.0137 46.72 14.862 46.5255 15.5103 46.9309C16.2123 47.3737 16.9544 47.7695 17.7117 48.1075C18.4083 48.4164 18.7214 49.233 18.4097 49.9281C18.1808 50.4412 17.6773 50.7461 17.149 50.7461ZM30.3945 51.6481C29.7959 51.6481 29.2469 51.2564 29.0704 50.655C28.8567 49.9226 29.2759 49.157 30.007 48.9433C30.8042 48.7116 31.5933 48.4192 32.3519 48.077C33.0498 47.7625 33.8622 48.0742 34.1753 48.7681C34.4884 49.4619 34.1808 50.2798 33.4856 50.593C32.6111 50.9875 31.7008 51.3226 30.7808 51.5916C30.6511 51.6301 30.5214 51.6481 30.3945 51.6481ZM25.0773 52.4136H25.0001C24.0373 52.4136 23.069 52.3473 22.123 52.2136C21.3684 52.1087 20.843 51.4122 20.9478 50.6576C21.0526 49.9031 21.7478 49.3694 22.505 49.4825C23.3256 49.597 24.1644 49.6548 25.0001 49.6548C25.7615 49.6548 26.4181 50.2728 26.4181 51.0342C26.4179 51.7956 25.84 52.4136 25.0773 52.4136Z" fill="white"/>
<path d="M24.9985 6.89656C30.7185 6.89656 35.9723 8.85109 40.1709 12.102V0H9.82617V12.102C14.0248 8.85109 19.2785 6.89656 24.9985 6.89656Z" fill="#C3D9F9"/>
<path d="M24.9985 56.5521C19.2785 56.5521 14.0248 54.5976 9.82617 51.3467V80.0004L24.9985 64.8281L40.1709 80.0004V51.3467C35.9723 54.5976 30.7185 56.5521 24.9985 56.5521Z" fill="#C3D9F9"/>
</svg>
