<svg width="10" height="10" viewBox="0 0 10 10" fill="none" xmlns="http://www.w3.org/2000/svg">
<g clip-path="url(#clip0)">
<mask id="path-1-inside-1" fill="white">
<path d="M8.85414 9.99989H1.14586C0.513763 9.99989 0 9.48613 0 8.85403V1.97903C0 1.34694 0.513763 0.833252 1.14586 0.833252H8.85414C9.48624 0.833252 10 1.34694 10 1.97903V8.85403C10 9.48613 9.48624 9.99989 8.85414 9.99989ZM1.14586 1.45825C0.858765 1.45825 0.625 1.69194 0.625 1.97903V8.85403C0.625 9.14113 0.858765 9.37489 1.14586 9.37489H8.85414C9.14124 9.37489 9.375 9.14113 9.375 8.85403V1.97903C9.375 1.69194 9.14124 1.45825 8.85414 1.45825H1.14586Z"/>
</mask>
<path d="M8.85414 9.99989H1.14586C0.513763 9.99989 0 9.48613 0 8.85403V1.97903C0 1.34694 0.513763 0.833252 1.14586 0.833252H8.85414C9.48624 0.833252 10 1.34694 10 1.97903V8.85403C10 9.48613 9.48624 9.99989 8.85414 9.99989ZM1.14586 1.45825C0.858765 1.45825 0.625 1.69194 0.625 1.97903V8.85403C0.625 9.14113 0.858765 9.37489 1.14586 9.37489H8.85414C9.14124 9.37489 9.375 9.14113 9.375 8.85403V1.97903C9.375 1.69194 9.14124 1.45825 8.85414 1.45825H1.14586Z" fill="#B4B4B4"/>
<path d="M8.85414 8.99989H1.14586V10.9999H8.85414V8.99989ZM1.14586 8.99989C1.06605 8.99989 1 8.93384 1 8.85403H-1C-1 10.0384 -0.0385212 10.9999 1.14586 10.9999V8.99989ZM1 8.85403V1.97903H-1V8.85403H1ZM1 1.97903C1 1.89931 1.06596 1.83325 1.14586 1.83325V-0.166748C-0.0384345 -0.166748 -1 0.794568 -1 1.97903H1ZM1.14586 1.83325H8.85414V-0.166748H1.14586V1.83325ZM8.85414 1.83325C8.93404 1.83325 9 1.89931 9 1.97903H11C11 0.794568 10.0384 -0.166748 8.85414 -0.166748V1.83325ZM9 1.97903V8.85403H11V1.97903H9ZM9 8.85403C9 8.93384 8.93395 8.99989 8.85414 8.99989V10.9999C10.0385 10.9999 11 10.0384 11 8.85403H9ZM1.14586 0.458252C0.306671 0.458252 -0.375 1.13946 -0.375 1.97903H1.625C1.625 2.24442 1.41086 2.45825 1.14586 2.45825V0.458252ZM-0.375 1.97903V8.85403H1.625V1.97903H-0.375ZM-0.375 8.85403C-0.375 9.69341 0.30648 10.3749 1.14586 10.3749V8.37489C1.41105 8.37489 1.625 8.58884 1.625 8.85403H-0.375ZM1.14586 10.3749H8.85414V8.37489H1.14586V10.3749ZM8.85414 10.3749C9.69352 10.3749 10.375 9.69341 10.375 8.85403H8.375C8.375 8.58884 8.58895 8.37489 8.85414 8.37489V10.3749ZM10.375 8.85403V1.97903H8.375V8.85403H10.375ZM10.375 1.97903C10.375 1.13946 9.69333 0.458252 8.85414 0.458252V2.45825C8.58914 2.45825 8.375 2.24442 8.375 1.97903H10.375ZM8.85414 0.458252H1.14586V2.45825H8.85414V0.458252Z" fill="#B4B4B4" mask="url(#path-1-inside-1)"/>
<mask id="path-3-inside-2" fill="white">
<path d="M9.6875 3.625H0.3125C0.139999 3.625 0 3.485 0 3.3125C0 3.14 0.139999 3 0.3125 3H9.6875C9.86 3 10 3.14 10 3.3125C10 3.485 9.86 3.625 9.6875 3.625Z"/>
</mask>
<path d="M9.6875 3.625H0.3125C0.139999 3.625 0 3.485 0 3.3125C0 3.14 0.139999 3 0.3125 3H9.6875C9.86 3 10 3.14 10 3.3125C10 3.485 9.86 3.625 9.6875 3.625Z" fill="#B4B4B4"/>
<path d="M9.6875 2.625H0.3125V4.625H9.6875V2.625ZM0.3125 2.625C0.692284 2.625 1 2.93272 1 3.3125H-1C-1 4.03729 -0.412285 4.625 0.3125 4.625V2.625ZM1 3.3125C1 3.69228 0.692284 4 0.3125 4V2C-0.412285 2 -1 2.58771 -1 3.3125H1ZM0.3125 4H9.6875V2H0.3125V4ZM9.6875 4C9.30772 4 9 3.69228 9 3.3125H11C11 2.58771 10.4123 2 9.6875 2V4ZM9 3.3125C9 2.93272 9.30772 2.625 9.6875 2.625V4.625C10.4123 4.625 11 4.03729 11 3.3125H9Z" fill="#B4B4B4" mask="url(#path-3-inside-2)"/>
<mask id="path-5-inside-3" fill="white">
<path d="M2.39586 2.5C2.22336 2.5 2.08336 2.36 2.08336 2.1875V0.3125C2.08336 0.139999 2.22336 0 2.39586 0C2.56836 0 2.70836 0.139999 2.70836 0.3125V2.1875C2.70836 2.36 2.56836 2.5 2.39586 2.5Z"/>
</mask>
<path d="M2.39586 2.5C2.22336 2.5 2.08336 2.36 2.08336 2.1875V0.3125C2.08336 0.139999 2.22336 0 2.39586 0C2.56836 0 2.70836 0.139999 2.70836 0.3125V2.1875C2.70836 2.36 2.56836 2.5 2.39586 2.5Z" fill="#B4B4B4"/>
<path d="M2.39586 1.5C2.77564 1.5 3.08336 1.80772 3.08336 2.1875H1.08336C1.08336 2.91229 1.67107 3.5 2.39586 3.5V1.5ZM3.08336 2.1875V0.3125H1.08336V2.1875H3.08336ZM3.08336 0.3125C3.08336 0.692284 2.77564 1 2.39586 1V-1C1.67107 -1 1.08336 -0.412285 1.08336 0.3125H3.08336ZM2.39586 1C2.01607 1 1.70836 0.692284 1.70836 0.3125H3.70836C3.70836 -0.412285 3.12064 -1 2.39586 -1V1ZM1.70836 0.3125V2.1875H3.70836V0.3125H1.70836ZM1.70836 2.1875C1.70836 1.80772 2.01607 1.5 2.39586 1.5V3.5C3.12064 3.5 3.70836 2.91229 3.70836 2.1875H1.70836Z" fill="#B4B4B4" mask="url(#path-5-inside-3)"/>
<mask id="path-7-inside-4" fill="white">
<path d="M7.60414 2.5C7.43164 2.5 7.29164 2.36 7.29164 2.1875V0.3125C7.29164 0.139999 7.43164 0 7.60414 0C7.77664 0 7.91664 0.139999 7.91664 0.3125V2.1875C7.91664 2.36 7.77664 2.5 7.60414 2.5Z"/>
</mask>
<path d="M7.60414 2.5C7.43164 2.5 7.29164 2.36 7.29164 2.1875V0.3125C7.29164 0.139999 7.43164 0 7.60414 0C7.77664 0 7.91664 0.139999 7.91664 0.3125V2.1875C7.91664 2.36 7.77664 2.5 7.60414 2.5Z" fill="#B4B4B4"/>
<path d="M7.60414 1.5C7.98393 1.5 8.29164 1.80772 8.29164 2.1875H6.29164C6.29164 2.91229 6.87936 3.5 7.60414 3.5V1.5ZM8.29164 2.1875V0.3125H6.29164V2.1875H8.29164ZM8.29164 0.3125C8.29164 0.692284 7.98393 1 7.60414 1V-1C6.87936 -1 6.29164 -0.412285 6.29164 0.3125H8.29164ZM7.60414 1C7.22436 1 6.91664 0.692284 6.91664 0.3125H8.91664C8.91664 -0.412285 8.32893 -1 7.60414 -1V1ZM6.91664 0.3125V2.1875H8.91664V0.3125H6.91664ZM6.91664 2.1875C6.91664 1.80772 7.22436 1.5 7.60414 1.5V3.5C8.32893 3.5 8.91664 2.91229 8.91664 2.1875H6.91664Z" fill="#B4B4B4" mask="url(#path-7-inside-4)"/>
</g>
<defs>
<clipPath id="clip0">
<rect width="10" height="10" fill="white"/>
</clipPath>
</defs>
</svg>
