<svg width="24" height="24" viewBox="0 0 24 24" fill="none" xmlns="http://www.w3.org/2000/svg">
<path d="M22.4929 22.5788L21.2497 6.63059C21.2316 6.41714 21.1321 6.21821 20.9711 6.07344C20.8101 5.92867 20.5993 5.84868 20.3809 5.84942H3.58086C3.36271 5.84976 3.15258 5.93012 2.9918 6.07468C2.83103 6.21924 2.73124 6.41754 2.71206 6.63059L1.44486 22.7341C1.43496 22.8503 1.44991 22.9673 1.48876 23.0775C1.5276 23.1877 1.58949 23.2887 1.67046 23.3741C1.75227 23.4599 1.85111 23.5283 1.96089 23.5753C2.07068 23.6222 2.18909 23.6466 2.30886 23.6471H21.6529C21.7857 23.647 21.9169 23.6171 22.0361 23.5596C22.1553 23.5021 22.2595 23.4185 22.3407 23.3153C22.4218 23.2122 22.4777 23.0921 22.5041 22.9644C22.5305 22.8367 22.5266 22.7048 22.4929 22.5788ZM19.5745 7.54353L20.6977 21.9482H3.24966L4.36806 7.54353H19.5745Z" fill="white"/>
<path d="M11.9808 0.117647C10.3615 0.116393 8.80772 0.744903 7.66041 1.86531C6.5131 2.98571 5.86592 4.50652 5.86084 6.09412V9.01176C5.86084 9.23767 5.95237 9.45432 6.11531 9.61405C6.27824 9.77379 6.49922 9.86353 6.72964 9.86353C6.96006 9.86353 7.18104 9.77379 7.34397 9.61405C7.50691 9.45432 7.59844 9.23767 7.59844 9.01176V6.09412C7.59844 4.95462 8.06016 3.8618 8.88201 3.05605C9.70387 2.25031 10.8186 1.79765 11.9808 1.79765C13.1431 1.79765 14.2578 2.25031 15.0797 3.05605C15.9015 3.8618 16.3632 4.95462 16.3632 6.09412V9.01176C16.3632 9.23767 16.4548 9.45432 16.6177 9.61405C16.7806 9.77379 17.0016 9.86353 17.232 9.86353C17.4625 9.86353 17.6834 9.77379 17.8464 9.61405C18.0093 9.45432 18.1008 9.23767 18.1008 9.01176V6.09412C18.0958 4.50652 17.4486 2.98571 16.3013 1.86531C15.154 0.744903 13.6002 0.116393 11.9808 0.117647Z" fill="white"/>
</svg>
