<svg width="24" height="24" viewBox="0 0 24 24" fill="none" xmlns="http://www.w3.org/2000/svg">
<path d="M23.2457 13.44H14.1943C13.7777 13.44 13.44 13.7777 13.44 14.1943V23.2457C13.44 23.6623 13.7777 24 14.1943 24H23.2457C23.6623 24 24 23.6623 24 23.2457V14.1943C24 13.7777 23.6623 13.44 23.2457 13.44ZM22.4914 22.4914H14.9486V14.9486H22.4914V22.4914Z" fill="white"/>
<path d="M23.2457 0H14.1943C13.7777 0 13.44 0.337684 13.44 0.754286V9.80571C13.44 10.2223 13.7777 10.56 14.1943 10.56H23.2457C23.6623 10.56 24 10.2223 24 9.80571V0.754286C24 0.337684 23.6623 0 23.2457 0ZM22.4914 9.05143H14.9486V1.50857H22.4914V9.05143Z" fill="white"/>
<path d="M9.80571 13.44H0.754286C0.337684 13.44 0 13.7777 0 14.1943V23.2457C0 23.6623 0.337684 24 0.754286 24H9.80571C10.2223 24 10.56 23.6623 10.56 23.2457V14.1943C10.56 13.7777 10.2223 13.44 9.80571 13.44ZM9.05143 22.4914H1.50857V14.9486H9.05143V22.4914Z" fill="white"/>
<path d="M9.80571 0H0.754286C0.337684 0 0 0.337684 0 0.754286V9.80571C0 10.2223 0.337684 10.56 0.754286 10.56H9.80571C10.2223 10.56 10.56 10.2223 10.56 9.80571V0.754286C10.56 0.337684 10.2223 0 9.80571 0ZM9.05143 9.05143H1.50857V1.50857H9.05143V9.05143Z" fill="white"/>
</svg>
