<svg width="15" height="14" viewBox="0 0 15 14" fill="none" xmlns="http://www.w3.org/2000/svg">
<g clip-path="url(#clip0_896_2267)">
<path d="M10.7598 9.01155C10.6375 9.01155 10.515 8.96506 10.4219 8.87149C10.2351 8.68506 10.2351 8.3828 10.4219 8.19637L12.1212 6.50051C12.7378 5.89087 13.0771 5.07627 13.0771 4.20445C13.0771 2.41246 11.6162 0.954545 9.82062 0.954545C8.94704 0.954545 8.13079 1.29246 7.5212 1.90653L5.82063 3.60378C5.63381 3.79022 5.33094 3.79022 5.14402 3.60378C4.9572 3.41723 4.9572 3.11497 5.14402 2.92854L6.84342 1.23268C7.63154 0.437772 8.69006 0 9.81992 0C12.1429 0 14.0329 1.88614 14.0329 4.20445C14.0329 5.33273 13.5935 6.38912 12.7958 7.1775L11.0978 8.87149C11.0041 8.96506 10.8823 9.01155 10.7598 9.01155Z" fill="#2173EF"/>
<path d="M4.21687 13.9996C1.89386 13.9996 0.00390625 12.1135 0.00390625 9.79515C0.00390625 8.66687 0.443265 7.6106 1.24095 6.8221L2.93907 5.12811C3.12589 4.94167 3.42876 4.94167 3.61557 5.12811C3.80238 5.31454 3.80238 5.6168 3.61557 5.80323L1.91628 7.49921C1.29898 8.10815 0.960384 8.92275 0.960384 9.79515C0.960384 11.5871 2.42125 13.0451 4.21687 13.0451C5.09045 13.0451 5.9067 12.7071 6.51629 12.0931L8.21686 10.3959C8.40368 10.2095 8.70655 10.2095 8.89336 10.3959C9.08029 10.5824 9.08029 10.8846 8.89336 11.0711L7.19407 12.767C6.40525 13.5618 5.34685 13.9996 4.21687 13.9996Z" fill="#2173EF"/>
<path d="M4.46629 10.0225C4.34392 10.0225 4.22145 9.97603 4.12839 9.88258C3.94158 9.69603 3.94158 9.39377 4.12839 9.20734L9.22953 4.11639C9.41646 3.92995 9.71933 3.92995 9.90614 4.11639C10.0929 4.30294 10.0929 4.6052 9.90614 4.79163L4.80488 9.88258C4.71113 9.97603 4.58877 10.0225 4.46629 10.0225Z" fill="#2173EF"/>
</g>
<defs>
<clipPath id="clip0_896_2267">
<rect width="14.0283" height="14" fill="white" transform="translate(0.00390625)"/>
</clipPath>
</defs>
</svg>
