<svg width="58" height="58" fill="none" xmlns="http://www.w3.org/2000/svg"><path d="M57.494 28.463c-.049-7.614-3.087-14.78-8.57-20.154C43.405 2.886 36.12-.044 28.41.053 12.554.247-.191 13.296.002 29.141c.097 7.687 3.171 14.877 8.654 20.24 5.41 5.277 12.515 8.17 20.068 8.17h.363c7.637-.048 14.802-3.086 20.164-8.546 5.41-5.507 8.34-12.807 8.243-20.542Zm-9.538 19.26c-5.023 5.12-11.728 7.952-18.893 8-7.19.085-13.992-2.626-19.136-7.65-5.144-5.011-8.025-11.754-8.11-18.956C1.638 14.277 13.57 2.05 28.434 1.87h.34c7.092 0 13.797 2.736 18.88 7.735 5.132 5.036 7.977 11.742 8.025 18.871.085 7.251-2.65 14.09-7.722 19.247Z" fill="url(#a)"/><path d="M41.457 8.526a23.893 23.893 0 0 0-25.442 0 23.92 23.92 0 0 0-8.847 9.89.91.91 0 0 0 .423 1.21.91.91 0 0 0 1.21-.423C12.482 11.589 20.3 6.662 28.737 6.662c8.436 0 16.267 4.927 19.934 12.54a.927.927 0 0 0 1.21.424.91.91 0 0 0 .424-1.21 24.079 24.079 0 0 0-8.847-9.89Z" fill="url(#b)"/><path d="m37.776 18.392-9.392 9.394a.913.913 0 0 0 0 1.283.898.898 0 0 0 .642.266.86.86 0 0 0 .641-.266l9.392-9.394a.913.913 0 0 0 0-1.283.913.913 0 0 0-1.282 0Z" fill="url(#c)"/><path d="M33.528 27.894a.914.914 0 0 0-.908.908c0 2.094-1.707 3.801-3.898 3.886-2.13-.012-3.86-1.707-3.86-3.79v-.035a3.877 3.877 0 0 1 1.077-2.82 3.6 3.6 0 0 1 2.614-1.127.914.914 0 0 0 .908-.907.915.915 0 0 0-.908-.908c-1.489 0-2.88.605-3.922 1.682a5.744 5.744 0 0 0-1.585 4.128c.012 3.087 2.566 5.592 5.7 5.592h.025c3.17-.12 5.664-2.626 5.664-5.701a.914.914 0 0 0-.907-.908Z" fill="url(#d)"/><defs><linearGradient id="a" x1="9.199" y1="7.526" x2="54.598" y2="14.569" gradientUnits="userSpaceOnUse"><stop stop-color="#2173EF"/><stop offset="1" stop-color="#C03CD6"/></linearGradient><linearGradient id="b" x1="14.009" y1="6.79" x2="43.085" y2="19.942" gradientUnits="userSpaceOnUse"><stop stop-color="#2173EF"/><stop offset="1" stop-color="#C03CD6"/></linearGradient><linearGradient id="c" x1="29.913" y1="19.586" x2="38.758" y2="20.957" gradientUnits="userSpaceOnUse"><stop stop-color="#2173EF"/><stop offset="1" stop-color="#C03CD6"/></linearGradient><linearGradient id="d" x1="24.866" y1="24.583" x2="33.861" y2="25.977" gradientUnits="userSpaceOnUse"><stop stop-color="#2173EF"/><stop offset="1" stop-color="#C03CD6"/></linearGradient></defs></svg>