<svg width="74" height="58" fill="none" xmlns="http://www.w3.org/2000/svg"><path d="M73.99 12.466v-.103a1.305 1.305 0 0 0-.103-.207l-.077-.104-.154-.168-.09-.077-.167-.078h-.064L45.45.255a1.277 1.277 0 0 0-.963 0l-27.821 11.28H16.6l-.167.078-.09.078-.154.168-.077.103c-.04.066-.075.135-.103.207v.103a1.293 1.293 0 0 0 0 .323v10.337H1.284c-.71 0-1.284.579-1.284 1.292 0 .714.575 1.292 1.284 1.292v.168h14.572v4.42h-4.994c-.71 0-1.284.578-1.284 1.291 0 .714.575 1.293 1.284 1.293h4.994v4.419H4.019c-.71 0-1.284.578-1.284 1.292 0 .713.575 1.292 1.284 1.292h11.837v5.401c.002.522.316.99.796 1.189L44.486 57.91c.14.055.287.086.437.09.15-.004.297-.035.436-.09l27.835-11.63c.48-.197.793-.666.796-1.188V12.789a1.294 1.294 0 0 0 0-.323ZM44.96 2.878 55.515 7.13 31.506 17.35l-10.977-4.6 24.432-9.872ZM43.64 54.796l-25.215-10.57v-4.548h5.328c.709 0 1.284-.578 1.284-1.292 0-.714-.575-1.292-1.284-1.292h-5.328v-4.42H30.62c.709 0 1.283-.578 1.283-1.291 0-.714-.575-1.293-1.284-1.293H18.425v-4.406h2.567c.71 0 1.284-.578 1.284-1.292 0-.713-.575-1.292-1.284-1.292h-2.567v-8.425l9.809 4.084 15.406 6.46v29.577Zm1.335-31.76-10.142-4.277 24.034-10.26 10.515 4.264-15.317 6.46-9.09 3.813Zm1.271 31.76V25.219l7.229-3.023 17.974-7.546.064 29.576-25.267 10.57Z" fill="url(#a)" stroke="#fff"/><defs><linearGradient id="a" x1="11.84" y1="7.68" x2="69.409" y2="19.108" gradientUnits="userSpaceOnUse"><stop stop-color="#2173EF"/><stop offset="1" stop-color="#C03CD6"/></linearGradient></defs></svg>