<svg width="24" height="24" viewBox="0 0 24 24" fill="none" xmlns="http://www.w3.org/2000/svg">
<rect width="24" height="24" rx="12" fill="#2E2E2E"/>
<path fill-rule="evenodd" clip-rule="evenodd" d="M11.9988 18.2396C12.0404 18.2398 12.0818 18.2398 12.1231 18.2398C13.0558 18.2398 13.9206 18.2148 14.7624 18.1636C15.5684 18.1146 16.304 17.8361 16.89 17.3583C17.4555 16.8972 17.8415 16.2739 18.0376 15.5057C18.2083 14.8368 18.2173 14.1803 18.2259 13.5455L18.2259 13.5454C18.2322 13.0898 18.2388 12.5499 18.24 12.0009V11.9986C18.2388 11.4496 18.2322 10.9097 18.2259 10.4541C18.2173 9.81923 18.2082 9.16262 18.0376 8.49383C17.8415 7.72564 17.4555 7.10226 16.89 6.64123C16.304 6.16344 15.5684 5.88494 14.7624 5.8359C13.8834 5.78249 12.9798 5.75783 12.0012 5.75992C11.0208 5.75754 10.1167 5.78249 9.23767 5.8359C8.43165 5.88494 7.69599 6.16344 7.11002 6.64123C6.54461 7.10226 6.1585 7.72564 5.96244 8.49383C5.79181 9.16272 5.78277 9.81923 5.7741 10.4541C5.76782 10.9097 5.76134 11.4496 5.76001 12.0009C5.76134 12.5499 5.76782 13.0898 5.7741 13.5454C5.78277 14.1804 5.79181 14.8369 5.96244 15.5057C6.1585 16.2739 6.54461 16.8972 7.11002 17.3583C7.69599 17.8361 8.43165 18.1146 9.23758 18.1636C10.1166 18.2171 11.0205 18.242 11.9988 18.2396ZM15.1924 11.9998C15.1924 13.7229 13.7955 15.1198 12.0724 15.1198C10.3493 15.1198 8.95241 13.7229 8.95241 11.9998C8.95241 10.2766 10.3493 8.87978 12.0724 8.87978C13.7955 8.87978 15.1924 10.2766 15.1924 11.9998ZM15.3634 9.49179C15.7538 9.49179 16.0704 9.1686 16.0704 8.76991C16.0704 8.37123 15.7538 8.04803 15.3634 8.04803C14.973 8.04803 14.6565 8.37123 14.6565 8.76991C14.6565 9.1686 14.973 9.49179 15.3634 9.49179Z" fill="white"/>
</svg>
